<?xml version="1.0" encoding="UTF-8" standalone="no"?><!DOCTYPE svg PUBLIC "-//W3C//DTD SVG 1.1//EN" "http://www.w3.org/Graphics/SVG/1.1/DTD/svg11.dtd"><svg width="100%" height="100%" viewBox="0 0 124 202" version="1.1" xmlns="http://www.w3.org/2000/svg" xmlns:xlink="http://www.w3.org/1999/xlink" xml:space="preserve" xmlns:serif="http://www.serif.com/" style="fill-rule:evenodd;clip-rule:evenodd;stroke-linejoin:round;stroke-miterlimit:2;"><path d="M110.813,143.437l-28.126,0l0.001,-12.5l28.124,0l0,12.5Zm0,18.75l-28.125,0l0,-12.5l28.125,0l0,12.5Zm0,18.75l-28.125,0l0,-12.5l28.125,0l0,12.5Zm-34.375,-37.5l-28.125,0l0,-12.5l28.125,0l0,12.5Zm0,18.75l-28.125,0l0,-12.5l28.125,0l0,12.5Zm0,18.75l-28.125,0l0,-12.5l28.125,0l0,12.5Zm-35.093,-37.5l-28.125,0l-0,-12.5l28.125,0l-0,12.5Zm-0,18.75l-28.125,0l-0,-12.5l28.125,0l-0,12.5Zm-0,18.75l-28.125,0l-0,-12.5l28.125,0l-0,12.5Zm-24.688,-162.968l91.406,-0l0,95.187l-91.406,0l0,-95.187Zm94.813,-17.969l-98.969,-0c-6.906,-0 -12.5,5.594 -12.5,12.5l0,173.844c0,8.625 7,15.625 15.625,15.625l92.719,-0c8.625,-0 15.625,-7 15.625,-15.625l-0,-173.844c-0,-6.906 -5.594,-12.5 -12.5,-12.5" style="fill:#08c;fill-rule:nonzero;"/></svg>