<?xml version="1.0" encoding="UTF-8" standalone="no"?><!DOCTYPE svg PUBLIC "-//W3C//DTD SVG 1.1//EN" "http://www.w3.org/Graphics/SVG/1.1/DTD/svg11.dtd"><svg width="100%" height="100%" viewBox="0 0 389 251" version="1.1" xmlns="http://www.w3.org/2000/svg" xmlns:xlink="http://www.w3.org/1999/xlink" xml:space="preserve" xmlns:serif="http://www.serif.com/" style="fill-rule:evenodd;clip-rule:evenodd;stroke-linejoin:round;stroke-miterlimit:2;"><g opacity="0.2"><path d="M48.591,225.887l-0,-200.847l140.843,104.112l150.722,-108.444l0,205.179l-291.565,-0Zm335.078,-189.438c0.975,0 5.078,0.169 5.078,0.275l-0,-29.506l-388.747,-0l0,29.231c13.881,0 21.897,9.909 21.897,22.141c-0,12.206 -8.969,22.125 -21.188,22.125c-0.568,-0 -0.709,-0.119 -0.709,-0.169l-0,23.516c13.881,-0 21.897,9.906 21.897,22.137c-0,12.206 -8.969,22.128 -21.188,22.128c-0.568,0 -0.709,-0.131 -0.709,-0.169l-0,23.504c13.881,-0 21.897,9.915 21.897,22.134c-0,12.222 -8.969,22.137 -21.188,22.137c-0.568,0 -0.709,-0.131 -0.709,-0.162l-0,34.416l388.747,-0l-0,-34.535c-0,0.119 -4.103,0.281 -5.078,0.281c-12.197,0 -23.253,-9.915 -23.253,-22.137c-0,-12.219 11.603,-22.134 23.825,-22.134c0.971,-0 4.506,0.165 4.506,0.284l-0,-23.906c-0,0.118 -4.103,0.287 -5.078,0.287c-12.197,0 -23.253,-9.922 -23.253,-22.128c-0,-12.231 11.603,-22.137 23.825,-22.137c0.971,-0 4.506,0.165 4.506,0.271l-0,-23.903c-0,0.116 -4.103,0.285 -5.078,0.285c-12.197,-0 -22.116,-9.919 -22.116,-22.125c0,-12.232 9.919,-22.141 22.116,-22.141" style="fill-rule:nonzero;"/><path d="M192.832,158.763l-120.335,-84.728l0,125.966l243.75,-0l0,-131.816l-123.415,90.578Z" style="fill-rule:nonzero;"/></g><path d="M48.591,219.637l-0,-200.847l140.843,104.112l150.722,-108.444l0,205.179l-291.565,-0Zm335.078,-189.438c0.975,0 5.078,0.169 5.078,0.275l-0,-29.506l-388.747,-0l0,29.231c13.881,0 21.897,9.909 21.897,22.141c-0,12.206 -8.969,22.125 -21.188,22.125c-0.568,-0 -0.709,-0.119 -0.709,-0.169l-0,23.516c13.881,-0 21.897,9.906 21.897,22.137c-0,12.206 -8.969,22.128 -21.188,22.128c-0.568,0 -0.709,-0.131 -0.709,-0.169l-0,23.504c13.881,-0 21.897,9.915 21.897,22.134c-0,12.222 -8.969,22.137 -21.188,22.137c-0.568,0 -0.709,-0.131 -0.709,-0.162l-0,34.416l388.747,-0l-0,-34.535c-0,0.119 -4.103,0.281 -5.078,0.281c-12.197,0 -23.253,-9.915 -23.253,-22.137c-0,-12.219 11.603,-22.134 23.825,-22.134c0.971,-0 4.506,0.165 4.506,0.284l-0,-23.906c-0,0.118 -4.103,0.287 -5.078,0.287c-12.197,0 -23.253,-9.922 -23.253,-22.128c-0,-12.231 11.603,-22.137 23.825,-22.137c0.971,-0 4.506,0.165 4.506,0.271l-0,-23.903c-0,0.116 -4.103,0.285 -5.078,0.285c-12.197,-0 -22.116,-9.919 -22.116,-22.125c0,-12.232 9.919,-22.141 22.116,-22.141" style="fill:#645f66;fill-rule:nonzero;"/><path d="M192.832,152.513l-120.335,-84.728l0,125.966l243.75,-0l0,-131.816l-123.415,90.578Z" style="fill:#08c;fill-rule:nonzero;"/><g opacity="0.1"><path d="M388.125,0l-387.5,0l-0,6.25l387.5,0l-0,-6.25Z" style="fill:#fff;fill-rule:nonzero;"/></g><g opacity="0.1"><path d="M192.832,152.513l-120.335,-84.728l0,6.25l120.335,84.728l123.415,-90.578l0,-6.25l-123.415,90.578Z" style="fill:#fff;fill-rule:nonzero;"/></g></svg>