<?xml version="1.0" encoding="UTF-8" standalone="no"?><!DOCTYPE svg PUBLIC "-//W3C//DTD SVG 1.1//EN" "http://www.w3.org/Graphics/SVG/1.1/DTD/svg11.dtd"><svg width="100%" height="100%" viewBox="0 0 879 879" version="1.1" xmlns="http://www.w3.org/2000/svg" xmlns:xlink="http://www.w3.org/1999/xlink" xml:space="preserve" xmlns:serif="http://www.serif.com/" style="fill-rule:evenodd;clip-rule:evenodd;"><g id="Layer_2"></g><g id="Layer_4"><g><path d="M439.167,861.25c-232.917,0 -421.667,-188.75 -421.667,-421.667c0,-233.333 188.75,-422.083 421.667,-422.083c232.916,0 421.666,188.75 421.666,421.667" style="fill:none;fill-rule:nonzero;stroke:#045f9e;stroke-width:34.67px;"/><g><path d="M860.833,439.167c0,5.833 0,11.666 -0.416,17.5" style="fill:none;fill-rule:nonzero;stroke:#045f9e;stroke-width:34.67px;"/><path d="M857.917,489.583c-23.75,198.334 -184.584,354.167 -385,370.417" style="fill:none;fill-rule:nonzero;stroke:#045f9e;stroke-width:34.67px;stroke-dasharray:33.04,33.04;"/><path d="M456.667,860.833c-5.834,0.417 -11.667,0.417 -17.5,0.417" style="fill:none;fill-rule:nonzero;stroke:#045f9e;stroke-width:34.67px;"/></g><path d="M428.784,138.929c165.705,-5.729 304.888,124.152 310.617,289.857c5.729,165.705 -124.151,304.887 -289.856,310.616c-165.705,5.729 -304.888,-124.151 -310.617,-289.856c-5.729,-165.705 124.151,-304.888 289.856,-310.617Z" style="fill:#0a577b;"/><path d="M662.917,332.5l-82.5,-82.5l-212.084,212.5l-63.75,-63.75l-82.5,82.5l145,147.083l295.834,-295.833Z" style="fill:#fff;fill-rule:nonzero;stroke:#045f9e;stroke-width:34.67px;"/></g></g></svg>