<svg viewBox="0 0 879 879" xmlns="http://www.w3.org/2000/svg" fill-rule="evenodd" clip-rule="evenodd"><path d="M439.167 861.25C206.25 861.25 17.5 672.5 17.5 439.583 17.5 206.25 206.25 17.5 439.167 17.5c232.916 0 421.666 188.75 421.666 421.667" fill="none" stroke="#045f9e" stroke-width="34.67"/><g fill="none" stroke="#045f9e" stroke-width="34.67"><path d="M860.833 439.167c0 5.833 0 11.666-.416 17.5"/><path d="M857.917 489.583c-23.75 198.334-184.584 354.167-385 370.417" stroke-dasharray="33.04,33.04"/><path d="M456.667 860.833c-5.834.417-11.667.417-17.5.417"/></g><path d="M428.784 138.929c165.705-5.729 304.888 124.152 310.617 289.857 5.729 165.705-124.151 304.887-289.856 310.616-165.705 5.729-304.888-124.151-310.617-289.856-5.729-165.705 124.151-304.888 289.856-310.617z" fill="#045f9e"/><path d="M662.917 332.5l-82.5-82.5-212.084 212.5-63.75-63.75-82.5 82.5 145 147.083L662.917 332.5z" fill="#fff" fill-rule="nonzero" stroke="#045f9e" stroke-width="34.67"/></svg>