<?xml version="1.0" encoding="UTF-8" standalone="no"?><!DOCTYPE svg PUBLIC "-//W3C//DTD SVG 1.1//EN" "http://www.w3.org/Graphics/SVG/1.1/DTD/svg11.dtd"><svg width="100%" height="100%" viewBox="0 0 250 250" version="1.1" xmlns="http://www.w3.org/2000/svg" xmlns:xlink="http://www.w3.org/1999/xlink" xml:space="preserve" xmlns:serif="http://www.serif.com/" style="fill-rule:evenodd;clip-rule:evenodd;stroke-linejoin:round;stroke-miterlimit:2;"><path d="M229.166,0l-208.332,0c-11.456,0 -20.834,9.378 -20.834,20.834l-0,208.332c-0,11.456 9.378,20.834 20.834,20.834l104.166,0l0,-104.166l-20.834,0l-0,-20.834l20.834,0l0,-20.834c0,-28.766 23.325,-52.082 52.084,-52.082l20.832,0l-0,20.832l-20.832,-0c-17.253,-0 -31.25,13.99 -31.25,31.25l0,20.834l52.082,0l-0,20.834l-52.082,0l0,104.166l83.332,0c11.456,0 20.834,-9.378 20.834,-20.834l0,-208.332c0,-11.456 -9.378,-20.834 -20.834,-20.834Z" style="fill:#fff;fill-rule:nonzero;"/></svg>