<?xml version="1.0" encoding="UTF-8" standalone="no"?><!DOCTYPE svg PUBLIC "-//W3C//DTD SVG 1.1//EN" "http://www.w3.org/Graphics/SVG/1.1/DTD/svg11.dtd"><svg width="100%" height="100%" viewBox="0 0 250 250" version="1.1" xmlns="http://www.w3.org/2000/svg" xmlns:xlink="http://www.w3.org/1999/xlink" xml:space="preserve" xmlns:serif="http://www.serif.com/" style="fill-rule:evenodd;clip-rule:evenodd;stroke-linejoin:round;stroke-miterlimit:2;"><path d="M229.166,52.081c-0,-28.765 -23.316,-52.081 -52.082,-52.081c-28.768,0 -52.084,23.316 -52.084,52.081l-0,31.25c-45.066,0 -85.328,-20.465 -112.081,-52.569c-27.119,59.572 -10.132,130.982 42.593,171.682c-14.74,13.215 -34.171,21.312 -55.512,21.312c23.631,16.497 52.328,26.244 83.334,26.244c80.554,-0 145.832,-65.306 145.832,-145.834l-0,-31.25l20.834,-20.835l-20.834,0Zm-46.885,10.419c-5.737,-0 -10.406,-4.659 -10.406,-10.419c0,-5.756 4.669,-10.415 10.406,-10.415c5.76,-0 10.428,4.659 10.428,10.415c0,5.76 -4.668,10.419 -10.428,10.419Z" style="fill:#fff;fill-rule:nonzero;"/></svg>