<?xml version="1.0" encoding="UTF-8" standalone="no"?><!DOCTYPE svg PUBLIC "-//W3C//DTD SVG 1.1//EN" "http://www.w3.org/Graphics/SVG/1.1/DTD/svg11.dtd"><svg width="100%" height="100%" viewBox="0 0 2881 1786" version="1.1" xmlns="http://www.w3.org/2000/svg" xmlns:xlink="http://www.w3.org/1999/xlink" xml:space="preserve" xmlns:serif="http://www.serif.com/" style="fill-rule:evenodd;clip-rule:evenodd;stroke-linejoin:round;stroke-miterlimit:2;"><g id="Globe"><path d="M957.425,1596.42c11.892,9.754 23.981,19.104 36.244,28.091c150.354,-21.062 325.638,-75.838 489.184,-126.986c317.356,-99.273 592.483,-185.386 730.132,-64.43c117.067,-146.609 183.597,-316.887 201.287,-488.316c-25.99,-34.569 -55.368,-58.05 -88.085,-70.108c-159.082,-58.565 -426.288,132.693 -684.699,317.671c-237.239,169.794 -480.514,343.879 -704.727,386.492c6.781,5.953 13.644,11.827 20.664,17.586Z" style="fill:#0a577b;fill-rule:nonzero;"/><path d="M732.169,703.311c38.81,134.817 94.692,216.597 166.754,243.137c159.075,58.579 426.291,-132.69 684.699,-317.664c232.265,-166.238 470.305,-336.472 690.603,-383.53c-14.433,-16.585 -29.599,-32.692 -45.516,-48.273c-149.741,21.353 -323.907,75.781 -486.458,126.627c-313.378,98.014 -585.69,183.187 -724.975,68.937c-5.491,-4.504 -10.77,-9.309 -15.847,-14.45c-26.286,-26.616 -44.539,-60.093 -54.861,-100.634c-6.828,7.803 -13.586,15.69 -20.218,23.776c-99.678,121.52 -164.079,259.927 -194.181,402.074Z" style="fill:#0a577b;fill-rule:nonzero;"/><path d="M2122.06,1532.02c-88.943,-70.689 -363.129,15.246 -605.981,91.203c-116.099,36.315 -233.491,72.988 -345.936,100.025c313.737,128.221 688.962,57.385 951.917,-191.228Z" style="fill:#0a577b;fill-rule:nonzero;"/><path d="M822.352,1456.25c211.086,13.385 483.118,-181.307 747.011,-370.183c300.015,-214.746 583.386,-417.581 806.543,-335.431c13.603,5.011 26.709,11.06 39.366,18c-11.836,-127.67 -51.019,-251.566 -116.888,-362.046c-204.51,11.882 -458.37,193.528 -705.142,370.159c-300.013,214.735 -583.387,417.574 -806.545,335.403c-30.717,-11.302 -59.019,-27.556 -84.966,-48.839c-17.166,-14.08 -33.248,-30.483 -48.367,-48.999c14.204,159.298 70.978,312.852 168.988,441.936Z" style="fill:#0a577b;fill-rule:nonzero;"/><path d="M1033.5,324.568c80.599,81.668 363.451,-6.934 613.031,-84.996c129.178,-40.398 259.985,-81.289 383.766,-108.816c-313.694,-199.774 -727.031,-166.777 -1025.45,72.605c-3.431,57.18 6.01,98.272 28.654,121.207Z" style="fill:#0a577b;fill-rule:nonzero;"/></g><g id="foot"><path d="M733.408,1434.74c-197.294,-116.635 -185.68,-662.663 17.177,-822.906c180.191,-142.361 523.562,-178.346 986.534,-78.341c47.141,10.176 95.745,21.914 144.464,34.562c-505.771,327.704 -970.238,971.884 -1148.17,866.685" style="fill:#2099d2;fill-rule:nonzero;"/><path d="M2358.2,707.534c206.217,2.963 306.896,94.854 308.422,205.468c1.526,110.614 -61.465,184.437 -177.846,211.985c-197.381,46.404 -500.705,-46.78 -729.933,-152.946c221.78,-143.842 401.746,-267.345 599.357,-264.507" style="fill:#2099d2;fill-rule:nonzero;"/><path d="M1840.91,1053.86c140.036,67.351 474.304,199.893 709.79,143.67c119.38,-28.686 184.473,-87.198 211.059,-189.718c23.983,-92.41 16.162,-165.722 -23.253,-217.947c-54.873,-72.738 -174.318,-113.425 -345.447,-117.677c-170.013,0.476 -464.918,196.84 -750.118,386.747c-391.978,261.001 -762.21,507.529 -976.863,392.578c-102.044,-54.651 -151.653,-178.486 -151.653,-378.581c-0,-200.839 62.361,-360.684 185.354,-475.08c166.244,-154.628 432.789,-219.819 792.246,-193.775c237.73,17.232 510.439,80.754 521.918,83.448l150.479,35.299l-140.832,63.679c-351.565,175.564 -938.355,597.962 -938.355,597.962c-0,0 296.816,-326.499 757.234,-625.35c-99.78,-18.987 -235.251,-41.385 -358.036,-50.281c-324.549,-23.514 -571.136,33.857 -713.116,165.917c-100.765,93.734 -151.862,227.698 -151.862,398.181c0,155.579 32.371,251.798 96.206,285.989c159.206,85.267 536.333,-165.853 869.068,-387.406c312.293,-207.948 607.263,-404.358 808.95,-404.358l1.272,0.02c207.595,5.035 351.395,58.682 427.408,159.434c38.723,51.338 58.141,112.916 58.141,183.991c-0.007,38.456 -5.695,79.697 -17.076,123.58c-36.519,140.813 -130.788,227.646 -288.265,265.489c-302.562,72.242 -727.146,-118.871 -834.805,-179.399c32.879,-21.857 66.548,-44.164 100.556,-66.412" style="fill:#045f9e;fill-rule:nonzero;"/><path d="M526.502,1069.96c-5.011,69.749 -100.82,120.001 -214.489,111.846c-112.701,-8.54 -200.702,-71.871 -195.864,-141.775c5.283,-69.848 101.489,-120.112 214.258,-112.075c113.527,8.719 200.696,71.876 196.095,142.004" style="fill:#045f9e;fill-rule:nonzero;"/><path d="M579.536,764.253c-8.725,56.807 -88.763,91.573 -180.298,78.332c-90.86,-13.705 -158.507,-70.115 -150.166,-126.345c8.044,-56.347 88.894,-91.548 180.311,-77.73c90.972,13.135 158.432,69.513 150.153,125.743" style="fill:#045f9e;fill-rule:nonzero;"/><path d="M693.769,555.271c-9.395,41.395 -70.791,62.27 -137.278,47.467c-66.227,-14.754 -112.683,-60.869 -103.356,-101.818c8.862,-40.9 70.289,-62.357 137.285,-47.479c66.629,15.541 112.428,60.831 103.349,101.83" style="fill:#045f9e;fill-rule:nonzero;"/><path d="M833.144,424.71c-12.118,31.721 -63.045,42.028 -113.687,23.064c-51.325,-18.487 -82.916,-59.393 -71.542,-91.337c11.653,-31.263 62.326,-41.644 114.004,-22.977c50.599,18.89 82.872,59.981 71.225,91.25" style="fill:#045f9e;fill-rule:nonzero;"/><path d="M590.655,1430.32c11.957,100.361 -110.128,197.701 -272.628,217.769c-163.387,19.392 -304.734,-46.518 -317.149,-146.835c-12.515,-100.894 110.276,-198.333 272.833,-217.763c162.735,-19.417 304.69,45.874 316.944,146.829" style="fill:#045f9e;fill-rule:nonzero;"/></g></svg>