<?xml version="1.0" encoding="UTF-8" standalone="no"?><!DOCTYPE svg PUBLIC "-//W3C//DTD SVG 1.1//EN" "http://www.w3.org/Graphics/SVG/1.1/DTD/svg11.dtd"><svg width="100%" height="100%" viewBox="0 0 18959 14388" version="1.1" xmlns="http://www.w3.org/2000/svg" xmlns:xlink="http://www.w3.org/1999/xlink" xml:space="preserve" xmlns:serif="http://www.serif.com/" style="fill-rule:evenodd;clip-rule:evenodd;stroke-linejoin:round;stroke-miterlimit:2;"><path d="M18713.4,4149.48c-3.296,15.45 -6.421,30.904 -10.067,46.179c-113.891,525.175 -300,1031.25 -576.737,1496.01c-9.2,15.45 -18.404,30.904 -27.779,46.354c-182.475,299.021 -400.821,574.621 -650.171,820.658c-137.85,136.113 -288.196,265.454 -467.017,358.684c-250.521,130.899 -543.4,184.024 -831.25,227.429c-298.958,45.312 -602.083,83.158 -904.337,123.958c-107.409,14.238 -214.18,29.342 -320.313,45.313c-292.017,43.229 -581.946,93.229 -864.933,159.55c-349.825,81.77 -688.888,188.887 -1009.2,339.583c-25.579,11.571 -50.867,23.842 -75.867,36.804c-25,12.5 -50.175,25.175 -74.829,38.021c-24.65,12.846 -48.958,25.696 -73.088,38.887c-12.5,6.771 -25,13.542 -37.329,20.663c-12.325,7.117 -24.479,13.367 -36.458,20.312c-36.108,20.138 -71.525,40.796 -106.942,61.63l-1.391,0.87c-23.438,13.713 -46.525,27.775 -69.442,41.838c-130.904,79.517 -259.029,162.5 -387.154,246.008l-80.554,52.084l-124.83,80.729c-24.304,15.8 -49.129,31.596 -73.608,47.221c-17.362,11.458 -34.725,22.916 -53.646,34.725c-90.975,57.291 -183.162,113.541 -277.779,167.187c-22.396,12.846 -44.967,25.692 -67.708,38.192c-191.163,106.65 -391.079,196.791 -597.571,269.446l-2.775,1.041c-103.883,36.238 -209.863,66.154 -317.363,89.584c-61.979,13.541 -124.133,24.654 -186.979,33.158c-168,23.821 -338.341,26.212 -506.946,7.121c-331.075,-38.371 -641.316,-165.454 -972.22,-208.334c-681.25,-86.808 -1342.88,192.88 -1983.51,411.98c-157.521,53.816 -316.204,104.225 -476.041,151.212c-106.25,31.425 -212.846,61.113 -320.313,89.758c-658.404,173.955 -1330.37,291.796 -2008.68,352.259c-283.55,27.783 -568.796,34.108 -853.3,18.921c-108.158,-6.596 -215.104,-17.359 -320.138,-34.721c-359.375,-55.554 -694.445,-172.05 -964.929,-385.417c-221.529,-175.175 -380.037,-403.471 -500.696,-642.362c-123.512,-243.755 -210.72,-504.271 -258.854,-773.263c-6.596,-36.633 -12.5,-73.437 -17.362,-110.242c-8.679,-62.962 -15.163,-126.275 -19.442,-189.933c-23.362,-339.296 17.158,-679.983 119.442,-1004.34c114.583,-363.196 305.558,-711.809 389.583,-1077.78c3.475,-15.508 6.771,-30.962 9.896,-46.354c11.479,-55.587 19.996,-111.741 25.521,-168.229c42.883,-449.654 -121.525,-888.021 -250.521,-1327.78c-4.513,-15.275 -9.025,-30.729 -13.367,-46.179c-13.887,-48.842 -27.2,-97.629 -39.929,-146.354c-119.446,-464.93 -152.604,-962.675 -46.183,-1426.74c3.3,-15.45 7.291,-30.9 11.112,-46.179c71.246,-293.329 205.234,-567.758 392.709,-804.342c199.304,-250 460.937,-458.158 740.45,-640.971c136.229,-89.12 277.083,-172.395 422.57,-249.825c104.167,-55.558 210.88,-108.162 320.138,-157.812c875.871,-399.308 1875,-594.271 2863.02,-551.217c52.083,2.259 104.166,5.034 156.25,8.854c52.083,3.821 109.029,8.334 163.541,13.367c636.459,61.808 1255.73,210.938 1870.66,373.958c206.075,54.688 411.804,110.767 617.358,165.8c91.496,24.305 182.813,48.613 274.309,72.221c448.087,115.8 902.775,220.663 1363.19,298.959c106.6,18.404 213.313,35.187 320.142,50.35c370.912,54.508 744.821,86.225 1119.62,94.962c145.716,2.896 291.491,1.621 437.325,-3.817c73.612,-2.662 147.283,-6.658 221.008,-11.979c761.283,-53.646 1497.05,-233.162 2234.03,-400.871c106.596,-24.304 213.367,-48.262 320.313,-71.875c140.275,-30.9 280.554,-60.762 421.525,-88.366c877.258,-172.396 1659.2,-73.263 2474.83,282.466c185.416,80.73 370.658,178.296 484.2,329.859c113.541,151.562 142.012,337.675 163.196,517.362c30.033,255.904 49.65,515.104 57.116,775.696c0,15.275 0,30.729 1.042,46.179c11.804,526.388 -27.429,1057.81 -134.55,1571.88Z" style="fill:#08c;fill-opacity:0.1;fill-rule:nonzero;"/><path d="M12894.3,5691.67l-57.292,-0l0,46.354l64.929,-0l-7.637,-46.354Zm-649.825,-0c-0.088,0.4 -0.088,0.812 -0,1.216c-1.563,12.671 -3.3,25.346 -5.038,38.192l0,6.946l496.529,-0l0,-2.779l34.721,-43.575l-526.212,-0Zm-1330.73,-0l-0,-1496.01l571.179,0c-6.075,-3.991 -12.325,-8.158 -18.75,-11.979l-8.334,-5.379l-10.762,-6.6c-6.25,-3.646 -12.5,-7.292 -19.1,-10.762c-6.596,-3.471 -10.588,-5.905 -16.146,-8.855l-3.817,-2.083l-494.27,0l-0,-82.467l-13.371,5.209l-14.063,6.6l-1.041,-0l-20.659,10.937c-8.679,4.688 -17.362,9.896 -26.041,15.275l-8.334,5.559l-17.362,11.108c-22.396,14.933 -44.442,30.558 -67.188,45.141c-5.729,3.646 -11.458,7.292 -17.358,10.588c-12.329,7.292 -25,14.238 -38.021,20.488c-5.558,2.779 -10.937,5.208 -17.362,7.466l-9.375,3.646l-8.68,2.95c-20.37,7.088 -41.266,12.546 -62.5,16.321l0,1462.5l-856.425,-0c0,1.733 1.217,3.125 1.738,4.858c4.687,13.892 9.375,27.604 13.887,41.496l842.013,0l-0,1603.47l13.021,-0l15.104,0.867l27.258,1.562l43.575,5.208l19.967,1.913l21.7,2.254l3.3,0l38.366,4.688l8.163,1.041l18.575,2.604l26.562,3.821l63.717,-2.779l8.679,1.563c3.471,-0 7.117,1.041 10.763,1.737l-0,-1627.6l1325.35,-0l-0,-6.946c1.733,-12.846 3.471,-25.521 5.033,-38.192c-0.083,-0.404 -0.083,-0.816 0,-1.216l-1328.99,-0Zm1980.56,-0l-57.292,-0l-0,46.354l64.929,-0l-7.637,-46.354Zm-685.592,-0c-2.083,15.45 -3.992,30.904 -6.075,46.354l553.646,-0l37.675,-46.354l-585.246,-0Zm-1294.96,-0l0,-1496.01l571.18,0c-6.075,-3.991 -12.325,-8.158 -18.75,-11.979l-8.334,-5.379l-10.762,-6.6c-6.25,-3.646 -12.5,-7.292 -19.1,-10.762c-6.596,-3.471 -10.588,-5.905 -16.146,-8.855l-3.817,-2.083l-494.271,0l0,-82.467l-13.37,5.209l-14.063,6.6l-1.042,-0l-20.658,10.937c-8.679,4.688 -17.362,9.896 -26.042,15.275l-8.333,5.559l-17.362,11.108c-22.396,14.933 -44.442,30.558 -67.188,45.142c-5.729,3.645 -11.458,7.291 -17.358,10.587c-12.329,7.292 -25,14.238 -38.021,20.488c-5.558,2.779 -10.938,5.208 -17.363,7.466l-9.375,3.646l-8.679,2.95c-20.371,7.088 -41.266,12.546 -62.5,16.321l0,1462.5l-856.425,-0c0,1.733 1.217,3.125 1.738,4.858c4.687,13.717 9.546,27.604 14.062,41.496l841.838,0l-0,1603.3l13.021,-0l15.104,0.871l27.258,1.562l43.575,5.379l19.967,1.913l21.7,2.254l3.3,0l38.366,4.688l8.163,1.041l18.575,2.604l26.562,3.821l63.717,-2.779l8.679,1.563c3.471,-0 7.117,1.041 10.763,1.737l-0,-1627.6l1290.63,-0c2.083,-15.45 3.996,-30.904 6.079,-46.354l-1295.31,-0Zm4332.29,-3115.28l3601.91,-0c0,-15.45 0,-30.9 -1.041,-46.18l-3600.87,0l0,-1816.32c-106.946,23.15 -213.717,47.108 -320.312,71.875l-0,1744.44l-3917.36,0l-9.896,-8.854l14.929,-13.196l1457.12,-1309.38c-145.833,5.559 -291.608,6.83 -437.329,3.821l-1119.62,1005.9l0.001,-1100.52c-106.946,-15.162 -213.659,-31.945 -320.138,-50.35l0,1100.17l-1636.98,-1471.35c-205.559,-55.033 -411.288,-111.112 -617.363,-165.8l2226.22,2000.7l-9.896,8.854l-4086.81,0l-0,-2381.95c-54.513,-5.091 -109.025,-9.545 -163.542,-13.366c-52.083,-3.821 -104.167,-6.596 -156.25,-8.854l0,2404.17l-2863.54,0l0,-1852.95c-108.1,49.538 -214.812,102.142 -320.137,157.813l-0,1695.14l-1555.73,0c-3.821,15.279 -7.813,30.729 -11.113,46.179l1566.84,0l-0,1573.09l-1480.73,0c4.341,15.45 8.854,30.904 13.366,46.179l1467.36,0l-0,1496.01l-1242.36,-0c-3.125,15.391 -6.42,30.845 -9.895,46.354l1252.26,-0l-0,4182.83c104.167,16.146 211.979,27.429 320.137,34.721l0,-4217.54l2863.02,0l0,3846.01c107.467,-28.646 214.063,-58.334 320.313,-89.759l-0,-3756.25l4125,0l-0,3360.24c107.5,-23.429 213.479,-53.342 317.362,-89.583l2.78,-1.042l-0.001,-3269.62l4011.98,0l-0,1576.04c106.479,-15.625 213.25,-30.613 320.312,-44.967l0,-1531.08l2852.78,0c9.375,-15.45 18.579,-30.904 27.779,-46.354l-2880.55,0l0,-1496.01l3457.29,-0c3.646,-15.275 6.771,-30.729 10.067,-46.179l-3467.36,-0l0,-1573.11Zm-11960.8,0l2863.02,0l0,1573.09l-2863.02,0l0,-1573.09Zm0,3115.28l0,-1496.01l2863.02,0l0,1496.01l-2863.02,-0Zm3183.33,-3115.28l4125,0l-0,1573.09l-4125,0l-0,-1573.09Zm-0,3115.28l-0,-1496.01l4125,0l-0,1496.01l-4125,-0Zm8457.13,-0l-4011.98,-0l0,-1496.01l4011.98,0l-0,1496.01Zm-0,-1542.19l-4011.98,0l0,-1530.9l56.25,-42.188l3955.73,0l-0,1573.09Zm-2681.25,1542.19c-0.088,0.4 -0.088,0.812 -0,1.216c-1.563,12.671 -3.3,25.346 -5.038,38.192l0,6.946l496.529,-0l0,-2.779l34.721,-43.575l-526.212,-0Zm649.825,-0l-57.292,-0l-0,46.354l64.929,-0l-7.637,-46.354Zm-1980.56,-0l0,-1496.01l571.18,0c-6.075,-3.991 -12.325,-8.158 -18.75,-11.979l-8.334,-5.379l-10.762,-6.6c-6.25,-3.646 -12.5,-7.292 -19.1,-10.763c-6.596,-3.47 -10.588,-5.904 -16.146,-8.854l-3.817,-2.083l-494.271,-0l0,-82.467l-13.37,5.209l-14.063,6.6l-1.042,-0l-20.658,10.937c-8.679,4.688 -17.362,9.896 -26.042,15.275l-8.333,5.558l-17.362,11.109c-22.396,14.933 -44.442,30.558 -67.188,45.141c-5.729,3.646 -11.458,7.292 -17.358,10.588c-12.329,7.292 -25,14.238 -38.021,20.488c-5.558,2.779 -10.938,5.208 -17.363,7.466l-9.375,3.646l-8.679,2.95c-20.371,7.087 -41.266,12.546 -62.5,16.321l0,1462.5l-856.425,-0c0,1.733 1.217,3.125 1.738,4.858c4.687,13.892 9.375,27.604 13.887,41.496l842.013,0l-0,1603.47l13.021,-0l15.104,0.867l27.258,1.562l43.575,5.208l19.967,1.913l21.7,2.254l3.3,0l38.366,4.688l8.163,1.041l18.575,2.604l26.562,3.821l63.717,-2.779l8.679,1.563c3.471,-0 7.117,1.041 10.763,1.737l-0,-1627.6l1325.35,-0l-0,-6.946c1.733,-12.846 3.47,-25.521 5.033,-38.192c-0.083,-0.404 -0.083,-0.816 -0,-1.216l-1328.99,-0Z" style="fill:#08c;fill-opacity:0.1;fill-rule:nonzero;"/><path d="M4661.79,1493.4l24.829,0c-16.638,-7.042 -28.258,-22.512 -30.383,-40.454c-0.001,-31.942 47.741,-57.983 106.075,-57.983l742.362,-0c58.333,-0 105.904,26.041 105.904,57.983c0,31.771 -47.571,57.987 -105.904,57.987l-24.825,0c16.654,6.917 28.304,22.363 30.379,40.28c0,27.254 -34.721,50.17 -81.075,56.25l213.717,-0c58.158,-0 105.9,26.041 105.9,57.983c-0,31.946 -47.742,57.987 -105.9,57.987l-742.538,0c-58.158,0 -105.9,-26.216 -105.9,-57.987c0,-27.254 34.721,-50 81.075,-56.25l-213.716,-0c-58.334,-0 -105.9,-26.042 -105.9,-57.983c-0,-31.946 47.566,-57.813 105.9,-57.813Z" style="fill:#08c;fill-opacity:0.1;fill-rule:nonzero;"/><path d="M12707.6,2044.97l24.829,-0c-16.571,-7.088 -28.121,-22.555 -30.208,-40.455c-0,-31.941 47.567,-57.983 105.9,-57.983l742.362,0c58.334,0 106.075,26.042 106.075,57.983c0,31.771 -47.741,57.813 -106.075,57.813l-24.654,-0c16.571,7.087 28.121,22.554 30.209,40.454c-0,27.254 -34.721,50.171 -81.075,56.25l213.716,0c58.334,0 105.9,26.042 105.9,57.983c0,31.946 -47.566,57.988 -105.9,57.988l-742.362,-0c-58.334,-0 -106.075,-26.217 -106.075,-57.988c-0,-27.254 34.721,-50.17 81.075,-56.25l-213.717,0c-58.158,0 -105.9,-26.041 -105.9,-57.983c0,-31.946 47.742,-57.812 105.9,-57.812Z" style="fill:#08c;fill-opacity:0.1;fill-rule:nonzero;"/><path d="M3522.4,4405.38l24.654,0c-16.596,-7.058 -28.154,-22.538 -30.208,-40.454c-0,-31.771 47.741,-57.984 105.9,-57.984l742.537,0.001c58.159,-0.001 105.9,26.212 105.9,57.983c0,31.946 -47.742,57.987 -105.9,57.987l-24.829,0c16.613,6.938 28.2,22.388 30.208,40.279c0,27.255 -34.721,50.171 -81.075,56.25l213.717,0c58.333,0 106.075,26.213 106.075,57.984c0,31.771 -47.742,57.987 -106.075,57.987l-741.667,0c-58.333,0 -105.904,-26.041 -105.904,-57.987c0,-27.084 34.721,-50 81.075,-56.25l-214.408,-0c-58.334,-0 -106.075,-26.042 -106.075,-57.984c-0,-31.945 48.437,-57.812 106.075,-57.812Z" style="fill:#08c;fill-opacity:0.1;fill-rule:nonzero;"/><path d="M10228.5,9105.92c124.625,-609.834 1855.1,-771.975 3861.94,-361.854c2006.84,410.12 3534.95,1238.19 3410.33,1848.03c-124.629,609.833 -1855.1,771.975 -3861.94,361.854c-2006.84,-410.117 -3534.95,-1238.19 -3410.33,-1848.03Z" style="fill:#08c;fill-opacity:0.1;"/><path d="M13445.3,6681.96c0,0 197.396,-968.925 951.042,-879.166c0,-0 520.833,35.762 627.95,376.733l0,753.646l-1578.99,-251.213Z" style="fill:#3a3768;fill-rule:nonzero;"/><path d="M17572.6,7040.96l-6711.29,-556.421l-861.284,179.513l53.821,1202.26l58.679,7.117l66.842,1805.38l6585.58,1184.2l700,-592.187l0,-1957.12l89.584,-52.604l18.058,-1220.14l0.008,0Z" style="fill:#d48a9b;fill-rule:nonzero;"/><path d="M17581.6,7040.96l-18.054,1220.14l-726.737,340.971l-9.025,-1274.13l753.816,-286.979Z" style="fill-opacity:0.05;fill-rule:nonzero;"/><path d="M17464.9,8314.92l8.854,1920.14l-699.825,592.188l44.966,-2225.18l646.005,-287.154Z" style="fill-opacity:0.05;fill-rule:nonzero;"/><path d="M10121.5,7945.33l6702.79,817.884l3.475,-155.209l-6711.29,-723.787l5.037,61.112l-0.012,0Z" style="fill-opacity:0.05;fill-rule:nonzero;"/><path d="M17464.9,8385.42l-0,-70.488l-664.063,293.059l0,155.554l664.063,-378.125Z" style="fill-opacity:0.05;fill-rule:nonzero;"/><path d="M9990.96,6664.08l861.288,-179.512l6711.29,556.421l-753.646,286.979l-6818.92,-663.888l-0.017,0Z" style="fill:#efc6cd;fill-rule:nonzero;"/><path d="M16848.6,7075.54l329.338,21.529l-545.834,163.367l-277.95,-19.967l494.446,-164.929Z" style="fill-opacity:0.1;fill-rule:nonzero;"/><path d="M16848.6,7061.13l329.338,21.525l-545.834,163.542l-277.95,-20.138l494.446,-164.929Z" style="fill:#fff;fill-rule:nonzero;"/><path d="M16809.2,7098.08c13.021,-5.558 26.738,5.034 40.625,7.638c7.988,1.562 16.146,-0 24.134,1.562c16.146,2.084 32.116,12.846 47.571,7.467" style="fill:#d3dae1;fill-rule:nonzero;"/><path d="M16792.2,7108c12.846,-5.558 26.738,4.858 40.625,7.638c7.988,1.387 16.146,-0 24.134,1.387c16.146,2.258 32.116,13.021 47.566,7.642" style="fill:#d3dae1;fill-rule:nonzero;"/><path d="M16753,7127.79c13.021,-5.559 26.913,4.858 40.8,7.462c7.813,1.563 16.146,0 23.959,1.563c16.321,2.258 32.291,13.02 47.571,7.466" style="fill:#d3dae1;fill-rule:nonzero;"/><path d="M15425,6913.38l329.342,21.704l-545.834,163.367l-277.954,-20.138l494.446,-164.933Z" style="fill-opacity:0.1;fill-rule:nonzero;"/><path d="M15425,6899.13l329.342,21.525l-545.834,163.371l-277.954,-19.967l494.446,-164.929Z" style="fill:#fff;fill-rule:nonzero;"/><path d="M15385.6,6936.13c13.021,-5.558 26.734,4.858 40.625,7.638c7.984,1.387 16.146,-0 24.13,1.387c16.145,2.258 32.12,13.021 47.57,7.642" style="fill:#d3dae1;fill-rule:nonzero;"/><path d="M15368.6,6946c12.85,-5.558 26.738,4.858 40.625,7.463c7.988,1.562 16.146,-0 24.134,1.562c16.146,2.258 32.116,13.021 47.57,7.467" style="fill:#d3dae1;fill-rule:nonzero;"/><path d="M15329.3,6965.63c13.021,-5.554 26.909,5.033 40.796,7.638c7.813,1.562 16.146,-0 23.959,1.562c16.32,2.083 32.291,13.021 47.57,7.467" style="fill:#d3dae1;fill-rule:nonzero;"/><path d="M16107.8,6994.46l329.513,21.525l-545.833,163.542l-278.125,-20.138l494.445,-164.929Z" style="fill-opacity:0.1;fill-rule:nonzero;"/><path d="M16107.8,6980.21l329.513,21.529l-545.833,163.367l-278.125,-20.137l494.445,-164.759Z" style="fill:#fff;fill-rule:nonzero;"/><path d="M16068.4,7017.21c13.021,-5.554 26.908,4.863 40.796,7.467c7.812,1.563 15.975,0 23.958,1.563c16.146,2.083 32.292,13.02 47.571,7.462" style="fill:#d3dae1;fill-rule:nonzero;"/><path d="M16051.4,7026.92c13.021,-5.555 26.913,5.037 40.8,7.641c7.813,1.563 15.971,0 23.958,1.563c16.146,2.083 32.292,13.021 47.571,7.462" style="fill:#d3dae1;fill-rule:nonzero;"/><path d="M16012.3,7046.71c12.85,-5.554 26.738,4.863 40.625,7.642c7.988,1.388 16.146,0 24.134,1.388c16.146,2.258 32.116,13.02 47.57,7.637" style="fill:#d3dae1;fill-rule:nonzero;"/><ellipse cx="8651.38" cy="13015.6" rx="3515.28" ry="723.613" style="fill:#08c;fill-opacity:0.1;"/><path d="M12500.9,7089.92c-37.5,-329.513 -185.937,-643.921 -185.937,-643.921l11.287,-111.113c0,0 2.429,-55.554 -1.217,-138.887c0.4,-52.029 7.221,-103.813 20.313,-154.167c30.383,-96.354 -38.021,-214.758 -45.658,-225.696c-7.642,-10.937 3.816,-222.22 -64.584,-325.866c-68.404,-103.646 -523.958,-296.354 -523.958,-296.354c-0,-0 -24.479,-51.217 -59.029,-111.113l3.125,-6.075c-28.267,-51.279 -63.304,-98.521 -104.167,-140.454c-27.95,-29.858 -54.862,-46.875 -76.562,-38.542c-8.825,-28.816 -15.559,-58.233 -20.138,-88.021c4.513,1.217 9.2,2.434 13.713,3.3c18.804,4.363 38.3,4.834 57.291,1.388c42.363,-9.546 70.488,-47.567 94.1,-83.333c117.709,-178.817 219.096,-375.001 239.754,-586.63c5.555,-43.195 3.496,-87.029 -6.075,-129.516c-9.766,-33.029 -23.4,-64.788 -40.625,-94.617c-30.429,-61.2 -68.97,-118.021 -114.583,-168.925c-81.075,-85.417 -192.883,-137.671 -307.812,-168.575c-129.471,-34.817 -264.363,-44.892 -397.571,-29.687c-34.721,3.991 -69.442,9.72 -104.167,11.979c-44.042,1.941 -88.162,1.187 -132.117,-2.259l-227.258,-13.191l-1.042,-3.475l-37.845,-2.254c-14.93,29.687 -0,64.929 18.575,92.708c18.579,27.775 39.933,56.771 38.37,89.583c-1.562,32.813 -25.35,59.2 -43.925,86.804c-18.575,27.604 -32.637,63.717 -14.062,90.8c2.612,3.746 5.704,7.13 9.2,10.067c19.621,20.313 53.821,22.571 83.508,22.225l5.208,0c-74.75,98.45 -115.195,218.746 -115.104,342.358c1.025,215.067 122.484,412.334 314.063,510.071c3.3,11.283 6.596,22.917 9.721,34.721c34.416,121.946 46.762,249.063 36.458,375.35l-3.992,8.679l-2.429,-9.2c0,0 -267.708,181.596 -347.225,229.688c-79.512,48.087 -159.375,211.108 -163.192,255.554c-3.82,44.446 -129.166,714.758 -129.166,714.758c-25.475,67.525 -46.471,136.654 -62.85,206.942l-159.896,140.454c-0,0 -329.858,29.688 -425.346,7.462l2.779,18.405c-84.204,-19.221 -169.966,-30.842 -256.25,-34.721c-47.121,-6.059 -95.016,0.346 -138.891,18.575l-3.296,1.562l-2.604,1.217c-50.267,6.871 -99.346,20.658 -145.834,40.971c-5.558,2.258 -10.591,4.512 -15.454,6.771l1.042,-22.742l-356.942,-18.404l-182.292,-36.979c0,-0 -64.583,-52.084 -102.604,-44.446c-38.021,7.642 -117.708,-44.442 -117.708,-44.442c-18.179,-14.246 -37.858,-26.471 -58.683,-36.458c-6.075,-42.017 -9.896,-67.538 -9.896,-67.538c-0,0 -141.838,-562.845 -248.088,-893.75c-71.183,-221.004 -173.612,-329.858 -234.029,-377.254c-26.908,-46.875 -44.617,-77.083 -44.617,-77.083c-11.633,-40.625 -75.52,-132.121 -91.841,-134.375c-2.604,-4.167 -4.513,-6.25 -5.554,-6.25c-3.492,-0.375 -7.021,0.162 -10.246,1.562c-29.859,-148.612 -47.221,-334.895 -1.563,-497.225c126.479,-103.941 200.034,-259.208 200.35,-422.916l0,-14.755c-0.037,-128.991 -45.754,-253.895 -128.996,-352.433l-5.9,-6.596c1.58,-1.12 3.088,-2.337 4.513,-3.645c26.542,-21.525 39.171,-56.009 32.812,-89.584c-7.812,-33.333 -33.854,-59.55 -47.22,-91.146c-8.03,-24.325 -14.467,-49.145 -19.271,-74.304c-10.229,-35.733 -29,-68.45 -54.688,-95.312l2.604,6.941c-68.058,-76.562 -185.07,-114.583 -290.454,-97.566c-78.296,12.5 -151.212,48.958 -229.858,60.241c-56.425,7.988 -113.892,2.78 -170.663,8.509c-52.67,5.416 -103.945,20.233 -151.387,43.75c-12.392,5.271 -23.388,13.354 -32.117,23.608c-8.075,13.742 -13.496,28.879 -15.975,44.621c-19.271,70.312 -80.379,120.483 -124.65,179.167c-50.566,67.033 -79.846,147.733 -84.029,231.595c-1.729,21.317 0.329,42.771 6.075,63.367c3.821,12.329 9.725,23.958 12.5,36.458c8.683,38.196 -11.283,76.217 -21.004,114.063c-12.246,48.271 -7.904,99.287 12.325,144.792c68.575,153.475 293.75,204.687 340.625,365.799c35.862,16.488 73.75,28.163 112.675,34.721c3.125,15.975 5.9,32.121 8.158,48.438c-1.054,0.446 -2.05,1.033 -2.95,1.737c-60.766,59.2 -75.871,173.613 -75.871,173.613l-7.291,5.9c-24.825,20.487 -109.721,89.237 -186.459,142.187c-91.145,63.021 -243.054,274.134 -349.304,337.154c-106.25,63.021 -193.75,451.388 -170.833,592.534c22.917,141.146 117.708,536.979 79.687,681.425c-38.02,144.446 56.946,803.646 56.946,803.646c63.725,12.137 126.075,30.633 186.109,55.208l-1.909,28.821l-5.729,86.804c0,-0 -172.05,622.221 -106.25,1101.22c65.8,478.991 -30.383,528.296 -30.383,528.296c-0,-0.001 20.141,212.329 -30.379,286.458c-50.521,74.133 -60.767,236.979 -60.767,236.979c-0,0 -5.033,365.454 5.037,468.75c10.067,103.3 15.105,291.496 -20.312,335.938c-35.417,44.445 -101.217,335.591 -96.183,424.479c5.037,88.891 -126.563,291.496 -55.73,553.125c70.834,261.633 -208.333,266.666 -208.333,266.666c0,0 35.592,399.309 111.458,513.542l11.113,16.321c-1.908,6.596 -3.821,13.542 -5.904,21.008c-28.646,104.167 -67.879,268.575 -40.625,308.334c40.454,59.375 60.766,49.304 60.766,49.304l15.105,266.666c-0,0 303.816,256.771 536.804,247.05c232.987,-9.725 187.325,-247.05 187.325,-247.05l-198.438,-514.583l-6.771,-17.362l220.488,-416.667c-0,-0 60.762,-182.638 75.867,-246.875c15.104,-64.233 97.57,-291.838 97.57,-291.838c0,0 208.334,-493.75 212.675,-553.125c4.338,-59.375 20.313,-380.037 60.763,-444.445c40.45,-64.409 151.908,-434.03 151.908,-434.03l2.779,2.434c38.471,37.796 53.055,93.912 37.846,145.658c-25.521,93.75 -10.241,286.283 -10.241,286.283c-0,0 -10.071,163.021 -30.384,247.05c-20.312,84.03 -25.171,770.313 10.246,933.159c28.296,130.383 27.429,374.479 26.042,466.841c-23.788,98.092 -44.621,219.967 -5.904,234.375c65.97,24.825 400.175,19.792 400.175,19.792c-0,0 141.666,-49.479 334.2,123.438c192.533,172.916 784.72,-49.305 784.72,-49.305c0,0 182.292,-49.479 -177.254,-192.537c-250.871,-99.825 -412.85,-166.317 -518.75,-237.5c2.429,-4.688 5.034,-9.375 7.292,-14.408c-0,-0 -146.875,-138.888 -25.35,-385.071c121.529,-246.179 116.496,-454.338 116.496,-454.338l20.312,-829.687l-60.766,-1101.39l-47.046,-1155.9l8.333,-2.779c7.983,212.5 49.479,718.404 266.667,620.312c273.437,-123.437 40.45,-444.445 40.45,-444.445l-122.742,-239.234l36.629,-12.5l-137.325,-443.75c-13.179,-86.608 -14.929,-174.571 -5.208,-261.633c2.717,-50.933 1.675,-102 -3.125,-152.779c179.862,-31.421 352.083,-64.754 382.987,-57.117c36.459,8.854 240.45,10.592 320.659,10.938c-26.217,20.487 -47.221,40.8 -47.221,40.8l326.562,219.791c0,0 110.763,-60.591 133.855,-124.829c22.72,-5.746 43.695,-16.95 61.108,-32.637c3.475,75.866 23.612,157.987 93.75,159.895c17.542,0.367 34.954,-3.066 51.042,-10.07l534.029,-105.73l-45.834,286.288l31.946,56.771c-16.146,241.491 -34.725,497.916 -51.041,723.437l-7.467,49.304l3.821,0.867c-25.35,347.225 -45.663,610.246 -45.663,610.246c29.909,-56.992 76.329,-103.65 133.163,-133.854l3.471,515.275c-0,-0 26.737,814.758 26.737,925.871c0,111.108 3.646,359.2 3.646,359.2c-0,-0 57.117,303.645 91.146,403.645c34.025,100 60.762,555.555 60.762,555.555c0,-0 79.863,125.87 45.659,173.612c-34.2,47.742 132.987,151.738 132.987,151.738c0,-0 -106.425,144.441 -114.062,240.795c-0.867,11.113 10.07,22.917 29.862,34.725c-6.25,5.034 -12.675,10.067 -19.792,14.93c-49.308,32.987 -121.529,55.904 -230.208,46.529c-296.354,-26.042 -505.208,248.087 -322.917,303.646c182.292,55.554 729.167,66.666 729.167,66.666c0,0 165.625,-103.3 295.138,-56.771c-1.909,108.68 3.47,208.334 4.341,221.525l-1.562,1.217c-77.434,69.446 -225.696,188.888 -370.488,237.675c-208.333,70.313 -254.512,355.554 15.104,392.533c269.617,36.98 664.584,-44.445 664.584,-44.445c-0,-0 205.033,-151.734 360.762,-185.067c155.729,-33.333 288.717,-107.467 262.154,-196.354c-17.362,-56.771 -61.979,-205.559 -92.187,-305.559c-1.738,-6.016 -3.471,-11.804 -5.208,-17.358c4.687,-10.417 9.375,-21.183 13.716,-32.292c0,0 -79.687,-414.758 -15.104,-518.404c64.583,-103.646 30.379,-1140.8 30.379,-1140.8c0,0 -110.241,-262.846 -53.125,-422.046c57.121,-159.204 -91.146,-385.245 -91.146,-385.245c0,-0 16.146,-452.95 59.55,-705.38c1.967,-10.766 3.88,-21.183 5.73,-31.25c72.666,-21.57 143.495,-48.912 211.804,-81.77c68.312,-32.859 38.021,-570.488 60.766,-700c2.255,-12.155 5.38,-31.771 9.2,-57.292l17.363,-91.496l20.483,-104.167l69.446,-355.033l125.346,-162.154l322.917,-329.858c-0,-0 77.604,-174.309 39.583,-503.996Zm-4979.88,-2036.98l-2.433,1.737c-0.371,-1.254 -0.659,-2.529 -0.867,-3.821c1.008,0.829 2.117,1.529 3.3,2.084Zm3190.45,404.341l-12.5,27.259l45.658,-45.488l-61.979,69.446l20.833,-43.75l7.988,-7.467Zm-308.333,637.154c-11.98,31.771 -24.825,66.146 -38.196,101.909l24.479,-73.092l13.717,-28.817Z" style="fill:url(#_Linear1);fill-rule:nonzero;"/><path d="M9406.79,7133.17c-0,-0 -42.534,283.162 85.071,286.808c127.604,3.646 212.845,-218.404 212.845,-218.404l-52.083,-177.604l-245.833,109.2Z" style="fill:#585b8a;fill-rule:nonzero;"/><path d="M9406.79,7133.17c-0,-0 -42.534,283.162 85.071,286.808c127.604,3.646 212.845,-218.404 212.845,-218.404l-52.083,-177.604l-245.833,109.2Z" style="fill-opacity:0.2;fill-rule:nonzero;"/><path d="M6548.63,13262.3c-227.083,9.896 -523.267,-246.7 -523.267,-246.7l-14.754,-266.491c0,-0 -19.621,9.896 -59.204,-49.309c-26.563,-39.754 11.633,-204.512 39.583,-308.158c13.542,-50.696 24.654,-86.804 24.654,-86.804l498.263,133.333l23.788,63.021l193.4,514.233c-0,0 44.445,236.979 -182.463,246.875Z" style="fill:#636992;fill-rule:nonzero;"/><path d="M8838.04,12507.5c-0,0 -577.259,222.046 -763.888,49.305c-186.633,-172.742 -325.696,-123.438 -325.696,-123.438c0,0 -325.695,5.033 -389.929,-19.792c-37.85,-14.408 -17.362,-137.846 6.25,-236.112c15.971,-67.879 33.334,-123.959 33.334,-123.959c-0,0.001 567.358,-192.533 656.25,-74.129c26.695,34.788 58.612,65.238 94.616,90.275c102.779,74.309 263.367,141.667 517.363,245.313c349.304,143.058 171.7,192.537 171.7,192.537Z" style="fill:#636992;fill-rule:nonzero;"/><path d="M8319.96,7997.21l157.813,315.8c-0,0 227.083,320.834 -39.413,444.096c-266.491,123.267 -261.458,-710.416 -261.458,-710.416l143.058,-49.48Z" style="fill:#ffd6d6;fill-rule:nonzero;"/><path d="M7658.67,5258.67c-0,-0 172.746,78.995 276.391,409.55c103.646,330.554 241.838,893.229 241.838,893.229c-0,-0 93.75,636.458 78.821,794.446c-9.5,87.008 -7.809,174.879 5.033,261.458l133.163,444.096l-266.496,93.75l-409.546,-1569.1l-59.204,-1327.43Z" style="fill:#dce6f2;fill-rule:nonzero;"/><path d="M7658.67,5258.67c-0,-0 172.746,78.995 276.391,409.55c103.646,330.554 241.838,893.229 241.838,893.229c-0,-0 93.75,636.458 78.821,794.446c-9.5,87.008 -7.809,174.879 5.033,261.458l133.163,444.096l-266.496,93.75l-409.546,-1569.1l-59.204,-1327.43Z" style="fill-opacity:0.05;fill-rule:nonzero;"/><path d="M6513.88,12438.4l23.788,63.021l-29.167,55.729c-113.542,49.308 -394.792,9.896 -394.792,9.896c0,-0 -52.083,-66.146 -123.266,-175c13.541,-50.692 24.654,-86.804 24.654,-86.804l498.783,133.158Z" style="fill-opacity:0.1;fill-rule:nonzero;"/><path d="M8167,12092.9c-143.921,326.042 -633.158,205.033 -769.096,164.233c-22.396,-6.77 -34.721,-11.283 -34.721,-11.283c0,0 0.867,-26.563 1.213,-68.404c15.975,-67.879 33.333,-123.958 33.333,-123.958c0,-0 567.363,-192.534 656.25,-74.13c26.7,34.788 58.617,65.238 94.621,90.275c5.433,8.284 11.592,16.071 18.4,23.267Z" style="fill-opacity:0.1;fill-rule:nonzero;"/><path d="M8142.21,11678.5c-118.404,246.53 24.825,384.896 24.825,384.896c-143.92,325.871 -633.158,205.038 -769.095,164.063c-22.396,-6.596 -34.721,-11.109 -34.721,-11.109c-0,0 9.895,-340.625 -24.654,-503.475c-34.55,-162.846 -29.688,-848.608 -9.896,-932.462c19.791,-83.854 29.512,-246.875 29.512,-246.875c0,-0 -14.754,-192.363 9.896,-286.113c15.088,-51.512 0.963,-107.346 -36.804,-145.487l-2.604,-2.604c-0,-0 -108.509,370.141 -148.092,434.029c-39.583,63.887 -54.167,384.896 -59.2,444.096c-5.033,59.204 -207.292,552.779 -207.292,552.779c0,-0 -78.82,226.908 -93.575,290.971c-14.758,64.062 -74.133,246.875 -74.133,246.875l-237.846,459.029c-113.542,49.304 -394.792,9.896 -394.792,9.896c0.001,-0 -54.166,-69.446 -128.299,-182.638c-74.134,-113.196 -108.509,-513.021 -108.509,-513.021c0,0 271.354,-5.037 202.259,-266.496c-69.096,-261.458 59.2,-463.887 54.341,-552.775c-4.862,-88.891 59.2,-379.862 93.75,-424.308c34.546,-44.442 29.513,-231.942 19.617,-335.587c-9.896,-103.646 -4.863,-468.75 -4.863,-468.75c0,-0 9.896,-162.85 59.205,-236.809c49.304,-73.958 29.687,-286.283 29.687,-286.283c0,-0 93.575,-49.304 29.513,-527.95c-64.063,-478.646 104.166,-1100.35 104.166,-1100.35l5.729,-86.804l9.03,-140.625c-0,-0 1411.28,-88.888 1524.83,19.616c29.679,30.117 54.037,65.046 72.05,103.3c38.841,83.505 66.287,171.855 81.595,262.675l59.2,1495.14l59.205,1100.35l-19.792,828.996c-0,-0 4.337,206.941 -114.238,453.816Z" style="fill:#565988;fill-rule:nonzero;"/><path d="M7723.79,8727.63l-148.088,3207.29l-177.779,292.362c-22.396,-6.6 -34.721,-11.112 -34.721,-11.112c0,-0 9.896,-340.625 -24.654,-503.471c-34.55,-162.85 -29.688,-848.613 -9.896,-932.467c19.792,-83.854 29.513,-246.875 29.513,-246.875c-0,0 -14.754,-192.362 9.896,-286.112c15.087,-51.509 0.962,-107.346 -36.805,-145.484l2.43,-17.362l390.104,-1356.77Z" style="fill-opacity:0.1;fill-rule:nonzero;"/><path d="M6129,12171.9c0,0 384.896,-152.95 444.1,-104.167c59.2,48.784 -453.821,123.263 -453.821,123.263l9.721,-19.096Z" style="fill-opacity:0.1;fill-rule:nonzero;"/><path d="M8028.83,11767.2c-14.758,5.034 -389.758,138.888 -355.208,281.25c34.546,142.363 355.208,-281.25 355.208,-281.25Z" style="fill-opacity:0.1;fill-rule:nonzero;"/><path d="M6856.96,4466.83c0,0 125.692,303.471 59.2,459.025c-66.491,155.559 717.884,421.875 717.884,421.875c-0,0 -229.342,-592.187 -7.292,-925.346c222.046,-333.158 -769.792,44.446 -769.792,44.446Z" style="fill:#ffd6d6;fill-rule:nonzero;"/><path d="M11449.7,13252.4c-151.738,33.333 -351.563,185.071 -351.563,185.071c0,-0 -384.896,81.425 -647.746,44.445c-262.845,-36.979 -218.229,-322.05 -14.754,-392.362c141.146,-48.613 285.763,-168.575 361.284,-237.325c33.333,-30.729 53.125,-52.083 53.125,-52.083l736.633,-148.092c-0,-0 11.979,41.146 28.646,97.917c29.512,100.175 73.087,248.783 89.754,305.383c25.871,89.754 -103.646,163.712 -255.379,197.046Z" style="fill:#505484;fill-rule:nonzero;"/><path d="M11261,12682.5c0,0 -310.937,33.334 -440.45,-40.625c-129.516,-73.958 -314.583,44.442 -314.583,44.442c0,0 -532.987,-11.108 -710.592,-66.667c-177.604,-55.554 25.867,-329.858 314.584,-303.47c105.208,9.549 176.387,-13.542 224.479,-46.53c50.217,-34.42 85.254,-86.937 97.742,-146.525l625,36.979l86.808,221.526l117.012,300.87Z" style="fill:#505484;fill-rule:nonzero;"/><path d="M11153.5,12482.6c0,0 -726.387,-118.75 -819.096,-213.021c50.217,-34.421 85.255,-86.937 97.742,-146.525l625,36.979l86.808,221.525l9.546,101.042Z" style="fill-opacity:0.1;fill-rule:nonzero;"/><path d="M10076.6,8326.75l7.467,1084.2c0,0 25.867,814.238 25.867,925.346c-0,111.112 3.646,358.854 3.646,358.854c-0.001,0 55.554,303.475 88.887,403.475c33.333,100 59.204,555.554 59.204,555.554c0,0 77.775,125.867 44.442,173.613c-33.334,47.741 129.516,151.733 129.516,151.733c0.001,0 -104.166,144.446 -110.937,240.625c-6.771,96.183 828.817,232.813 828.817,232.813l-325.521,-3338.02l-259.2,-836.284l-492.188,48.092Z" style="fill:#575988;fill-rule:nonzero;"/><path d="M10076.6,8326.75l7.467,1084.2c0,0 25.867,814.238 25.867,925.346c-0,111.112 3.646,358.854 3.646,358.854c-0.001,0 55.554,303.475 88.887,403.475c33.333,100 59.204,555.554 59.204,555.554c0,0 77.775,125.867 44.442,173.613c-33.334,47.741 129.516,151.733 129.516,151.733c0.001,0 -104.166,144.446 -110.937,240.625c-6.771,96.183 828.817,232.813 828.817,232.813l-325.521,-3338.02l-259.2,-836.284l-492.188,48.092Z" style="fill-opacity:0.1;fill-rule:nonzero;"/><path d="M11615.3,12750.9c-241.842,576.563 -817.017,131.6 -817.017,131.6c0,0 0,-11.112 -1.387,-30.208c33.333,-30.729 53.125,-52.084 53.125,-52.084l736.633,-148.091c-0,-0 11.979,42.012 28.646,98.783Z" style="fill-opacity:0.1;fill-rule:nonzero;"/><path d="M11623.6,12701c-236.979,607.637 -825.35,151.737 -825.35,151.737c0,0 -18.575,-314.583 18.579,-458.854c37.15,-144.271 -40.8,-577.433 -40.8,-577.433c0,-0 -44.446,-384.896 -85.071,-473.609c-40.625,-88.716 -36.979,-266.495 -36.979,-281.25c0,-14.758 14.758,-133.333 -18.575,-214.758c-33.333,-81.425 -52.083,-281.25 -52.083,-281.25c-0,0 -0,-281.25 -33.333,-447.742l-114.759,-572.916l-207.291,-1173.27l64.758,-11.108l1160.24,-203.475c-0,-0 218.404,1111.11 144.27,1225c-15.97,25 -30.033,79.687 -41.666,150.175c-42.359,252.083 -58.159,704.687 -58.159,704.687c0,0 144.271,225.696 88.888,384.896c-55.379,159.2 52.083,421.875 52.083,421.875c0,0 33.333,1036.28 -29.687,1139.93c-63.021,103.646 14.933,517.363 14.933,517.363Z" style="fill:#575988;fill-rule:nonzero;"/><path d="M11512.5,5125.54c0,-0 -1051.04,740.104 -814.237,369.966c127.604,-199.308 104.166,-453.125 54.166,-644.791c-25.275,-97.488 -60.171,-192.221 -104.166,-282.813c-43.996,-90.591 893.058,-379.862 774.654,-39.412c-27.746,79.316 -39.546,163.337 -34.721,247.225c7.092,126.087 50.246,247.529 124.304,349.825Z" style="fill:#d28690;fill-rule:nonzero;"/><path d="M9620.13,6820.5c0,0 -444.096,-128.3 -518.054,-2.433c-73.959,125.871 22.221,402.083 156.25,446.529c134.029,44.446 441.666,-150.521 441.666,-150.521l-79.862,-293.575Z" style="fill:#d28690;fill-rule:nonzero;"/><path d="M10128.5,6602.25l-185.066,170.313c-0,-0.001 -322.05,29.512 -414.584,7.291c0,0 85.242,569.963 -36.979,640.275l747.567,-151.733l-110.938,-666.146Z" style="fill:#585b8a;fill-rule:nonzero;"/><path d="M10128.5,6602.25l-185.066,170.313c-0,-0.001 -322.05,29.512 -414.584,7.291c0,0 85.242,569.963 -36.979,640.275l747.567,-151.733l-110.938,-666.146Z" style="fill-opacity:0.1;fill-rule:nonzero;"/><path d="M7752.42,4155.9c-0,304.767 -250.784,555.554 -555.555,555.554c-285.07,-136.979 -555.554,-248.437 -555.554,-555.554c-0.291,-7.316 -0.433,-14.637 -0.433,-21.958c-0,-304.767 250.783,-555.554 555.554,-555.554c304.767,-0 555.554,250.787 555.554,555.554c0,7.321 -0.146,14.641 -0.433,21.958l0.867,0Z" style="fill-opacity:0.1;fill-rule:nonzero;"/><path d="M7752.42,4140.97l-0,0.354c-0,304.196 -250.317,554.512 -554.513,554.512c-304.196,0.001 -554.512,-250.316 -554.512,-554.512c-0,-304.2 250.316,-554.513 554.512,-554.513c166.021,0 323.563,74.559 428.821,202.946c81.104,99.063 125.525,223.184 125.692,351.213Z" style="fill:#ffd6d6;fill-rule:nonzero;"/><path d="M8076.21,7538.04c-54.966,34.133 -112.487,63.966 -172.05,89.237c-59.562,25.267 -281.25,-40.8 -321.875,7.292c-40.625,48.087 -399.304,66.667 -399.304,66.667c0,-0.001 -547.746,-25.871 -629.167,-96.184c-25.179,-20.387 -53.191,-36.996 -83.162,-49.304l9.029,-140.625c0,-0 1411.28,-88.888 1524.83,19.617c29.554,30.145 53.8,65.07 71.704,103.3Z" style="fill-opacity:0.1;fill-rule:nonzero;"/><path d="M8144.79,7438.54c-11.113,62.846 -240.625,159.029 -240.625,159.029c-0,-0 -281.25,-40.625 -321.875,7.462c-40.625,48.092 -399.305,66.667 -399.305,66.667c0.001,-0 -547.745,-26.042 -629.166,-96.354c-81.425,-70.313 -262.85,-104.167 -262.85,-104.167c-0,0 -92.534,-658.679 -55.379,-802.95c37.15,-144.271 -55.559,-540.45 -77.779,-681.075c-22.221,-140.625 62.845,-529.167 166.491,-592.017c103.646,-62.845 251.738,-273.958 340.454,-336.804c74.825,-52.95 157.463,-121.529 181.596,-142.187l7.117,-5.904c-0,-0 14.933,-114.755 74.133,-173.609c59.2,-58.854 603.125,373.784 603.125,373.784c0,-0 3.821,33.333 40.8,-29.513c8.334,-14.062 80.034,89.408 92.534,133.158c-0,0 296.008,518.23 314.583,625c18.575,106.771 96.179,455.209 110.937,540.28c3.821,21.875 10.071,98.608 17.363,201.387c1.387,20.138 2.604,41.492 4.167,63.717c10.937,170.483 22.741,388.191 29.858,552.775c-0,18.75 1.562,36.808 2.083,54.167c3.75,62.316 4.329,124.779 1.738,187.154Z" style="fill:#dce6f2;fill-rule:nonzero;"/><path d="M6265.46,6102.42c0,-0 203.475,247.916 270.142,247.916c66.667,0 -270.142,-247.916 -270.142,-247.916Z" style="fill-opacity:0.1;fill-rule:nonzero;"/><path d="M6694.08,6635.42c0,-0 -333.158,362.675 -288.712,429.341c44.441,66.667 288.712,-429.341 288.712,-429.341Z" style="fill-opacity:0.1;fill-rule:nonzero;"/><path d="M6449.83,7357.13c0,0 381.946,-418.229 399.309,-562.5l-399.309,562.5Z" style="fill-opacity:0.1;fill-rule:nonzero;"/><path d="M6930.92,7386.63c-0,0 440.45,-233.162 477.429,-418.229c36.979,-185.071 -477.429,418.229 -477.429,418.229Z" style="fill-opacity:0.1;fill-rule:nonzero;"/><path d="M7489.75,5136.63l-61.112,147.917l101.737,48.087l100,279.517c0,-0 275.692,551.387 264.583,838.191c-11.112,286.809 50,717.884 50,717.884l159.025,-29.513l-75,-843.579c-11.675,-130.608 -44.391,-258.475 -96.875,-378.646c-127.083,-290.971 -363.541,-828.125 -378.47,-828.125c-20.313,0 -6.075,7.467 -6.075,7.467l-57.813,40.8Z" style="fill-opacity:0.1;fill-rule:nonzero;"/><path d="M7504.5,5121.71l-61.108,148.092l101.908,48.092l99.825,279.512c0,0 275.696,551.388 264.583,838.196c-11.108,286.804 50,717.879 50,717.879l159.205,-29.512l-75.175,-843.575c-11.542,-130.617 -44.2,-258.496 -96.7,-378.646c-127.084,-291.146 -363.542,-828.125 -378.3,-828.125c-20.488,-0 -6.25,7.462 -6.25,7.462l-57.988,40.625Z" style="fill:#575989;fill-rule:nonzero;"/><path d="M9306.79,7296.71c-77.429,-5.9 -263.196,-99.825 -336.979,-138.887l-31.25,-17.363l3.82,-286.629c18.242,-10.729 37.146,-20.296 56.596,-28.646c98.613,-43.058 300.867,-101.562 402.259,86.805c136.804,252.604 3.645,391.32 -94.446,384.72Z" style="fill:#ffd6d6;fill-rule:nonzero;"/><path d="M7626.75,3789.76c-7.954,4.98 -16.704,8.563 -25.871,10.588c-64.408,14.062 -137.671,-41.317 -192.879,-5.729c-33.683,21.875 -41.496,67.187 -46.008,107.12c-7.871,69.442 -15.742,138.425 -23.613,206.942c-1.65,24.396 -6.796,48.425 -15.275,71.354c-27.258,62.329 -102.083,91.667 -170.312,90.625c-26.717,1.905 -53.134,-6.837 -73.438,-24.304c-11.979,-12.154 -18.404,-29.166 -31.6,-40.279c-86.804,-72.742 -113.191,105.558 -90.275,156.25c36.804,82.813 167.534,162.675 112.671,267.883c-9.225,17.096 -23.221,31.155 -40.275,40.45c-231.137,-72.383 -389.525,-287.958 -389.525,-530.162c0,-304.771 250.788,-555.558 555.558,-555.558c167,-0 325.405,75.304 430.842,204.82Z" style="fill-opacity:0.1;fill-rule:nonzero;"/><path d="M7033,4205.38c13.021,10.938 19.617,27.95 31.596,40.104c20.317,17.446 46.721,26.188 73.437,24.304c68.23,1.042 143.055,-28.125 170.138,-90.8c8.637,-22.833 13.846,-46.82 15.454,-71.179l23.608,-206.946c4.517,-39.929 12.155,-85.241 46.009,-107.116c55.208,-34.721 128.471,19.791 192.883,5.729c47.913,-12.179 78.525,-60.083 69.442,-108.679c-7.463,-33.163 -32.813,-59.375 -45.834,-90.975c-7.891,-24.279 -14.212,-49.038 -18.92,-74.129c-35.938,-134.725 -194.1,-210.417 -331.6,-187.85c-76.388,12.675 -147.396,49.133 -223.959,60.245c-54.858,7.984 -110.937,2.775 -166.316,8.68c-51.455,5.308 -101.488,20.083 -147.571,43.575c-12.096,5.354 -22.796,13.437 -31.25,23.612c-7.863,13.742 -13.159,28.804 -15.625,44.446c-18.575,69.442 -78.3,120.658 -121.529,179.167c-49.438,67.308 -78.055,147.666 -82.292,231.075c-1.7,21.304 0.296,42.745 5.904,63.366c3.646,12.154 9.375,23.959 12.154,36.459c8.504,38.02 -10.937,76.041 -20.487,113.891c-11.863,48.288 -7.592,99.154 12.154,144.792c66.667,153.296 286.283,204.512 331.941,365.45c40.546,19.442 84.342,31.212 129.167,34.721c44.792,0.871 93.059,-18.4 113.892,-58.159c54.687,-104.166 -75.871,-185.07 -112.675,-267.708c-23.092,-50.867 2.779,-228.992 90.279,-156.075Z" style="fill:#353045;fill-rule:nonzero;"/><path d="M11423.8,4528.46c-27.742,79.317 -39.546,163.338 -34.721,247.225c-26.738,22.742 -55.904,-45.312 -86.804,-27.779c-84.725,48.958 -182.642,165.45 -287.5,165.45c-90.934,0.063 -180.6,-21.421 -261.634,-62.671c-25.275,-97.487 -60.17,-192.22 -104.166,-282.812c-43.996,-90.592 893.229,-379.863 774.825,-39.413Z" style="fill-opacity:0.1;fill-rule:nonzero;"/><path d="M11591.5,4306.42c0,316.766 -260.658,577.429 -577.429,577.429c-316.771,-0 -577.429,-260.663 -577.429,-577.429c-0,-316.771 260.658,-577.434 577.429,-577.434l0.175,0c316.671,0 577.254,260.584 577.254,577.259l0,0.175Z" style="fill:#d28690;fill-rule:nonzero;"/><path d="M11566.8,5253.83c0,0 -108.683,118.4 -123.437,128.125c-14.758,9.721 -329.863,1336.81 -335.417,1352.26c-5.558,15.454 -375.175,1213.72 -375.175,1213.72l-592.187,291.146l49.479,-1465.63l434.029,-1208.68c-0,-0 143.229,-162.85 187.5,-222.05c44.271,-59.2 597.046,-414.584 597.046,-414.584l94.446,194.617l63.716,131.079Z" style="fill:#f0f3f7;fill-rule:nonzero;"/><path d="M11488.5,5152.42l-680.904,487.5l-10.938,-267.709c44.446,-59.2 597.05,-414.408 597.05,-414.408l94.792,194.617Z" style="fill-opacity:0.1;fill-rule:nonzero;"/><path d="M11503.3,5122.75l-680.904,487.5l-10.592,-267.533c44.446,-59.375 597.05,-414.584 597.05,-414.584l94.446,194.617Z" style="fill:#f0f3f7;fill-rule:nonzero;"/><path d="M10789.1,5223.63l22.742,119.096l-152.254,154.687l121.525,-272.05c-0,0 -260.417,181.425 -338.542,229.517c-78.125,48.088 -156.25,210.938 -159.2,255.379c-2.95,44.446 -125.866,714.238 -125.866,714.238c-0,-0 -92.538,247.916 -66.496,318.229c26.041,70.312 -140.625,2287.15 -140.625,2287.15c45.079,-87.112 126.746,-149.729 222.571,-170.662l-59.375,-1310.07c-0,-0 72.22,-871.529 75.866,-882.642c3.646,-11.108 168.404,-516.316 168.404,-516.316l431.25,-926.563Z" style="fill:#585b8a;fill-rule:nonzero;"/><path d="M10826.8,5357.46l-11.808,243.055c-0,-0.001 -164.754,519.966 -220.138,605.033c-55.383,85.071 -223.958,592.187 -223.958,592.187l-94.967,880.904l-162.846,74.134l-80.208,-147.746l133.333,-850.692c0,0 251.563,-717.883 288.717,-792.016l185.588,-390.971l186.287,-213.888Z" style="fill-opacity:0.1;fill-rule:nonzero;"/><path d="M10811.8,5342.71l-11.629,243.055c-0,-0.001 -164.759,519.966 -220.313,605.037c-55.558,85.067 -223.787,592.188 -223.787,592.188l-94.442,880.729l-162.85,73.958l-81.421,-147.917l133.333,-850.695c0,-0 251.563,-718.055 288.542,-792.013l186.979,-390.454l185.588,-213.888Z" style="fill:#663d5c;fill-rule:nonzero;"/><path d="M8892.38,7197.92l318.229,220.312c0,0 224.479,-125.867 93.75,-207.291c-130.729,-81.425 -246.704,-93.75 -288.716,-93.75c-42.013,-0 -123.263,80.729 -123.263,80.729Z" style="fill:#d28690;fill-rule:nonzero;"/><path d="M9130.04,6790.63c-14.425,8.979 -23.184,24.85 -23.088,41.842c0,67.533 7.638,246.354 64.234,165.625c69.445,-98.788 56.77,-187.5 162.85,-123.438c65.925,41.059 123.624,94.046 170.137,156.25l-29.513,-212.154c0.001,0 -218.058,-107.637 -344.62,-28.125Z" style="fill:#d28690;fill-rule:nonzero;"/><path d="M11597.6,9381.42c-15.975,25 -30.037,79.687 -41.666,150.171c-648.959,194.62 -1123.79,-216.838 -1123.79,-216.838c-57.446,-194.679 -104.387,-392.3 -140.625,-592.017c-11.629,-68.4 -9.025,-201.041 1.738,-362.845l1160.24,-203.471c0,-0 218.23,1110.24 144.1,1225Z" style="fill-opacity:0.1;fill-rule:nonzero;"/><path d="M12263.7,6069.08c-29.516,96.354 -18.404,292.363 -18.404,292.363l-266.492,1258.33c0.001,0 -129.516,969.617 -151.737,1099.13c-22.221,129.512 -59.2,699.479 -59.2,699.479c-755.037,370.137 -1336.81,-133.163 -1336.81,-133.163c-57.438,-194.737 -104.379,-392.416 -140.625,-592.187c-37.15,-219.792 72.225,-1100.35 123.958,-1491.49c15.454,-115.8 25.871,-188.717 25.871,-188.717l194.271,-721.7c-0,0 238.712,-608.854 327.604,-786.458c88.887,-177.604 445.833,-576.563 445.833,-576.563c44.271,-28.125 115.104,71.18 167.709,161.634c39.754,68.4 69.441,131.941 69.441,131.941c0,0 444.1,192.363 510.592,295.142c66.492,102.775 55.554,314.583 63.021,325.692c7.466,11.112 74.654,130.383 44.966,226.562Z" style="fill:#585b8a;fill-rule:nonzero;"/><path d="M11216.5,5621.38c0,0 33.333,196.179 -52.083,255.383c-82.463,57.292 -696.354,1264.41 -734.546,1339.76c15.45,-115.971 25.867,-188.888 25.867,-188.888l194.27,-721.529c0,-0 238.888,-608.854 327.605,-786.629c88.716,-177.779 446.008,-576.563 446.008,-576.563c44.271,-28.125 114.929,71.179 167.533,161.629c-79.341,164.759 -244.791,476.217 -374.654,516.842Z" style="fill-opacity:0.1;fill-rule:nonzero;"/><path d="M11201.8,5606.58c0,0 33.158,196.184 -52.083,255.384c-85.246,59.2 -696.184,1264.24 -734.896,1339.58c15.45,-115.8 25.867,-188.717 25.867,-188.717l194.27,-721.7c0,0 238.717,-608.854 327.605,-786.458c88.887,-177.604 445.833,-576.563 445.833,-576.563c44.271,-28.125 115.104,71.18 167.708,161.634c-78.991,164.583 -244.616,476.212 -374.304,516.837Z" style="fill:#585b8a;fill-rule:nonzero;"/><path d="M12082.5,7379.33l-208.854,1086.63l0,0.175l-19.967,103.992l0.001,0.175l-44.967,233.854l-191.838,-40.625l-89.412,-18.925l-1237.33,-262.15l-90.971,-19.271l-207.642,-43.924l40.625,-269.792l16.842,-112.154l149.825,-994.792l1883.68,336.808Z" style="fill:#08c;fill-rule:nonzero;"/><path d="M10927.8,8267.54c-0,-0 -492.188,177.604 -384.896,388.541c107.292,210.938 795.658,-162.845 795.658,-162.845l-410.762,-225.696Z" style="fill:#d28690;fill-rule:nonzero;"/><path d="M11279.3,9781.08c0,14.759 18.575,203.646 92.534,270.142c73.958,66.492 -92.534,-270.142 -92.534,-270.142Z" style="fill-opacity:0.1;fill-rule:nonzero;"/><path d="M10783.5,10450.9c0,0 88.713,244.271 440.275,344.271c351.563,100 -440.275,-344.271 -440.275,-344.271Z" style="fill-opacity:0.1;fill-rule:nonzero;"/><path d="M11591.5,4306.42c0.054,206.35 -110.542,397.621 -289.408,500.52c-33.163,-18.558 -62.596,-43.104 -86.805,-72.395c-25.174,-30.559 -44.791,-72.225 -29.687,-108.684c12.15,-29.337 44.271,-47.916 52.083,-78.296c3.679,-18.579 2.725,-37.783 -2.779,-55.904c-6.425,-28.645 -12.5,-57.291 -18.75,-85.762c-5.383,-24.309 -14.929,-52.954 -39.062,-58.854c-24.134,-5.904 -44.271,14.233 -63.196,29.166c-46.354,36.63 -135.242,61.459 -190.971,31.421c-55.729,-30.033 -40.104,-130.554 -49.133,-184.896c-0.225,-9.55 -4.684,-18.521 -12.15,-24.479c-8.113,-2.691 -16.771,-3.287 -25.175,-1.733c-30.034,-0 -54.167,-26.913 -62.846,-55.729c-6.15,-29.425 -9.525,-59.359 -10.071,-89.413c-3.3,-30.033 -14.238,-61.804 -39.929,-77.254c-20.529,-9.554 -43.296,-13.279 -65.8,-10.767l-108.854,1.217c108.8,-147.096 281.279,-234.05 464.237,-234.05c316.383,0 576.871,260.029 577.429,576.413l0.867,-0.521Z" style="fill-opacity:0.1;fill-rule:nonzero;"/><path d="M11129.3,4376.21c18.921,-14.933 39.755,-34.725 63.192,-28.996c23.438,5.73 33.508,34.725 38.892,58.684l18.75,85.587c5.546,18.171 6.558,37.425 2.95,56.079c-8.854,30.555 -40.8,48.959 -53.125,78.296c-15.104,36.459 4.687,78.125 29.687,108.509c45.592,54.945 108.663,92.641 178.646,106.77c18.275,4.392 37.279,4.805 55.729,1.217c41.321,-9.55 69.446,-47.571 91.667,-83.162c114.758,-178.817 213.542,-374.825 233.679,-586.284c5.525,-43.129 3.529,-86.891 -5.9,-129.341c-9.408,-32.992 -22.696,-64.755 -39.583,-94.617c-29.55,-61.013 -67.092,-117.821 -111.634,-168.925c-78.991,-85.067 -188.02,-137.325 -300,-168.229c-125.95,-34.946 -257.466,-45.263 -387.325,-30.379c-34.725,3.991 -68.058,9.72 -102.258,11.979c-42.942,1.996 -85.967,1.3 -128.821,-2.084l-255.554,-15.279c-14.583,29.688 0,64.929 17.363,92.709c17.358,27.779 38.887,56.595 37.5,89.583c-1.392,32.987 -24.83,59.029 -42.884,86.804c-18.054,27.779 -31.771,63.717 -13.716,90.8c18.058,27.083 54.862,28.821 86.808,28.471l128.817,-1.388c22.437,-2.308 45.083,1.596 65.454,11.284c25.691,15.454 36.629,47.396 39.929,77.258c0.721,30.042 4.092,59.963 10.071,89.408c8.854,28.821 32.812,56.08 62.846,55.73c8.408,-1.675 17.116,-1.017 25.175,1.912c7.462,5.883 11.92,14.804 12.15,24.304c9.029,54.342 -7.638,154.688 49.133,184.896c56.771,30.208 146.008,5.033 192.362,-31.596Z" style="fill:#663d5c;fill-rule:nonzero;"/><path d="M11863.2,5516.67c-131.008,-13.917 -255.241,65.404 -297.745,190.104c-69.442,197.742 -185.242,554.512 -156.25,695.487c40.8,199.825 88.891,532.984 88.891,532.984c0,-0 210.938,121.529 104.167,244.1c-106.771,122.566 -136.979,296.179 -136.979,296.179c-0,-0 -136.979,59.2 -166.496,185.071c-29.513,125.866 -229.513,299.65 -229.513,299.65l-299.654,299.829c0,-0 495.834,503.471 595.834,529.166l307.12,-359.029l362.671,-481.075l314.584,-329.862c-0.001,-0 73.958,-173.613 36.979,-503.471c-36.979,-329.863 -181.421,-643.925 -181.421,-643.925l11.108,-111.113c0,0.001 34.029,-796.004 -353.296,-844.095Z" style="fill-opacity:0.1;fill-rule:nonzero;"/><path d="M11892.7,5516.67c-130.887,-13.746 -254.921,65.541 -297.396,190.104c-69.445,197.742 -185.241,554.512 -156.249,695.487c40.624,199.825 88.716,532.984 88.716,532.984c0,-0 210.938,121.529 104.167,244.1c-106.771,122.566 -136.808,296.179 -136.808,296.179c-0,-0 -136.98,59.2 -166.667,185.071c-29.688,125.866 -229.338,299.65 -229.338,299.65l-299.829,299.829c0,-0 495.834,503.471 595.834,529.166l307.12,-359.029l361.804,-481.075l314.584,-329.862c-0,-0 74.133,-173.613 36.979,-503.471c-37.154,-329.863 -181.25,-643.925 -181.25,-643.925l11.112,-111.113c0.001,0.001 34.546,-796.004 -352.779,-844.095Z" style="fill:#585b8a;fill-rule:nonzero;"/><path d="M11582.8,6642.88c0,0 314.584,384.721 447.917,299.65c133.333,-85.067 -447.917,-299.65 -447.917,-299.65Z" style="fill-opacity:0.1;fill-rule:nonzero;"/><path d="M11701.2,6346.71c33.334,11.113 307.292,392.363 447.917,347.225c140.625,-45.141 -447.917,-347.225 -447.917,-347.225Z" style="fill-opacity:0.1;fill-rule:nonzero;"/><path d="M11779,7001.58c0,0 18.579,218.404 244.271,188.717c225.696,-29.688 -244.271,-188.717 -244.271,-188.717Z" style="fill-opacity:0.1;fill-rule:nonzero;"/><path d="M10781.6,5240.13l-122.046,272.05l152.43,-154.688l-30.384,-117.362Z" style="fill-opacity:0.1;fill-rule:nonzero;"/><path d="M10781.6,5225.33l-122.046,272.05l152.43,-154.687l-30.384,-117.363Z" style="fill:#f0f3f7;fill-rule:nonzero;"/><path d="M10290.1,8482.46l-90.971,-19.271l-167.016,-313.716l16.841,-112.154l241.146,445.141Z" style="fill-opacity:0.3;fill-rule:nonzero;"/><path d="M11873.6,8466.17l-19.967,103.991l0,0.175l-236.804,193.23l-89.412,-18.925l346.183,-278.471Z" style="fill-opacity:0.3;fill-rule:nonzero;"/><path d="M8142.54,7252.08c-45.834,7.638 -90.275,14.584 -130.9,19.792c-225.696,29.688 -762.5,-236.804 -762.5,-236.804c-0,-0 -655.038,-547.746 -843.75,-1065.8c-188.717,-518.054 225.691,-595.834 225.691,-595.834c156.25,-88.887 496.009,159.03 544.1,199.825c48.088,40.8 88.888,144.271 85.067,210.938c-3.817,66.667 111.112,151.737 111.112,151.737c0,0 196.18,340.45 244.271,377.43c48.092,36.979 59.2,70.312 73.959,133.333c14.758,63.021 144.27,114.758 199.825,110.938c55.558,-3.817 121.529,18.579 121.529,48.091c-0,23.783 54.342,35.592 98.958,39.408c13.196,189.759 26.217,438.371 32.638,606.946Z" style="fill-opacity:0.1;fill-rule:nonzero;"/><path d="M8140.46,7197.92c-34.721,5.554 -68.054,10.591 -99.304,14.758c-225.696,29.688 -762.325,-236.808 -762.325,-236.808c0,-0 -655.037,-547.742 -843.75,-1065.8c-188.717,-518.059 225.692,-595.833 225.692,-595.833c156.25,-88.892 495.833,159.024 543.925,199.824c48.091,40.801 88.887,144.271 85.241,210.938c-3.645,66.667 110.938,151.738 110.938,151.738c-0,-0.001 196.183,340.449 244.271,377.429c48.091,36.979 59.204,70.312 74.133,133.333c14.929,63.021 144.271,114.583 199.825,110.938c55.559,-3.646 121.529,18.575 121.529,48.091c0,17.358 30.904,28.992 65.279,34.721c1.388,20.138 2.605,41.492 4.167,63.717c11.458,170.658 23.263,388.366 30.379,552.95Z" style="fill-opacity:0.1;fill-rule:nonzero;"/><path d="M8998.96,6825.17l-14.062,332.637l-15.104,0l-31.25,-17.362l3.82,-286.629c18.242,-10.73 37.146,-20.296 56.596,-28.646Z" style="fill-opacity:0.1;fill-rule:nonzero;"/><path d="M6631.08,5343.75c0,0 -414.408,77.779 -225.691,595.833c188.712,518.055 843.75,1065.97 843.75,1065.97c-0,0 536.629,266.321 762.5,236.809c225.866,-29.517 569.791,-107.292 614.233,-96.184c44.446,11.113 344.271,11.113 344.271,11.113l14.758,-347.221l-347.221,-18.579l-177.604,-36.98c0,0 -63.021,-52.083 -100,-44.441c-36.979,7.637 -114.583,-44.446 -114.583,-44.446c-0,0 -59.375,-48.092 -104.167,-48.092c-44.792,0 -129.517,-11.108 -129.517,-40.625c0,-29.512 -66.666,-52.083 -121.525,-48.087c-54.862,3.992 -185.937,-48.092 -201.216,-111.809c-15.279,-63.712 -25.867,-96.179 -73.959,-133.158c-48.091,-36.979 -244.27,-377.604 -244.27,-377.604c-0,0 -114.759,-85.071 -111.113,-151.563c3.646,-66.491 -36.979,-170.312 -85.066,-211.112c-48.092,-40.796 -388.371,-288.542 -543.58,-199.825Z" style="fill:#dce6f2;fill-rule:nonzero;"/><path d="M7697.04,6535.42c-0,-0 -159.204,159.2 -118.579,188.716l118.579,-188.716Z" style="fill-opacity:0.1;fill-rule:nonzero;"/><path d="M7867.21,6661.29c0,-0 -207.291,159.204 -151.737,170.312c55.558,11.113 151.737,-170.312 151.737,-170.312Z" style="fill-opacity:0.1;fill-rule:nonzero;"/><path d="M7515.46,6897.42c29.688,14.929 469.967,277.779 636.634,273.958l-636.634,-273.958Z" style="fill-opacity:0.1;fill-rule:nonzero;"/><path d="M7545.33,5140.29c0,-0 -77.779,255.379 -107.466,255.379c-23.263,-0 -413.888,-316.317 -576.909,-449.304l7.117,-5.904c0,-0 14.758,-114.755 73.958,-173.609c59.205,-58.854 603.3,373.438 603.3,373.438Z" style="fill-opacity:0.1;fill-rule:nonzero;"/><path d="M7530.38,5110.58c0,0 -77.604,255.379 -107.292,255.379c-23.437,0 -414.062,-316.316 -577.083,-449.304l7.117,-5.904c-0,0 14.929,-114.754 74.133,-173.608c59.2,-58.854 603.125,373.437 603.125,373.437Z" style="fill:#dce6f2;fill-rule:nonzero;"/><g opacity="0.15"><path d="M6482.29,4285.25c52.083,118.925 195.487,176.563 278.646,271.354c-49.48,-116.492 -194.096,-173.608 -278.646,-271.354Z" style="fill-rule:nonzero;"/><path d="M7013.04,4559.21c-20.659,39.759 -69.446,59.029 -113.888,58.163c-39.512,-2.838 -78.204,-12.713 -114.237,-29.167c13.071,19.271 23.033,40.479 29.512,62.846c40.534,19.479 84.334,31.254 129.167,34.721c44.967,1.042 93.229,-18.229 113.892,-58.158c33.158,-63.367 -1.392,-117.534 -41.842,-168.75c15.283,31.9 14.312,69.283 -2.604,100.345Z" style="fill-rule:nonzero;"/><path d="M7657.29,3689.06c-7.467,-33.334 -32.813,-59.55 -45.834,-90.971c-7.975,-24.317 -14.296,-49.142 -18.925,-74.309c-9.862,-35.583 -28.145,-68.275 -53.295,-95.312c3.491,8.546 6.45,17.304 8.854,26.217c4.862,25.279 11.358,50.212 19.441,74.654c13.021,31.421 38.371,57.637 45.834,90.971c9.083,48.595 -21.529,96.504 -69.442,108.679c-64.237,14.062 -137.5,-41.492 -192.708,-5.729c-33.854,21.704 -41.667,67.016 -46.184,106.945c-7.754,69.446 -15.625,138.484 -23.608,207.117c-1.567,24.35 -6.717,48.333 -15.279,71.183c-27.258,62.5 -102.083,91.838 -170.313,90.796c-26.65,1.783 -52.962,-6.95 -73.262,-24.304c-9.871,-13.979 -20.479,-27.425 -31.771,-40.279c-86.808,-72.917 -113.196,105.383 -90.279,156.25c11.475,22.883 25.7,44.279 42.362,63.716c-19.1,-57.291 7.638,-222.22 92.359,-151.562c11.291,12.813 21.841,26.262 31.6,40.279c20.379,17.333 46.737,26.054 73.437,24.304c68.229,1.042 143.054,-28.3 170.313,-90.8c8.579,-22.9 13.725,-46.946 15.275,-71.354c7.87,-69.442 15.741,-138.425 23.612,-206.942c4.513,-39.933 12.325,-85.245 46.008,-106.945c55.38,-35.763 128.646,19.791 192.88,5.554c47.529,-12.321 77.833,-59.875 68.925,-108.159Z" style="fill-rule:nonzero;"/></g><path d="M11501,4798.08c-18.467,3.442 -37.454,2.967 -55.729,-1.391c-69.896,-14.121 -132.9,-51.75 -178.471,-106.596c-25.175,-30.554 -44.967,-72.221 -29.688,-108.679c12.15,-29.342 44.096,-47.746 52.084,-78.3c3.608,-18.65 2.595,-37.909 -2.955,-56.075l-18.75,-85.592c-5.379,-24.304 -14.754,-52.95 -38.887,-58.679c-24.133,-5.729 -44.271,14.062 -63.196,28.991c-46.354,36.634 -135.417,61.634 -190.971,31.425c-55.554,-30.208 -40.104,-130.558 -49.133,-184.895c-0.3,-9.484 -4.746,-18.375 -12.15,-24.309c-8.138,-2.833 -16.879,-3.491 -25.35,-1.908c-30.034,-0 -53.992,-26.908 -62.846,-55.729c-6.017,-29.438 -9.329,-59.367 -9.896,-89.409c-3.471,-29.862 -14.237,-61.808 -40.104,-77.258c-20.396,-9.604 -43.017,-13.504 -65.45,-11.283l-128.821,1.387c-31.771,0 -69.446,-2.083 -86.804,-28.471c-17.363,-26.391 -4.517,-63.891 13.712,-90.8c18.23,-26.908 41.321,-53.645 42.884,-86.804c1.562,-33.162 -19.967,-61.808 -37.5,-89.583c-10.054,-15.192 -17.454,-31.983 -21.875,-49.654l-36.979,-2.259c-14.409,29.517 -0,64.759 17.362,92.709c17.359,27.954 39.063,56.6 37.5,89.412c-1.562,32.813 -24.654,59.2 -42.883,86.804c-18.229,27.605 -31.596,63.717 -13.542,90.8c18.054,27.084 54.688,28.992 86.804,28.646l128.821,-1.562c22.45,-2.175 45.075,1.787 65.45,11.458c25.871,15.45 36.808,47.396 40.104,77.254c0.55,30.054 3.921,59.988 10.071,89.413c8.679,28.646 32.813,56.075 62.846,55.554c8.421,-1.488 17.079,-0.833 25.175,1.908c7.433,5.988 11.879,14.942 12.154,24.479c9.025,54.167 -7.641,154.688 49.129,184.896c56.771,30.209 145.313,5.209 190.975,-31.421c18.921,-14.933 39.929,-34.725 63.367,-29.166c23.437,5.554 33.508,34.721 38.717,58.679l18.92,85.762c5.501,18.184 6.455,37.442 2.78,56.08c-8.68,30.379 -40.8,48.958 -52.95,78.125c-15.105,36.458 4.512,78.295 29.687,108.679c45.879,55.083 109.35,92.733 179.688,106.596c18.27,4.358 37.258,4.833 55.729,1.391c29.833,-9.095 55.458,-28.558 72.221,-54.862c-9.484,6.575 -20.067,11.396 -31.25,14.237Z" style="fill-opacity:0.1;fill-rule:nonzero;"/><ellipse cx="3536.28" cy="12401" rx="419.617" ry="64.408" style="fill:#08c;fill-opacity:0.1;"/><ellipse cx="18187.7" cy="10726.4" rx="419.617" ry="64.408" style="fill:#08c;fill-opacity:0.1;"/><ellipse cx="13909.7" cy="13321.9" rx="1215.28" ry="186.458" style="fill:#08c;fill-opacity:0.1;"/><ellipse cx="17364.4" cy="12532" rx="947.917" ry="145.488" style="fill:#08c;fill-opacity:0.1;"/><ellipse cx="17208.3" cy="13981.6" rx="1607.47" ry="246.7" style="fill:#08c;fill-opacity:0.1;"/><ellipse cx="1740.28" cy="14198.6" rx="1215.28" ry="186.458" style="fill:#08c;fill-opacity:0.1;"/><path d="M3555.38,10349.7c0,-0 47.567,62.15 -21.875,156.25c-69.445,94.096 -126.737,173.608 -104.166,231.596c-0,-0 104.166,-173.613 190.971,-176.738c86.804,-3.125 28.991,-106.25 -64.93,-211.108Z" style="fill:#08c;fill-rule:nonzero;"/><path d="M3555.38,10349.7c4.242,5.929 7.521,12.491 9.721,19.441c83.334,97.917 127.604,189.063 47.571,190.975c-74.479,2.084 -163.892,135.417 -185.246,169.096c0.654,2.596 1.467,5.146 2.434,7.638c0.966,2.496 104.166,-173.609 190.97,-176.734c86.805,-3.125 28.471,-105.558 -65.45,-210.416Z" style="fill-opacity:0.1;fill-rule:nonzero;"/><path d="M3643.93,10428.8c0,21.875 -2.604,39.584 -5.558,39.584c-2.95,-0 -5.554,-17.363 -5.554,-39.584c-0,-22.225 3.125,-11.458 6.075,-11.458c2.954,0 5.037,-10.417 5.037,11.458Z" style="fill:#ffd037;fill-rule:nonzero;"/><path d="M3674.13,10455c-19.1,10.416 -35.937,17.362 -37.329,14.062c-1.387,-3.296 12.85,-13.191 32.121,-23.783c19.271,-10.592 11.629,-2.779 13.021,-0c1.387,2.779 11.458,-0.867 -7.813,9.721Z" style="fill:#ffd037;fill-rule:nonzero;"/><path d="M3304.34,10349.7c-0,-0 -47.571,62.15 21.875,156.25c69.441,94.096 126.908,173.608 104.166,231.596c0,-0 -104.166,-173.613 -190.104,-176.738c-85.937,-3.125 -30.383,-106.25 64.063,-211.108Z" style="fill:#08c;fill-rule:nonzero;"/><path d="M3304.34,10349.7c-4.15,5.983 -7.425,12.533 -9.725,19.441c-83.334,97.917 -127.604,189.063 -47.567,190.975c74.479,2.084 163.888,135.417 185.417,169.096c-0.713,2.596 -1.584,5.15 -2.604,7.638c-1.025,2.491 -104.167,-173.609 -190.105,-176.734c-85.937,-3.125 -29.862,-105.558 64.584,-210.416Z" style="fill-opacity:0.1;fill-rule:nonzero;"/><path d="M3215.97,10428.8c-0,21.875 2.433,39.584 5.383,39.584c2.95,-0 5.554,-17.363 5.554,-39.584c0,-22.225 -3.125,-11.458 -6.075,-11.458c-2.95,0 -4.862,-10.417 -4.862,11.458Z" style="fill:#ffd037;fill-rule:nonzero;"/><path d="M3185.59,10455c19.271,10.416 35.937,17.362 37.5,14.062c1.562,-3.296 -13.021,-13.191 -32.292,-23.783c-19.271,-10.592 -11.633,-2.779 -13.021,-0c-1.391,2.779 -11.458,-0.867 7.813,9.721Z" style="fill:#ffd037;fill-rule:nonzero;"/><ellipse cx="3429.86" cy="11136.6" rx="497.05" ry="76.217" style="fill:#08c;fill-opacity:0.1;"/><path d="M3685.76,10653.5l-2.43,19.446l-3.3,27.429l-1.387,11.459l-3.3,27.433l-1.563,11.458l-3.295,27.429l-38.021,312.5c-3.3,27.78 -48.788,49.48 -104.167,49.48l-196.875,-0c-54.862,-0 -100.35,-21.7 -104.167,-49.48l-38.02,-312.5l-3.3,-27.429l-1.388,-11.458l-3.475,-27.433l-1.387,-11.459l-3.3,-27.429l-2.43,-19.446c-1.908,-15.796 22.742,-28.991 53.821,-28.991l404.338,-0c30.904,-0 55.558,13.195 53.646,28.991Z" style="fill:#65617d;fill-rule:nonzero;"/><path d="M3683.33,10672.9l-3.3,27.429l-500.345,-0l-3.3,-27.429l506.945,-0Z" style="fill:#9d9cb5;fill-rule:nonzero;"/><path d="M3678.65,10711.8l-3.3,27.433l-490.796,0l-3.475,-27.433l497.571,-0Z" style="fill:#9d9cb5;fill-rule:nonzero;"/><path d="M3673.96,10750.7l-3.47,27.43l-481.251,-0.001l-3.3,-27.429l488.021,0Z" style="fill:#9d9cb5;fill-rule:nonzero;"/><path d="M17857,10109.2c0,0 -59.375,276.392 204.688,309.03l16.317,-30.73c-0,0 -204.688,-192.533 -221.005,-278.3Z" style="fill:#08c;fill-rule:nonzero;"/><path d="M18162,10385.3l-61.458,13.021l-6.075,1.391c-0,0.001 -163.892,-132.987 -161.809,-429.862c21.905,43.771 48.134,85.242 78.3,123.783c64.93,85.938 138.717,200.521 151.042,291.667Z" style="fill:#08c;fill-rule:nonzero;"/><path d="M18182.6,10413.7c-9.767,6.359 -21.904,7.954 -32.983,4.338c-157.642,-36.804 -104.167,-550.521 -104.167,-550.521c8.679,3.996 17.358,69.446 54.513,153.821c63.366,148.092 133.333,355.208 82.637,392.362Z" style="fill:#08c;fill-rule:nonzero;"/><path d="M18532.3,10109.2c-0,0 10.241,276.392 -253.821,309.03l-16.492,-31.251c0,0.001 253.992,-192.012 270.313,-277.779Z" style="fill:#08c;fill-rule:nonzero;"/><path d="M18456.6,9970.33c2.084,296.875 -210.762,429.863 -210.762,429.863l-6.25,-1.392l-61.283,-13.021c12.15,-91.145 86.804,-205.729 150.866,-291.666c36.775,-46.75 79.629,-88.379 127.429,-123.784Z" style="fill:#08c;fill-rule:nonzero;"/><path d="M18238.7,10387c-9.333,11.538 -21.22,20.75 -34.725,26.908c-4.179,1.888 -8.541,3.342 -13.02,4.342c-38.713,9.029 -52.084,-18.925 -50,-66.492c3.645,-84.55 56.77,-231.25 104.166,-341.145c22.829,-53.917 56.517,-102.559 98.959,-142.884c42.445,-40.325 -2.43,399.825 -105.38,519.271Z" style="fill:#08c;fill-rule:nonzero;"/><path d="M18194.6,9687.33c0,0 -176.042,625 -24.479,718.405c151.562,93.404 63.371,-663.196 24.479,-718.405Z" style="fill:#08c;fill-rule:nonzero;"/><path d="M17857,10109.2c0,0 -59.375,276.392 204.688,309.03l16.317,-30.73c-0,0 -204.688,-192.533 -221.005,-278.3Z" style="fill-opacity:0.1;fill-rule:nonzero;"/><path d="M18162,10385.3l-61.458,13.021l-6.075,1.391c-0,0.001 -163.892,-132.987 -161.809,-429.862c21.905,43.771 48.134,85.242 78.3,123.783c64.93,85.938 138.717,200.521 151.042,291.667Z" style="fill-opacity:0.1;fill-rule:nonzero;"/><path d="M18182.6,10413.7c-9.767,6.359 -21.904,7.954 -32.983,4.338c-157.642,-36.804 -104.167,-550.521 -104.167,-550.521c8.679,3.996 17.358,69.446 54.513,153.821c63.366,148.092 133.333,355.208 82.637,392.362Z" style="fill-opacity:0.1;fill-rule:nonzero;"/><path d="M18532.3,10109.2c-0,0 10.241,276.392 -253.821,309.03l-16.492,-31.251c0,0.001 253.992,-192.012 270.313,-277.779Z" style="fill-opacity:0.1;fill-rule:nonzero;"/><path d="M18456.6,9970.33c2.084,296.875 -210.762,429.863 -210.762,429.863l-6.25,-1.392l-61.283,-13.021c12.15,-91.145 86.804,-205.729 150.866,-291.666c36.775,-46.75 79.629,-88.379 127.429,-123.784Z" style="fill-opacity:0.1;fill-rule:nonzero;"/><path d="M18238.7,10387c-9.333,11.538 -21.22,20.75 -34.725,26.908c-4.179,1.888 -8.541,3.342 -13.02,4.342c-38.713,9.029 -52.084,-18.925 -50,-66.492c3.645,-84.55 56.77,-231.25 104.166,-341.145c22.829,-53.917 56.517,-102.559 98.959,-142.884c42.445,-40.325 -2.43,399.825 -105.38,519.271Z" style="fill-opacity:0.1;fill-rule:nonzero;"/><path d="M18194.6,9687.33c0,0 -176.042,625 -24.479,718.405c151.562,93.404 63.371,-663.196 24.479,-718.405Z" style="fill-opacity:0.1;fill-rule:nonzero;"/><path d="M17857,10109.2c0,0 -34.725,276.392 229.167,309.03l16.317,-30.73c-0,0 -229.167,-192.533 -245.484,-278.3Z" style="fill:#08c;fill-rule:nonzero;"/><path d="M18186.5,10385.3l-61.458,13.021l-6.075,1.391c0,0.001 -188.371,-132.987 -186.808,-429.341c-0,-0 48.266,52.083 102.779,123.783c65.45,85.417 139.237,200 151.562,291.146Z" style="fill:#08c;fill-rule:nonzero;"/><path d="M18186.5,10385.3l-61.458,13.021c-58.158,-51.042 -81.25,-184.375 -89.583,-304.688c64.929,85.938 138.716,200.521 151.041,291.667Z" style="fill-opacity:0.1;fill-rule:nonzero;"/><path d="M18207.3,10413.7c-9.829,6.363 -22.025,7.959 -33.159,4.338c-157.641,-36.804 -128.821,-550.521 -128.821,-550.521c8.68,3.996 42.709,69.446 78.992,153.821c63.717,148.092 133.508,355.208 82.988,392.362Z" style="fill:#08c;fill-rule:nonzero;"/><path d="M18532.3,10109.2c-0,0 34.72,276.392 -229.167,309.03l-16.321,-30.73c0,0 229.167,-192.533 245.488,-278.3Z" style="fill:#08c;fill-rule:nonzero;"/><path d="M18456.6,9970.33c2.084,296.875 -186.283,429.863 -186.283,429.863l-6.075,-1.392l-61.458,-13.021c12.15,-91.145 86.804,-205.729 151.041,-291.666c54.513,-71.7 102.775,-123.784 102.775,-123.784Z" style="fill:#08c;fill-rule:nonzero;"/><path d="M18353.8,10093.6c-7.987,112.155 -28.475,235.592 -78.3,293.229c-3.404,4.159 -7.183,7.992 -11.283,11.459l-61.458,-13.021c12.15,-91.146 86.108,-205.729 151.041,-291.667Z" style="fill-opacity:0.1;fill-rule:nonzero;"/><path d="M18263.2,10387c-9.283,11.588 -21.187,20.813 -34.725,26.908c-4.129,1.863 -8.433,3.317 -12.845,4.342c-38.888,9.029 -52.084,-18.925 -50.175,-66.492c3.82,-84.55 56.945,-231.25 104.166,-341.145c34.725,-78.996 66.146,-138.892 74.479,-142.884c0,-0.175 22.05,399.825 -80.9,519.271Z" style="fill:#08c;fill-rule:nonzero;"/><path d="M18207.3,10413.7c-8.975,0.1 -17.746,-2.704 -25,-7.987c-74.134,-46.179 -75.696,-219.446 -57.988,-384.375c63.717,148.091 133.508,355.208 82.988,392.362Z" style="fill-opacity:0.1;fill-rule:nonzero;"/><path d="M18263.2,10387c-8.508,18.575 -19.966,28.3 -34.725,26.908c-7.545,-0.912 -14.758,-3.654 -21.004,-7.983c-19.312,-13.229 -34.008,-32.175 -42.016,-54.167c3.82,-84.55 56.945,-231.25 104.166,-341.145c17.017,152.254 22.746,313.712 -6.421,376.387Z" style="fill-opacity:0.1;fill-rule:nonzero;"/><path d="M18194.6,9687.33c0,0 -151.387,625 0,718.405c151.392,93.404 38.892,-663.196 0,-718.405Z" style="fill:#08c;fill-rule:nonzero;"/><path d="M18485.3,10375.2l-630.379,-0l-0,104.337l96.179,0l2.429,12.329l38.542,202.605l366.496,-0l38.541,-202.605l2.254,-12.329l85.938,0l-0,-104.337Z" style="fill:#4b4770;fill-rule:nonzero;"/><path d="M18485.3,10375.2l-630.379,-0l-0,104.337l96.179,0l2.429,12.329l38.542,202.605l366.496,-0l38.541,-202.605l2.254,-12.329l85.938,0l-0,-104.337Z" style="fill-opacity:0.1;fill-rule:nonzero;"/><path d="M18432.1,10436.5l-10.587,55.384l-38.542,202.604l-366.496,-0l-38.542,-202.604l-10.587,-55.384l464.754,0Z" style="fill:#4b4770;fill-rule:nonzero;"/><path d="M18432.1,10436.5l-10.587,55.384l-443.58,-0l-10.587,-55.384l464.754,0Z" style="fill-opacity:0.1;fill-rule:nonzero;"/><rect x="17879.3" y="10375.2" width="630.383" height="104.342" style="fill:#4b4770;"/><path d="M2419.97,12160.6c-16.621,22.909 -29.946,48.038 -39.584,74.65c-2.433,6.425 -4.862,13.892 -7.291,21.009c-4.409,-2.059 -9,-3.684 -13.717,-4.863c-20.237,-5.108 -41.175,-6.871 -61.979,-5.208c-0,-8.158 1.041,-17.359 1.216,-25.521c2.605,-91.492 -8.162,-218.921 -95.487,-164.929c-83.679,52.083 -23.958,138.887 30.033,194.446c4.688,4.858 9.375,9.375 13.892,13.712c-49.308,34.725 -58.683,116.842 -66.842,202.084c-8.158,85.245 -80.554,178.475 -128.646,231.425c-4.862,5.383 -9.199,10.241 -13.541,14.758c-39.3,-31.363 -90.204,-44.454 -139.758,-35.938c-1.909,-7.466 -4.167,-15.279 -6.421,-23.437c-38.892,-140.454 -119.621,-383.683 -222.571,-436.979l13.542,-17.363c43.75,-57.117 93.054,-142.187 20.312,-163.887c-72.742,-21.704 -79.342,73.608 -75.346,145.137c0.692,9.029 1.388,17.534 2.084,25.521c-29.384,1.337 -56.93,14.8 -76.042,37.154l-11.288,-13.371c-59.025,-69.441 -167.187,-180.033 -200,-96.525c-30.554,77.775 64.759,178.817 131.771,237.325l4.167,3.646c-44.963,182.467 151.392,331.25 257.121,396.354l13.712,8.334c-145.833,171.875 -235.937,494.095 -235.937,494.095l408.333,72.917c0,0 270.833,-233.679 236.113,-453.125l2.779,0c270.658,-54.167 332.116,-342.708 289.929,-514.062l4.862,-1.909c49.309,-20.162 92.517,-52.837 125.346,-94.791c75.696,-105.034 -82.637,-223.784 -160.762,-120.659Z" style="fill:#08c;fill-rule:nonzero;"/><path d="M2419.97,12160.6c-16.621,22.909 -29.946,48.038 -39.584,74.65c-2.433,6.425 -4.862,13.892 -7.291,21.009c-4.409,-2.059 -9,-3.684 -13.717,-4.863c-20.237,-5.108 -41.175,-6.871 -61.979,-5.208c-0,-8.158 1.041,-17.359 1.216,-25.521c2.605,-91.492 -8.162,-218.921 -95.487,-164.929c-83.679,52.083 -23.958,138.887 30.033,194.446c4.688,4.858 9.375,9.375 13.892,13.712c-49.308,34.725 -58.683,116.842 -66.842,202.084c-8.158,85.245 -80.554,178.475 -128.646,231.425c-4.862,5.383 -9.199,10.241 -13.541,14.758c-39.3,-31.363 -90.204,-44.454 -139.758,-35.938c-1.909,-7.466 -4.167,-15.279 -6.421,-23.437c-38.892,-140.454 -119.621,-383.683 -222.571,-436.979l13.542,-17.363c43.75,-57.117 93.054,-142.187 20.312,-163.887c-72.742,-21.704 -79.342,73.608 -75.346,145.137c0.692,9.029 1.388,17.534 2.084,25.521c-29.384,1.337 -56.93,14.8 -76.042,37.154l-11.288,-13.371c-59.025,-69.441 -167.187,-180.033 -200,-96.525c-30.554,77.775 64.759,178.817 131.771,237.325l4.167,3.646c-44.963,182.467 151.392,331.25 257.121,396.354l13.712,8.334c-145.833,171.875 -235.937,494.095 -235.937,494.095l408.333,72.917c0,0 270.833,-233.679 236.113,-453.125l2.779,0c270.658,-54.167 332.116,-342.708 289.929,-514.062l4.862,-1.909c49.309,-20.162 92.517,-52.837 125.346,-94.791c75.696,-105.034 -82.637,-223.784 -160.762,-120.659Z" style="fill-opacity:0.1;fill-rule:nonzero;"/><path d="M1607.12,12279.3l-47.742,138.888c0,-0 -26.563,-18.75 -60.071,-48.263c-67.012,-58.508 -162.325,-159.55 -131.771,-237.329c32.813,-83.504 140.975,26.738 200,96.529c23.788,27.779 39.584,50.175 39.584,50.175Z" style="fill:#08c;fill-rule:nonzero;"/><path d="M1707.81,12198.6c-14.505,19.117 -30.034,37.429 -46.53,54.858c-4.075,-24.375 -6.912,-48.945 -8.504,-73.608c-3.996,-71.529 3.646,-166.496 75.346,-145.142c71.7,21.355 23.438,106.771 -20.313,163.892Z" style="fill:#08c;fill-rule:nonzero;"/><path d="M2324.48,12220.7c-1.387,46.008 -5.904,82.812 -5.904,82.812c-21,-16.437 -40.892,-34.241 -59.546,-53.296c-53.996,-56.079 -113.717,-142.537 -30.037,-194.445c86.458,-54.167 97.225,73.437 95.487,164.929Z" style="fill:#08c;fill-rule:nonzero;"/><path d="M2605.73,12280.9c-32.829,41.954 -76.037,74.629 -125.346,94.791c-13.691,5.921 -27.72,11.025 -42.016,15.275l-56.25,-78.991c5.908,-26.104 13.683,-51.746 23.266,-76.738c9.638,-26.612 22.963,-51.741 39.584,-74.65c77.775,-103.125 236.458,15.625 160.762,120.313Z" style="fill:#08c;fill-rule:nonzero;"/><path d="M1567.53,12229.2c23.788,27.779 39.584,49.304 39.584,49.304l-47.742,138.892c-0,-0 -26.563,-18.75 -60.071,-48.267c7.446,-44.75 25.946,-86.946 53.821,-122.742c4.687,-5.729 9.721,-11.633 14.408,-17.187Z" style="fill-opacity:0.1;fill-rule:nonzero;"/><path d="M1707.81,12198.6c-14.505,19.117 -30.034,37.429 -46.53,54.858c-4.075,-24.375 -6.912,-48.945 -8.504,-73.608c19.838,0.408 39.071,6.962 55.034,18.75Z" style="fill-opacity:0.1;fill-rule:nonzero;"/><path d="M1942.53,12753.5l-118.75,52.084c0,-0 -25.866,-12.5 -63.191,-35.763c-124.829,-76.737 -375.696,-269.967 -208.334,-497.742c167.359,-227.779 308.505,180.73 364.584,380.555c16.837,60.762 25.691,100.866 25.691,100.866Z" style="fill:#08c;fill-rule:nonzero;"/><path d="M2258.16,12250.2c17.267,-17.796 40.688,-28.354 65.454,-29.517c-1.391,46.008 -5.904,82.813 -5.904,82.813c-21,-16.438 -40.891,-34.242 -59.55,-53.296Z" style="fill-opacity:0.1;fill-rule:nonzero;"/><path d="M2480.73,12375.7c-13.687,5.921 -27.717,11.025 -42.012,15.275l-56.25,-78.991c5.904,-26.104 13.679,-51.746 23.262,-76.738c35.938,21.184 62.675,73.959 75,140.454Z" style="fill-opacity:0.1;fill-rule:nonzero;"/><path d="M2185.59,12891.7c-6.425,1.387 -13.196,2.604 -19.967,3.646c-398.092,60.416 -131.25,-154.342 -131.25,-154.342c0,-0 17.363,-17.358 42.188,-43.575c48.091,-52.95 120.312,-145.658 128.645,-231.425c12.5,-128.992 26.909,-250 179.167,-214.583c149.479,35.07 178.125,564.758 -198.783,640.279Z" style="fill:#08c;fill-rule:nonzero;"/><rect x="1417.53" y="13882.8" width="760.592" height="200" style="fill:#d4dfec;"/><rect x="1296.7" y="13232.8" width="993.75" height="697.917" style="fill:#d4dfec;"/><rect x="1417.53" y="13882.8" width="760.592" height="200" style="fill-opacity:0.1;"/><rect x="1296.7" y="13232.8" width="993.75" height="697.917" style="fill-opacity:0.1;"/><rect x="1467.53" y="13882.8" width="760.592" height="200" style="fill:#d4dfec;"/><path d="M1916.84,12652.8c17.358,59.721 25.691,100.691 25.691,100.691l-118.75,52.084c0,-0 -25.866,-12.5 -63.191,-35.763c46.525,-58.854 98.958,-103.3 156.25,-117.012Z" style="fill-opacity:0.1;fill-rule:nonzero;"/><path d="M2185.59,12891.7c-6.425,1.387 -13.196,2.604 -19.967,3.646c-398.092,60.416 -131.25,-154.342 -131.25,-154.342c0,-0 17.363,-17.358 42.188,-43.575c74.304,59.55 105.033,126.562 109.029,194.271Z" style="fill-opacity:0.1;fill-rule:nonzero;"/><path d="M1538.37,13272.4c-0,-0 222.916,-798.613 535.591,-552.259c312.675,246.355 -127.258,625 -127.258,625l-408.333,-72.741Z" style="fill:#08c;fill-rule:nonzero;"/><circle cx="1650.87" cy="12397.2" r="25" style="fill-opacity:0.1;"/><circle cx="1648.78" cy="12513.9" r="25" style="fill-opacity:0.1;"/><circle cx="2373.96" cy="12420.1" r="25" style="fill-opacity:0.1;"/><circle cx="1790.63" cy="13018.3" r="25" style="fill-opacity:0.1;"/><circle cx="2321.88" cy="12613.9" r="25" style="fill-opacity:0.1;"/><circle cx="2063.54" cy="12872.4" r="25" style="fill-opacity:0.1;"/><circle cx="1736.28" cy="12447.2" r="25" style="fill-opacity:0.1;"/><circle cx="2305.21" cy="12495.1" r="25" style="fill-opacity:0.1;"/><circle cx="2219.79" cy="12688.9" r="25" style="fill-opacity:0.1;"/><circle cx="1957.29" cy="12999.5" r="25" style="fill-opacity:0.1;"/><circle cx="1903.13" cy="12876.6" r="25" style="fill-opacity:0.1;"/><circle cx="1773.78" cy="12599.3" r="25" style="fill-opacity:0.1;"/><rect x="1467.53" y="13882.8" width="760.592" height="73.092" style="fill-opacity:0.1;"/><rect x="1346.7" y="13232.8" width="993.75" height="697.917" style="fill:#d4dfec;"/><circle cx="1990.63" cy="13112" r="25" style="fill-opacity:0.1;"/><circle cx="1840.63" cy="13143.3" r="25" style="fill-opacity:0.1;"/><circle cx="868.054" cy="902.779" r="181.596" style="fill:#08c;fill-opacity:0.1;"/><circle cx="18308.5" cy="6616.17" r="243.054" style="fill:#08c;fill-opacity:0.1;"/><circle cx="18777.1" cy="6095.33" r="177.429" style="fill:#08c;fill-opacity:0.1;"/><circle cx="1180.55" cy="243.054" r="243.054" style="fill:#08c;fill-opacity:0.1;"/><circle cx="243.054" cy="1354.17" r="243.054" style="fill:#08c;fill-opacity:0.1;"/><defs><linearGradient id="_Linear1" x1="0" y1="0" x2="1" y2="0" gradientUnits="userSpaceOnUse" gradientTransform="matrix(6.22422e-13,-10164.9,10164.9,6.22422e-13,9151.58,13469.6)"><stop offset="0" style="stop-color:#808080;stop-opacity:0.25"/><stop offset="0.54" style="stop-color:#808080;stop-opacity:0.12"/><stop offset="1" style="stop-color:#808080;stop-opacity:0.1"/></linearGradient></defs></svg>