<?xml version="1.0" encoding="UTF-8" standalone="no"?><!DOCTYPE svg PUBLIC "-//W3C//DTD SVG 1.1//EN" "http://www.w3.org/Graphics/SVG/1.1/DTD/svg11.dtd"><svg width="100%" height="100%" viewBox="0 0 4550 3453" version="1.1" xmlns="http://www.w3.org/2000/svg" xmlns:xlink="http://www.w3.org/1999/xlink" xml:space="preserve" xmlns:serif="http://www.serif.com/" style="fill-rule:evenodd;clip-rule:evenodd;stroke-linejoin:round;stroke-miterlimit:2;"><path d="M4491.21,995.875c-0.791,3.708 -1.541,7.417 -2.416,11.083c-27.334,126.042 -72,247.5 -138.417,359.042c-2.208,3.708 -4.417,7.417 -6.667,11.125c-43.794,71.765 -96.197,137.909 -156.041,196.958c-33.084,32.667 -69.167,63.709 -112.084,86.084c-60.125,31.416 -130.416,44.166 -199.5,54.583c-71.75,10.875 -144.5,19.958 -217.041,29.75c-25.778,3.417 -51.403,7.042 -76.875,10.875c-70.084,10.375 -139.667,22.375 -207.584,38.292c-83.958,19.625 -165.333,45.333 -242.208,81.5c-6.139,2.777 -12.208,5.722 -18.208,8.833c-6,3 -12.042,6.042 -17.959,9.125c-5.916,3.083 -11.75,6.167 -17.541,9.333c-3,1.625 -6,3.25 -8.959,4.959c-2.958,1.708 -5.875,3.208 -8.75,4.875c-8.666,4.833 -17.166,9.791 -25.666,14.791l-0.334,0.209c-5.625,3.291 -11.166,6.666 -16.666,10.041c-31.417,19.084 -62.167,39 -92.917,59.042l-19.333,12.5l-29.959,19.375c-5.833,3.792 -11.791,7.583 -17.666,11.333c-4.167,2.75 -8.334,5.5 -12.875,8.334c-21.834,13.75 -43.959,27.25 -66.667,40.125c-5.375,3.083 -10.792,6.166 -16.25,9.166c-45.879,25.596 -93.859,47.23 -143.417,64.667l-0.666,0.25c-24.932,8.697 -50.367,15.877 -76.167,21.5c-14.875,3.25 -29.792,5.917 -44.875,7.958c-40.32,5.717 -81.202,6.291 -121.667,1.709c-79.458,-9.209 -153.916,-39.709 -233.333,-50c-163.5,-20.834 -322.292,46.291 -476.042,98.875c-37.805,12.916 -75.889,25.014 -114.25,36.291c-25.5,7.542 -51.083,14.667 -76.875,21.542c-158.017,41.749 -319.289,70.031 -482.083,84.542c-68.052,6.668 -136.511,8.186 -204.792,4.541c-25.958,-1.583 -51.625,-4.166 -76.833,-8.333c-86.25,-13.333 -166.667,-41.292 -231.583,-92.5c-53.167,-42.042 -91.209,-96.833 -120.167,-154.167c-29.643,-58.501 -50.573,-121.025 -62.125,-185.583c-1.583,-8.792 -3,-17.625 -4.167,-26.458c-2.083,-15.111 -3.639,-30.306 -4.666,-45.584c-5.607,-81.431 4.118,-163.196 28.666,-241.041c27.5,-87.167 73.334,-170.834 93.5,-258.667c0.834,-3.722 1.625,-7.431 2.375,-11.125c2.755,-13.341 4.799,-26.818 6.125,-40.375c10.292,-107.917 -29.166,-213.125 -60.125,-318.667c-1.083,-3.666 -2.166,-7.375 -3.208,-11.083c-3.333,-11.722 -6.528,-23.431 -9.583,-35.125c-28.667,-111.583 -36.625,-231.042 -11.084,-342.417c0.792,-3.708 1.75,-7.416 2.667,-11.083c17.099,-70.399 49.256,-136.262 94.25,-193.042c47.833,-60 110.625,-109.958 177.708,-153.833c32.695,-21.389 66.5,-41.375 101.417,-59.958c25,-13.334 50.611,-25.959 76.833,-37.875c210.209,-95.834 450,-142.625 687.125,-132.292c12.5,0.542 25,1.208 37.5,2.125c12.5,0.917 26.167,2 39.25,3.208c152.75,14.834 301.375,50.625 448.959,89.75c49.458,13.125 98.833,26.584 148.166,39.792c21.959,5.833 43.875,11.667 65.834,17.333c107.541,27.792 216.666,52.959 327.166,71.75c25.584,4.417 51.195,8.445 76.834,12.084c89.019,13.082 178.757,20.694 268.708,22.791c34.972,0.695 69.958,0.389 104.958,-0.916c17.667,-0.639 35.348,-1.598 53.042,-2.875c182.708,-12.875 359.292,-55.959 536.167,-96.209c25.583,-5.833 51.208,-11.583 76.875,-17.25c33.666,-7.416 67.333,-14.583 101.166,-21.208c210.542,-41.375 398.209,-17.583 593.959,67.792c44.5,19.375 88.958,42.791 116.208,79.166c27.25,36.375 34.083,81.042 39.167,124.167c7.208,61.417 11.916,123.625 13.708,186.167c0,3.666 0,7.375 0.25,11.083c2.833,126.333 -6.583,253.875 -32.292,377.25Z" style="fill:#08c;fill-opacity:0.1;fill-rule:nonzero;"/><path d="M3094.63,1366l-13.75,0l0,11.125l15.583,0l-1.833,-11.125Zm-155.958,0c-0.021,0.096 -0.021,0.195 -0,0.292c-0.375,3.041 -0.792,6.083 -1.209,9.166l0,1.667l119.167,0l0,-0.667l8.333,-10.458l-126.291,0Zm-319.375,0l-0,-359.042l137.083,0c-1.458,-0.958 -2.958,-1.958 -4.5,-2.875l-2,-1.291l-2.583,-1.584c-1.5,-0.875 -3,-1.75 -4.584,-2.583c-1.583,-0.833 -2.541,-1.417 -3.875,-2.125l-0.916,-0.5l-118.625,0l-0,-19.792l-3.209,1.25l-3.375,1.584l-0.25,-0l-4.958,2.625c-2.083,1.125 -4.167,2.375 -6.25,3.666l-2,1.334l-4.167,2.666c-5.375,3.584 -10.666,7.334 -16.125,10.834c-1.375,0.875 -2.75,1.75 -4.166,2.541c-2.959,1.75 -6,3.417 -9.125,4.917c-1.334,0.667 -2.625,1.25 -4.167,1.792l-2.25,0.875l-2.083,0.708c-4.889,1.701 -9.904,3.011 -15,3.917l-0,351l-205.542,-0c0,0.416 0.292,0.75 0.417,1.166c1.125,3.334 2.25,6.625 3.333,9.959l202.083,-0l0,384.833l3.125,-0l3.625,0.208l6.542,0.375l10.458,1.25l4.792,0.459l5.208,0.541l0.792,0l9.208,1.125l1.959,0.25l4.458,0.625l6.375,0.917l15.292,-0.667l2.083,0.375c0.833,0 1.708,0.25 2.583,0.417l0,-390.625l318.084,0l-0,-1.667c0.416,-3.083 0.833,-6.125 1.208,-9.166c-0.02,-0.097 -0.02,-0.196 0,-0.292l-318.958,-0Zm475.333,-0l-13.75,-0l0,11.125l15.583,0l-1.833,-11.125Zm-164.542,-0c-0.5,3.708 -0.958,7.417 -1.458,11.125l132.875,0l9.042,-11.125l-140.459,-0Zm-310.791,-0l-0,-359.042l137.083,0c-1.458,-0.958 -2.958,-1.958 -4.5,-2.875l-2,-1.291l-2.583,-1.584c-1.5,-0.875 -3,-1.75 -4.584,-2.583c-1.583,-0.833 -2.541,-1.417 -3.875,-2.125l-0.916,-0.5l-118.625,-0l-0,-19.792l-3.209,1.25l-3.375,1.584l-0.25,-0l-4.958,2.625c-2.083,1.125 -4.167,2.375 -6.25,3.666l-2,1.334l-4.167,2.666c-5.375,3.584 -10.666,7.334 -16.125,10.834c-1.375,0.875 -2.75,1.75 -4.166,2.541c-2.959,1.75 -6,3.417 -9.125,4.917c-1.334,0.667 -2.625,1.25 -4.167,1.792l-2.25,0.875l-2.083,0.708c-4.889,1.701 -9.904,3.011 -15,3.917l-0,351l-205.542,-0c0,0.416 0.292,0.75 0.417,1.166c1.125,3.292 2.291,6.625 3.375,9.959l202.041,-0l0,384.791l3.125,0l3.625,0.209l6.542,0.375l10.458,1.291l4.792,0.459l5.208,0.541l0.792,0l9.208,1.125l1.959,0.25l4.458,0.625l6.375,0.917l15.292,-0.667l2.083,0.375c0.833,0 1.708,0.25 2.583,0.417l0,-390.625l309.75,0c0.5,-3.708 0.959,-7.417 1.459,-11.125l-310.875,-0Zm1039.75,-747.667l864.458,0c0,-3.708 0,-7.416 -0.25,-11.083l-864.208,-0l-0,-435.917c-25.667,5.556 -51.292,11.306 -76.875,17.25l-0,418.667l-940.167,-0l-2.375,-2.125l3.583,-3.167l349.709,-314.25c-35,1.334 -69.986,1.639 -104.959,0.917l-268.708,241.417l0,-264.125c-25.667,-3.639 -51.278,-7.667 -76.833,-12.084l-0,264.042l-392.875,-353.125c-49.334,-13.208 -98.709,-26.667 -148.167,-39.792l534.292,480.167l-2.375,2.125l-980.834,-0l0,-571.667c-13.083,-1.222 -26.166,-2.291 -39.25,-3.208c-12.5,-0.917 -25,-1.583 -37.5,-2.125l0,577l-687.25,-0l0,-444.708c-25.944,11.889 -51.555,24.514 -76.833,37.875l0,406.833l-373.375,-0c-0.917,3.667 -1.875,7.375 -2.667,11.083l376.042,0l0,377.542l-355.375,-0c1.042,3.708 2.125,7.417 3.208,11.083l352.167,0l0,359.042l-298.167,-0c-0.75,3.694 -1.541,7.403 -2.375,11.125l300.542,0l0,1003.88c25,3.875 50.875,6.583 76.833,8.333l0,-1012.21l687.125,0l0,923.042c25.792,-6.875 51.375,-14 76.875,-21.542l0,-901.5l990,0l0,806.458c25.8,-5.623 51.235,-12.802 76.167,-21.5l0.667,-0.25l-0,-784.708l962.875,0l-0,378.25c25.555,-3.75 51.18,-7.347 76.875,-10.792l-0,-367.458l684.666,0c2.25,-3.708 4.459,-7.417 6.667,-11.125l-691.333,0l-0,-359.042l829.75,0c0.875,-3.666 1.625,-7.375 2.416,-11.083l-832.166,-0l-0,-377.542Zm-2870.58,0l687.125,0l0,377.542l-687.125,0l0,-377.542Zm0,747.667l0,-359.042l687.125,0l0,359.042l-687.125,0Zm764,-747.667l990,0l0,377.542l-990,0l0,-377.542Zm0,747.667l0,-359.042l990,0l0,359.042l-990,0Zm2029.71,0l-962.875,0l-0,-359.042l962.875,0l-0,359.042Zm-0,-370.125l-962.875,0l-0,-367.417l13.5,-10.125l949.375,0l-0,377.542Zm-643.5,370.125c-0.021,0.096 -0.021,0.195 -0,0.292c-0.375,3.041 -0.792,6.083 -1.209,9.166l0,1.667l119.167,0l0,-0.667l8.333,-10.458l-126.291,0Zm155.958,0l-13.75,0l0,11.125l15.583,0l-1.833,-11.125Zm-475.333,0l-0,-359.042l137.083,0c-1.458,-0.958 -2.958,-1.958 -4.5,-2.875l-2,-1.291l-2.583,-1.584c-1.5,-0.875 -3,-1.75 -4.584,-2.583c-1.583,-0.833 -2.541,-1.417 -3.875,-2.125l-0.916,-0.5l-118.625,0l-0,-19.792l-3.209,1.25l-3.375,1.584l-0.25,-0l-4.958,2.625c-2.083,1.125 -4.167,2.375 -6.25,3.666l-2,1.334l-4.167,2.666c-5.375,3.584 -10.666,7.334 -16.125,10.834c-1.375,0.875 -2.75,1.75 -4.166,2.541c-2.959,1.75 -6,3.417 -9.125,4.917c-1.334,0.667 -2.625,1.25 -4.167,1.792l-2.25,0.875l-2.083,0.708c-4.889,1.701 -9.904,3.011 -15,3.917l-0,351l-205.542,-0c0,0.416 0.292,0.75 0.417,1.166c1.125,3.334 2.25,6.625 3.333,9.959l202.083,-0l0,384.833l3.125,-0l3.625,0.208l6.542,0.375l10.458,1.25l4.792,0.459l5.208,0.541l0.792,0l9.208,1.125l1.959,0.25l4.458,0.625l6.375,0.917l15.292,-0.667l2.083,0.375c0.833,0 1.708,0.25 2.583,0.417l0,-390.625l318.084,0l-0,-1.667c0.416,-3.083 0.833,-6.125 1.208,-9.166c-0.02,-0.097 -0.02,-0.196 0,-0.292l-318.958,-0Z" style="fill:#08c;fill-opacity:0.1;fill-rule:nonzero;"/><path d="M1118.83,358.417l5.959,-0c-3.993,-1.69 -6.782,-5.403 -7.292,-9.709c0,-7.666 11.458,-13.916 25.458,-13.916l178.167,-0c14,-0 25.417,6.25 25.417,13.916c-0,7.625 -11.417,13.917 -25.417,13.917l-5.958,0c3.997,1.66 6.793,5.367 7.291,9.667c0,6.541 -8.333,12.041 -19.458,13.5l51.292,-0c13.958,-0 25.416,6.25 25.416,13.916c0,7.667 -11.458,13.917 -25.416,13.917l-178.209,0c-13.958,0 -25.416,-6.292 -25.416,-13.917c-0,-6.541 8.333,-12 19.458,-13.5l-51.292,0c-14,0 -25.416,-6.25 -25.416,-13.916c-0,-7.667 11.416,-13.875 25.416,-13.875Z" style="fill:#08c;fill-opacity:0.1;fill-rule:nonzero;"/><path d="M3049.83,490.792l5.959,-0c-3.977,-1.701 -6.749,-5.413 -7.25,-9.709c-0,-7.666 11.416,-13.916 25.416,-13.916l178.167,-0c14,-0 25.458,6.25 25.458,13.916c0,7.625 -11.458,13.875 -25.458,13.875l-5.917,0c3.977,1.701 6.749,5.413 7.25,9.709c0,6.541 -8.333,12.041 -19.458,13.5l51.292,-0c14,-0 25.416,6.25 25.416,13.916c0,7.667 -11.416,13.917 -25.416,13.917l-178.167,0c-14,0 -25.458,-6.292 -25.458,-13.917c-0,-6.541 8.333,-12.041 19.458,-13.5l-51.292,0c-13.958,0 -25.416,-6.25 -25.416,-13.916c-0,-7.667 11.458,-13.875 25.416,-13.875Z" style="fill:#08c;fill-opacity:0.1;fill-rule:nonzero;"/><path d="M845.375,1057.29l5.917,-0c-3.983,-1.694 -6.757,-5.409 -7.25,-9.709c-0,-7.625 11.458,-13.916 25.416,-13.916l178.209,-0c13.958,-0 25.416,6.291 25.416,13.916c0,7.667 -11.458,13.917 -25.416,13.917l-5.959,0c3.987,1.665 6.768,5.373 7.25,9.667c0,6.541 -8.333,12.041 -19.458,13.5l51.292,-0c14,-0 25.458,6.291 25.458,13.916c0,7.625 -11.458,13.917 -25.458,13.917l-178,0c-14,0 -25.417,-6.25 -25.417,-13.917c0,-6.5 8.333,-12 19.458,-13.5l-51.458,0c-14,0 -25.458,-6.25 -25.458,-13.916c-0,-7.667 11.625,-13.875 25.458,-13.875Z" style="fill:#08c;fill-opacity:0.1;fill-rule:nonzero;"/><path d="M2454.83,2185.42c29.91,-146.36 445.225,-185.274 926.865,-86.845c481.641,98.429 848.389,297.166 818.479,443.526c-29.911,146.36 -445.225,185.274 -926.866,86.845c-481.641,-98.428 -848.388,-297.166 -818.478,-443.526Z" style="fill:#08c;fill-opacity:0.1;"/><path d="M3226.88,1603.67c0,-0 47.375,-232.542 228.25,-211c-0,-0 125,8.583 150.708,90.416l0,180.875l-378.958,-60.291Z" style="fill:#3a3768;fill-rule:nonzero;"/><path d="M4217.42,1689.83l-1610.71,-133.541l-206.708,43.083l12.917,288.542l14.083,1.708l16.042,433.292l1580.54,284.208l168,-142.125l0,-469.708l21.5,-12.625l4.334,-292.834Z" style="fill:#d48a9b;fill-rule:nonzero;"/><path d="M4219.58,1689.83l-4.333,292.834l-174.417,81.833l-2.166,-305.792l180.916,-68.875Z" style="fill-opacity:0.05;fill-rule:nonzero;"/><path d="M4191.58,1995.58l2.125,460.834l-167.958,142.125l10.792,-534.042l155.041,-68.917Z" style="fill-opacity:0.05;fill-rule:nonzero;"/><path d="M2429.17,1906.88l1608.67,196.292l0.834,-37.25l-1610.71,-173.709l1.209,14.667Z" style="fill-opacity:0.05;fill-rule:nonzero;"/><path d="M4191.58,2012.5l0,-16.917l-159.375,70.334l0,37.333l159.375,-90.75Z" style="fill-opacity:0.05;fill-rule:nonzero;"/><path d="M2397.83,1599.38l206.709,-43.083l1610.71,133.541l-180.875,68.875l-1636.54,-159.333Z" style="fill:#efc6cd;fill-rule:nonzero;"/><path d="M4043.67,1698.13l79.041,5.167l-131,39.208l-66.708,-4.792l118.667,-39.583Z" style="fill-opacity:0.1;fill-rule:nonzero;"/><path d="M4043.67,1694.67l79.041,5.166l-131,39.25l-66.708,-4.833l118.667,-39.583Z" style="fill:#fff;fill-rule:nonzero;"/><path d="M4034.21,1703.54c3.125,-1.334 6.417,1.208 9.75,1.833c1.917,0.375 3.875,-0 5.792,0.375c3.875,0.5 7.708,3.083 11.417,1.792" style="fill:#d3dae1;fill-rule:nonzero;"/><path d="M4030.13,1705.92c3.083,-1.334 6.417,1.166 9.75,1.833c1.917,0.333 3.875,-0 5.792,0.333c3.875,0.542 7.708,3.125 11.416,1.834" style="fill:#d3dae1;fill-rule:nonzero;"/><path d="M4020.71,1710.67c3.125,-1.334 6.459,1.166 9.792,1.791c1.875,0.375 3.875,0 5.75,0.375c3.917,0.542 7.75,3.125 11.417,1.792" style="fill:#d3dae1;fill-rule:nonzero;"/><path d="M3702,1659.21l79.042,5.209l-131,39.208l-66.709,-4.833l118.667,-39.584Z" style="fill-opacity:0.1;fill-rule:nonzero;"/><path d="M3702,1655.79l79.042,5.166l-131,39.209l-66.709,-4.792l118.667,-39.583Z" style="fill:#fff;fill-rule:nonzero;"/><path d="M3692.54,1664.67c3.125,-1.334 6.416,1.166 9.75,1.833c1.916,0.333 3.875,0 5.791,0.333c3.875,0.542 7.709,3.125 11.417,1.834" style="fill:#d3dae1;fill-rule:nonzero;"/><path d="M3688.46,1667.04c3.084,-1.334 6.417,1.166 9.75,1.791c1.917,0.375 3.875,0 5.792,0.375c3.875,0.542 7.708,3.125 11.417,1.792" style="fill:#d3dae1;fill-rule:nonzero;"/><path d="M3679.04,1671.75c3.125,-1.333 6.458,1.208 9.791,1.833c1.875,0.375 3.875,0 5.75,0.375c3.917,0.5 7.75,3.125 11.417,1.792" style="fill:#d3dae1;fill-rule:nonzero;"/><path d="M3865.88,1678.67l79.083,5.166l-131,39.25l-66.75,-4.833l118.667,-39.583Z" style="fill-opacity:0.1;fill-rule:nonzero;"/><path d="M3865.88,1675.25l79.083,5.167l-131,39.208l-66.75,-4.833l118.667,-39.542Z" style="fill:#fff;fill-rule:nonzero;"/><path d="M3856.42,1684.13c3.125,-1.333 6.458,1.167 9.791,1.792c1.875,0.375 3.834,-0 5.75,0.375c3.875,0.5 7.75,3.125 11.417,1.791" style="fill:#d3dae1;fill-rule:nonzero;"/><path d="M3852.33,1686.46c3.125,-1.333 6.459,1.209 9.792,1.834c1.875,0.375 3.833,-0 5.75,0.375c3.875,0.5 7.75,3.125 11.417,1.791" style="fill:#d3dae1;fill-rule:nonzero;"/><path d="M3842.96,1691.21c3.084,-1.333 6.417,1.167 9.75,1.834c1.917,0.333 3.875,-0 5.792,0.333c3.875,0.542 7.708,3.125 11.417,1.833" style="fill:#d3dae1;fill-rule:nonzero;"/><ellipse cx="2076.33" cy="3123.75" rx="843.667" ry="173.667" style="fill:#08c;fill-opacity:0.1;"/><path d="M3000.21,1701.58c-9,-79.083 -44.625,-154.541 -44.625,-154.541l2.709,-26.667c-0,0 0.583,-13.333 -0.292,-33.333c0.096,-12.487 1.733,-24.915 4.875,-37c7.292,-23.125 -9.125,-51.542 -10.958,-54.167c-1.834,-2.625 0.916,-53.333 -15.5,-78.208c-16.417,-24.875 -125.75,-71.125 -125.75,-71.125c-0,-0 -5.875,-12.292 -14.167,-26.667l0.75,-1.458c-6.784,-12.307 -15.193,-23.645 -25,-33.709c-6.708,-7.166 -13.167,-11.25 -18.375,-9.25c-2.118,-6.916 -3.734,-13.976 -4.833,-21.125c1.083,0.292 2.208,0.584 3.291,0.792c4.513,1.047 9.192,1.16 13.75,0.333c10.167,-2.291 16.917,-11.416 22.584,-20c28.25,-42.916 52.583,-90 57.541,-140.791c1.333,-10.367 0.839,-20.887 -1.458,-31.084c-2.344,-7.927 -5.616,-15.549 -9.75,-22.708c-7.303,-14.688 -16.553,-28.325 -27.5,-40.542c-19.458,-20.5 -46.292,-33.041 -73.875,-40.458c-31.073,-8.356 -63.447,-10.774 -95.417,-7.125c-8.333,0.958 -16.666,2.333 -25,2.875c-10.57,0.466 -21.159,0.285 -31.708,-0.542l-54.542,-3.166l-0.25,-0.834l-9.083,-0.541c-3.583,7.125 -0,15.583 4.458,22.25c4.459,6.666 9.584,13.625 9.209,21.5c-0.375,7.875 -6.084,14.208 -10.542,20.833c-4.458,6.625 -7.833,15.292 -3.375,21.792c0.627,0.899 1.369,1.711 2.208,2.416c4.709,4.875 12.917,5.417 20.042,5.334l1.25,-0c-17.94,23.628 -27.647,52.499 -27.625,82.166c0.246,51.616 29.396,98.96 75.375,122.417c0.792,2.708 1.583,5.5 2.333,8.333c8.26,29.267 11.223,59.775 8.75,90.084l-0.958,2.083l-0.583,-2.208c-0,-0 -64.25,43.583 -83.334,55.125c-19.083,11.541 -38.25,50.666 -39.166,61.333c-0.917,10.667 -31,171.542 -31,171.542c-6.114,16.206 -11.153,32.797 -15.084,49.666l-38.375,33.709c0,-0 -79.166,7.125 -102.083,1.791l0.667,4.417c-20.209,-4.613 -40.792,-7.402 -61.5,-8.333c-11.309,-1.454 -22.804,0.083 -33.334,4.458l-0.791,0.375l-0.625,0.292c-12.064,1.649 -23.843,4.958 -35,9.833c-1.334,0.542 -2.542,1.083 -3.709,1.625l0.25,-5.458l-85.666,-4.417l-43.75,-8.875c-0,0 -15.5,-12.5 -24.625,-10.667c-9.125,1.834 -28.25,-10.666 -28.25,-10.666c-4.363,-3.419 -9.086,-6.353 -14.084,-8.75c-1.458,-10.084 -2.375,-16.209 -2.375,-16.209c0,0 -34.041,-135.083 -59.541,-214.5c-17.084,-53.041 -41.667,-79.166 -56.167,-90.541c-6.458,-11.25 -10.708,-18.5 -10.708,-18.5c-2.792,-9.75 -18.125,-31.709 -22.042,-32.25c-0.625,-1 -1.083,-1.5 -1.333,-1.5c-0.838,-0.09 -1.685,0.039 -2.459,0.375c-7.166,-35.667 -11.333,-80.375 -0.375,-119.334c30.355,-24.946 48.008,-62.21 48.084,-101.5l-0,-3.541c-0.009,-30.958 -10.981,-60.935 -30.959,-84.584l-1.416,-1.583c0.379,-0.269 0.741,-0.561 1.083,-0.875c6.37,-5.166 9.401,-13.442 7.875,-21.5c-1.875,-8 -8.125,-14.292 -11.333,-21.875c-1.927,-5.838 -3.472,-11.795 -4.625,-17.833c-2.455,-8.576 -6.96,-16.428 -13.125,-22.875l0.625,1.666c-16.334,-18.375 -44.417,-27.5 -69.709,-23.416c-18.791,3 -36.291,11.75 -55.166,14.458c-13.542,1.917 -27.334,0.667 -40.959,2.042c-12.641,1.3 -24.947,4.856 -36.333,10.5c-2.974,1.265 -5.613,3.205 -7.708,5.666c-1.938,3.298 -3.239,6.931 -3.834,10.709c-4.625,16.875 -19.291,28.916 -29.916,43c-12.136,16.088 -19.163,35.456 -20.167,55.583c-0.415,5.116 0.079,10.265 1.458,15.208c0.917,2.959 2.334,5.75 3,8.75c2.084,9.167 -2.708,18.292 -5.041,27.375c-2.939,11.585 -1.897,23.829 2.958,34.75c16.458,36.834 70.5,49.125 81.75,87.792c8.607,3.957 17.7,6.759 27.042,8.333c0.75,3.834 1.416,7.709 1.958,11.625c-0.253,0.107 -0.492,0.248 -0.708,0.417c-14.584,14.208 -18.209,41.667 -18.209,41.667l-1.75,1.416c-5.958,4.917 -26.333,21.417 -44.75,34.125c-21.875,15.125 -58.333,65.792 -83.833,80.917c-25.5,15.125 -46.5,108.333 -41,142.208c5.5,33.875 28.25,128.875 19.125,163.542c-9.125,34.667 13.667,192.875 13.667,192.875c15.294,2.913 30.258,7.352 44.666,13.25l-0.458,6.917l-1.375,20.833c0,0 -41.292,149.333 -25.5,264.292c15.792,114.958 -7.292,126.791 -7.292,126.791c0,0 4.834,50.959 -7.291,68.75c-12.125,17.792 -14.584,56.875 -14.584,56.875c0,0 -1.208,87.709 1.209,112.5c2.416,24.792 3.625,69.959 -4.875,80.625c-8.5,10.667 -24.292,80.542 -23.084,101.875c1.209,21.334 -30.375,69.959 -13.375,132.75c17,62.792 -50,64 -50,64c0,0 8.542,95.834 26.75,123.25l2.667,3.917c-0.458,1.583 -0.917,3.25 -1.417,5.042c-6.875,25 -16.291,64.458 -9.75,74c9.709,14.25 14.584,11.833 14.584,11.833l3.625,64c-0,0 72.916,61.625 128.833,59.292c55.917,-2.334 44.958,-59.292 44.958,-59.292l-47.625,-123.5l-1.625,-4.167l52.917,-100c0,0 14.583,-43.833 18.208,-59.25c3.625,-15.416 23.417,-70.041 23.417,-70.041c0,-0 50,-118.5 51.042,-132.75c1.041,-14.25 4.875,-91.209 14.583,-106.667c9.708,-15.458 36.458,-104.167 36.458,-104.167l0.667,0.584c9.233,9.071 12.733,22.539 9.083,34.958c-6.125,22.5 -2.458,68.708 -2.458,68.708c0,0 -2.417,39.125 -7.292,59.292c-4.875,20.167 -6.041,184.875 2.459,223.958c6.791,31.292 6.583,89.875 6.25,112.042c-5.709,23.542 -10.709,52.792 -1.417,56.25c15.833,5.958 96.042,4.75 96.042,4.75c-0,0 34,-11.875 80.208,29.625c46.208,41.5 188.333,-11.833 188.333,-11.833c0,-0 43.75,-11.875 -42.541,-46.209c-60.209,-23.958 -99.084,-39.916 -124.5,-57c0.583,-1.125 1.208,-2.25 1.75,-3.458c-0,0 -35.25,-33.333 -6.084,-92.417c29.167,-59.083 27.959,-109.041 27.959,-109.041l4.875,-199.125l-14.584,-264.334l-11.291,-277.416l2,-0.667c1.916,51 11.875,172.417 64,148.875c65.625,-29.625 9.708,-106.667 9.708,-106.667l-29.458,-57.416l8.791,-3l-32.958,-106.5c-3.163,-20.786 -3.583,-41.897 -1.25,-62.792c0.652,-12.224 0.402,-24.48 -0.75,-36.667c43.167,-7.541 84.5,-15.541 91.917,-13.708c8.75,2.125 57.708,2.542 76.958,2.625c-6.292,4.917 -11.333,9.792 -11.333,9.792l78.375,52.75c-0,-0 26.583,-14.542 32.125,-29.959c5.453,-1.379 10.487,-4.068 14.666,-7.833c0.834,18.208 5.667,37.917 22.5,38.375c4.21,0.088 8.389,-0.736 12.25,-2.417l128.167,-25.375l-11,68.709l7.667,13.625c-3.875,57.958 -8.334,119.5 -12.25,173.625l-1.792,11.833l0.917,0.208c-6.084,83.334 -10.959,146.459 -10.959,146.459c7.178,-13.678 18.319,-24.876 31.959,-32.125l0.833,123.666c0,0 6.417,195.542 6.417,222.209c-0,26.666 0.875,86.208 0.875,86.208c-0,-0 13.708,72.875 21.875,96.875c8.166,24 14.583,133.333 14.583,133.333c0,0 19.167,30.209 10.958,41.667c-8.208,11.458 31.917,36.417 31.917,36.417c0,-0 -25.542,34.666 -27.375,57.791c-0.208,2.667 2.417,5.5 7.167,8.334c-1.5,1.208 -3.042,2.416 -4.75,3.583c-11.834,7.917 -29.167,13.417 -55.25,11.167c-71.125,-6.25 -121.25,59.541 -77.5,72.875c43.75,13.333 175,16 175,16c-0,-0 39.75,-24.792 70.833,-13.625c-0.458,26.083 0.833,50 1.042,53.166l-0.375,0.292c-18.584,16.667 -54.167,45.333 -88.917,57.042c-50,16.875 -61.083,85.333 3.625,94.208c64.708,8.875 159.5,-10.667 159.5,-10.667c0,0 49.208,-36.416 86.583,-44.416c37.375,-8 69.292,-25.792 62.917,-47.125c-4.167,-13.625 -14.875,-49.334 -22.125,-73.334c-0.417,-1.444 -0.833,-2.833 -1.25,-4.166c1.125,-2.5 2.25,-5.084 3.292,-7.75c-0,-0 -19.125,-99.542 -3.625,-124.417c15.5,-24.875 7.291,-273.792 7.291,-273.792c0,0 -26.458,-63.083 -12.75,-101.291c13.709,-38.209 -21.875,-92.459 -21.875,-92.459c0,0 3.875,-108.708 14.292,-169.291c0.472,-2.584 0.931,-5.084 1.375,-7.5c17.44,-5.177 34.439,-11.739 50.833,-19.625c16.395,-7.886 9.125,-136.917 14.584,-168c0.541,-2.917 1.291,-7.625 2.208,-13.75l4.167,-21.959l4.916,-25l16.667,-85.208l30.083,-38.917l77.5,-79.166c0,-0 18.625,-41.834 9.5,-120.959Zm-1195.17,-488.875l-0.584,0.417c-0.089,-0.301 -0.158,-0.607 -0.208,-0.917c0.242,0.199 0.508,0.367 0.792,0.5Zm765.708,97.042l-3,6.542l10.958,-10.917l-14.875,16.667l5,-10.5l1.917,-1.792Zm-74,152.917c-2.875,7.625 -5.958,15.875 -9.167,24.458l5.875,-17.542l3.292,-6.916Z" style="fill:url(#_Linear1);fill-rule:nonzero;"/><path d="M2257.63,1711.96c0,0 -10.208,67.959 20.417,68.834c30.625,0.875 51.083,-52.417 51.083,-52.417l-12.5,-42.625l-59,26.208Z" style="fill:#585b8a;fill-rule:nonzero;"/><path d="M2257.63,1711.96c0,0 -10.208,67.959 20.417,68.834c30.625,0.875 51.083,-52.417 51.083,-52.417l-12.5,-42.625l-59,26.208Z" style="fill-opacity:0.2;fill-rule:nonzero;"/><path d="M1571.67,3182.96c-54.5,2.375 -125.584,-59.208 -125.584,-59.208l-3.541,-63.958c-0,-0 -4.709,2.375 -14.209,-11.834c-6.375,-9.541 2.792,-49.083 9.5,-73.958c3.25,-12.167 5.917,-20.833 5.917,-20.833l119.583,32l5.709,15.125l46.416,123.416c0,0 10.667,56.875 -43.791,59.25Z" style="fill:#636992;fill-rule:nonzero;"/><path d="M2121.13,3001.79c0,-0 -138.542,53.291 -183.333,11.833c-44.792,-41.458 -78.167,-29.625 -78.167,-29.625c0,0 -78.167,1.208 -93.583,-4.75c-9.084,-3.458 -4.167,-33.083 1.5,-56.667c3.833,-16.291 8,-29.75 8,-29.75c-0,0 136.166,-46.208 157.5,-17.791c6.407,8.349 14.067,15.657 22.708,21.666c24.667,17.834 63.208,34 124.167,58.875c83.833,34.334 41.208,46.209 41.208,46.209Z" style="fill:#636992;fill-rule:nonzero;"/><path d="M1996.79,1919.33l37.875,75.792c-0,0 54.5,77 -9.459,106.583c-63.958,29.584 -62.75,-170.5 -62.75,-170.5l34.334,-11.875Z" style="fill:#ffd6d6;fill-rule:nonzero;"/><path d="M1838.08,1262.08c0,0 41.459,18.959 66.334,98.292c24.875,79.333 58.041,214.375 58.041,214.375c0,0 22.5,152.75 18.917,190.667c-2.28,20.882 -1.874,41.971 1.208,62.75l31.959,106.583l-63.959,22.5l-98.291,-376.583l-14.209,-318.584Z" style="fill:#dce6f2;fill-rule:nonzero;"/><path d="M1838.08,1262.08c0,0 41.459,18.959 66.334,98.292c24.875,79.333 58.041,214.375 58.041,214.375c0,0 22.5,152.75 18.917,190.667c-2.28,20.882 -1.874,41.971 1.208,62.75l31.959,106.583l-63.959,22.5l-98.291,-376.583l-14.209,-318.584Z" style="fill-opacity:0.05;fill-rule:nonzero;"/><path d="M1563.33,2985.21l5.709,15.125l-7,13.375c-27.25,11.834 -94.75,2.375 -94.75,2.375c-0,0 -12.5,-15.875 -29.584,-42c3.25,-12.166 5.917,-20.833 5.917,-20.833l119.708,31.958Z" style="fill-opacity:0.1;fill-rule:nonzero;"/><path d="M1960.08,2902.29c-34.541,78.25 -151.958,49.208 -184.583,39.416c-5.375,-1.625 -8.333,-2.708 -8.333,-2.708c-0,0 0.208,-6.375 0.291,-16.417c3.834,-16.291 8,-29.75 8,-29.75c0,0 136.167,-46.208 157.5,-17.791c6.408,8.349 14.068,15.657 22.709,21.666c1.304,1.988 2.782,3.857 4.416,5.584Z" style="fill-opacity:0.1;fill-rule:nonzero;"/><path d="M1954.13,2802.83c-28.417,59.167 5.958,92.375 5.958,92.375c-34.541,78.209 -151.958,49.209 -184.583,39.375c-5.375,-1.583 -8.333,-2.666 -8.333,-2.666c-0,-0 2.375,-81.75 -5.917,-120.834c-8.292,-39.083 -7.125,-203.666 -2.375,-223.791c4.75,-20.125 7.083,-59.25 7.083,-59.25c0,-0 -3.541,-46.167 2.375,-68.667c3.621,-12.363 0.231,-25.763 -8.833,-34.917l-0.625,-0.625c0,0 -26.042,88.834 -35.542,104.167c-9.5,15.333 -13,92.375 -14.208,106.583c-1.208,14.209 -49.75,132.667 -49.75,132.667c0,0 -18.917,54.458 -22.458,69.833c-3.542,15.375 -17.792,59.25 -17.792,59.25l-57.083,110.167c-27.25,11.833 -94.75,2.375 -94.75,2.375c-0,0 -13,-16.667 -30.792,-43.833c-17.792,-27.167 -26.042,-123.125 -26.042,-123.125c0,-0 65.125,-1.209 48.542,-63.959c-16.583,-62.75 14.208,-111.333 13.042,-132.666c-1.167,-21.334 14.208,-91.167 22.5,-101.834c8.291,-10.666 7.083,-55.666 4.708,-80.541c-2.375,-24.875 -1.167,-112.5 -1.167,-112.5c0,-0 2.375,-39.084 14.209,-56.834c11.833,-17.75 7.125,-68.708 7.125,-68.708c-0,0 22.458,-11.833 7.083,-126.708c-15.375,-114.875 25,-264.084 25,-264.084l1.375,-20.833l2.167,-33.75c-0,0 338.708,-21.333 365.958,4.708c7.123,7.228 12.969,15.611 17.292,24.792c9.322,20.041 15.909,41.245 19.583,63.042l14.208,358.833l14.209,264.083l-4.75,198.959c-0,-0 1.041,49.666 -27.417,108.916Z" style="fill:#565988;fill-rule:nonzero;"/><path d="M1853.71,2094.63l-35.541,769.75l-42.667,70.167c-5.375,-1.584 -8.333,-2.667 -8.333,-2.667c-0,0 2.375,-81.75 -5.917,-120.833c-8.292,-39.084 -7.125,-203.667 -2.375,-223.792c4.75,-20.125 7.083,-59.25 7.083,-59.25c0,0 -3.541,-46.167 2.375,-68.667c3.621,-12.362 0.231,-25.763 -8.833,-34.916l0.583,-4.167l93.625,-325.625Z" style="fill-opacity:0.1;fill-rule:nonzero;"/><path d="M1470.96,2921.25c0,0 92.375,-36.708 106.584,-25c14.208,11.708 -108.917,29.583 -108.917,29.583l2.333,-4.583Z" style="fill-opacity:0.1;fill-rule:nonzero;"/><path d="M1926.92,2824.13c-3.542,1.208 -93.542,33.333 -85.25,67.5c8.291,34.167 85.25,-67.5 85.25,-67.5Z" style="fill-opacity:0.1;fill-rule:nonzero;"/><path d="M1645.67,1072.04c-0,-0 30.166,72.833 14.208,110.166c-15.958,37.334 172.292,101.25 172.292,101.25c-0,0 -55.042,-142.125 -1.75,-222.083c53.291,-79.958 -184.75,10.667 -184.75,10.667Z" style="fill:#ffd6d6;fill-rule:nonzero;"/><path d="M2747.92,3180.58c-36.417,8 -84.375,44.417 -84.375,44.417c-0,0 -92.375,19.542 -155.459,10.667c-63.083,-8.875 -52.375,-77.292 -3.541,-94.167c33.875,-11.667 68.583,-40.458 86.708,-56.958c8,-7.375 12.75,-12.5 12.75,-12.5l176.792,-35.542c-0,0 2.875,9.875 6.875,23.5c7.083,24.042 17.541,59.708 21.541,73.292c6.209,21.541 -24.875,39.291 -61.291,47.291Z" style="fill:#505484;fill-rule:nonzero;"/><path d="M2702.63,3043.79c0,-0 -74.625,8 -105.708,-9.75c-31.084,-17.75 -75.5,10.666 -75.5,10.666c-0,0 -127.917,-2.666 -170.542,-16c-42.625,-13.333 6.208,-79.166 75.5,-72.833c25.25,2.292 42.333,-3.25 53.875,-11.167c12.052,-8.261 20.461,-20.865 23.458,-35.166l150,8.875l20.834,53.166l28.083,72.209Z" style="fill:#505484;fill-rule:nonzero;"/><path d="M2676.83,2995.83c0,0 -174.333,-28.5 -196.583,-51.125c12.052,-8.261 20.461,-20.865 23.458,-35.166l150,8.875l20.834,53.166l2.291,24.25Z" style="fill-opacity:0.1;fill-rule:nonzero;"/><path d="M2418.38,1998.42l1.792,260.208c-0,0 6.208,195.417 6.208,222.083c0,26.667 0.875,86.125 0.875,86.125c0,0 13.333,72.834 21.333,96.834c8,24 14.209,133.333 14.209,133.333c-0,0 18.666,30.208 10.666,41.667c-8,11.458 31.084,36.416 31.084,36.416c-0,0 -25,34.667 -26.625,57.75c-1.625,23.084 198.916,55.875 198.916,55.875l-78.125,-801.125l-62.208,-200.708l-118.125,11.542Z" style="fill:#575988;fill-rule:nonzero;"/><path d="M2418.38,1998.42l1.792,260.208c-0,0 6.208,195.417 6.208,222.083c0,26.667 0.875,86.125 0.875,86.125c0,0 13.333,72.834 21.333,96.834c8,24 14.209,133.333 14.209,133.333c-0,0 18.666,30.208 10.666,41.667c-8,11.458 31.084,36.416 31.084,36.416c-0,0 -25,34.667 -26.625,57.75c-1.625,23.084 198.916,55.875 198.916,55.875l-78.125,-801.125l-62.208,-200.708l-118.125,11.542Z" style="fill-opacity:0.1;fill-rule:nonzero;"/><path d="M2787.67,3060.21c-58.042,138.375 -196.084,31.584 -196.084,31.584c0,-0 0,-2.667 -0.333,-7.25c8,-7.375 12.75,-12.5 12.75,-12.5l176.792,-35.542c-0,0 2.875,10.083 6.875,23.708Z" style="fill-opacity:0.1;fill-rule:nonzero;"/><path d="M2789.67,3048.25c-56.875,145.833 -198.084,36.417 -198.084,36.417c0,-0 -4.458,-75.5 4.459,-110.125c8.916,-34.625 -9.792,-138.584 -9.792,-138.584c0,0 -10.667,-92.375 -20.417,-113.666c-9.75,-21.292 -8.875,-63.959 -8.875,-67.5c0,-3.542 3.542,-32 -4.458,-51.542c-8,-19.542 -12.5,-67.5 -12.5,-67.5c0,0 0,-67.5 -8,-107.458l-27.542,-137.5l-49.75,-281.584l15.542,-2.666l278.458,-48.834c0,0 52.417,266.667 34.625,294c-3.833,6 -7.208,19.125 -10,36.042c-10.166,60.5 -13.958,169.125 -13.958,169.125c0,0 34.625,54.167 21.333,92.375c-13.291,38.208 12.5,101.25 12.5,101.25c0,0 8,248.708 -7.125,273.583c-15.125,24.875 3.584,124.167 3.584,124.167Z" style="fill:#575988;fill-rule:nonzero;"/><path d="M2763,1230.13c0,0 -252.25,177.625 -195.417,88.792c30.625,-47.834 25,-108.75 13,-154.75c-6.066,-23.397 -14.441,-46.133 -25,-67.875c-10.559,-21.742 214.334,-91.167 185.917,-9.459c-6.659,19.036 -9.491,39.201 -8.333,59.334c1.702,30.261 12.059,59.407 29.833,83.958Z" style="fill:#d28690;fill-rule:nonzero;"/><path d="M2308.83,1636.92c0,-0 -106.583,-30.792 -124.333,-0.584c-17.75,30.209 5.333,96.5 37.5,107.167c32.167,10.667 106,-36.125 106,-36.125l-19.167,-70.458Z" style="fill:#d28690;fill-rule:nonzero;"/><path d="M2430.83,1584.54l-44.416,40.875c-0,-0 -77.292,7.083 -99.5,1.75c-0,-0 20.458,136.791 -8.875,153.666l179.416,-36.416l-26.625,-159.875Z" style="fill:#585b8a;fill-rule:nonzero;"/><path d="M2430.83,1584.54l-44.416,40.875c-0,-0 -77.292,7.083 -99.5,1.75c-0,-0 20.458,136.791 -8.875,153.666l179.416,-36.416l-26.625,-159.875Z" style="fill-opacity:0.1;fill-rule:nonzero;"/><path d="M1860.58,997.417c0,73.144 -60.188,133.333 -133.333,133.333c-68.417,-32.875 -133.333,-59.625 -133.333,-133.333c-0.07,-1.756 -0.104,-3.513 -0.104,-5.27c-0,-73.144 60.188,-133.333 133.333,-133.333c73.144,-0 133.333,60.189 133.333,133.333c0,1.757 -0.035,3.514 -0.104,5.27l0.208,-0Z" style="fill-opacity:0.1;fill-rule:nonzero;"/><path d="M1860.58,993.833c0,0.029 0,0.057 0,0.085c0,73.007 -60.076,133.083 -133.083,133.083c-73.007,0 -133.083,-60.076 -133.083,-133.083c-0,-73.008 60.076,-133.083 133.083,-133.083c39.845,-0 77.655,17.894 102.917,48.707c19.465,23.775 30.126,53.564 30.166,84.291Z" style="fill:#ffd6d6;fill-rule:nonzero;"/><path d="M1938.29,1809.13c-13.192,8.192 -26.997,15.352 -41.292,21.417c-14.295,6.064 -67.5,-9.792 -77.25,1.75c-9.75,11.541 -95.833,16 -95.833,16c-0,-0 -131.459,-6.209 -151,-23.084c-6.043,-4.893 -12.766,-8.879 -19.959,-11.833l2.167,-33.75c-0,0 338.708,-21.333 365.958,4.708c7.093,7.235 12.912,15.617 17.209,24.792Z" style="fill-opacity:0.1;fill-rule:nonzero;"/><path d="M1954.75,1785.25c-2.667,15.083 -57.75,38.167 -57.75,38.167c0,-0 -67.5,-9.75 -77.25,1.791c-9.75,11.542 -95.833,16 -95.833,16c-0,0 -131.459,-6.25 -151,-23.125c-19.542,-16.875 -63.084,-25 -63.084,-25c0,0 -22.208,-158.083 -13.291,-192.708c8.916,-34.625 -13.334,-129.708 -18.667,-163.458c-5.333,-33.75 15.083,-127 39.958,-142.084c24.875,-15.083 60.417,-65.75 81.709,-80.833c17.958,-12.708 37.791,-29.167 43.583,-34.125l1.708,-1.417c0,0 3.584,-27.541 17.792,-41.666c14.208,-14.125 144.75,89.708 144.75,89.708c-0,0 0.917,8 9.792,-7.083c2,-3.375 19.208,21.458 22.208,31.958c-0,0 71.042,124.375 75.5,150c4.458,25.625 23.083,109.25 26.625,129.667c0.917,5.25 2.417,23.666 4.167,48.333c0.333,4.833 0.625,9.958 1,15.292c2.625,40.916 5.458,93.166 7.166,132.666c0,4.5 0.375,8.834 0.5,13c0.9,14.956 1.039,29.947 0.417,44.917Z" style="fill:#dce6f2;fill-rule:nonzero;"/><path d="M1503.71,1464.58c0,0 48.834,59.5 64.834,59.5c16,0 -64.834,-59.5 -64.834,-59.5Z" style="fill-opacity:0.1;fill-rule:nonzero;"/><path d="M1606.58,1592.5c0,0 -79.958,87.042 -69.291,103.042c10.666,16 69.291,-103.042 69.291,-103.042Z" style="fill-opacity:0.1;fill-rule:nonzero;"/><path d="M1547.96,1765.71c0,0 91.667,-100.375 95.834,-135l-95.834,135Z" style="fill-opacity:0.1;fill-rule:nonzero;"/><path d="M1663.42,1772.79c-0,-0 105.708,-55.959 114.583,-100.375c8.875,-44.417 -114.583,100.375 -114.583,100.375Z" style="fill-opacity:0.1;fill-rule:nonzero;"/><path d="M1797.54,1232.79l-14.667,35.5l24.417,11.541l24,67.084c-0,-0 66.166,132.333 63.5,201.166c-2.667,68.834 12,172.292 12,172.292l38.166,-7.083l-18,-202.459c-2.802,-31.346 -10.654,-62.034 -23.25,-90.875c-30.5,-69.833 -87.25,-198.75 -90.833,-198.75c-4.875,0 -1.458,1.792 -1.458,1.792l-13.875,9.792Z" style="fill-opacity:0.1;fill-rule:nonzero;"/><path d="M1801.08,1229.21l-14.666,35.542l24.458,11.542l23.958,67.083c0,0 66.167,132.333 63.5,201.167c-2.666,68.833 12,172.291 12,172.291l38.209,-7.083l-18.042,-202.458c-2.77,-31.348 -10.608,-62.039 -23.208,-90.875c-30.5,-69.875 -87.25,-198.75 -90.792,-198.75c-4.917,-0 -1.5,1.791 -1.5,1.791l-13.917,9.75Z" style="fill:#575989;fill-rule:nonzero;"/><path d="M2233.63,1751.21c-18.583,-1.416 -63.167,-23.958 -80.875,-33.333l-7.5,-4.167l0.917,-68.791c4.378,-2.575 8.915,-4.871 13.583,-6.875c23.667,-10.334 72.208,-24.375 96.542,20.833c32.833,60.625 0.875,93.917 -22.667,92.333Z" style="fill:#ffd6d6;fill-rule:nonzero;"/><path d="M1830.42,909.542c-1.909,1.195 -4.009,2.055 -6.209,2.541c-15.458,3.375 -33.041,-9.916 -46.291,-1.375c-8.084,5.25 -9.959,16.125 -11.042,25.709c-1.889,16.666 -3.778,33.222 -5.667,49.666c-0.396,5.855 -1.631,11.622 -3.666,17.125c-6.542,14.959 -24.5,22 -40.875,21.75c-6.412,0.457 -12.752,-1.641 -17.625,-5.833c-2.875,-2.917 -4.417,-7 -7.584,-9.667c-20.833,-17.458 -27.166,25.334 -21.666,37.5c8.833,19.875 40.208,39.042 27.041,64.292c-2.214,4.103 -5.573,7.477 -9.666,9.708c-55.473,-17.372 -93.486,-69.11 -93.486,-127.239c0,-73.145 60.189,-133.334 133.334,-133.334c40.08,0 78.097,18.073 103.402,49.157Z" style="fill-opacity:0.1;fill-rule:nonzero;"/><path d="M1687.92,1009.29c3.125,2.625 4.708,6.708 7.583,9.625c4.876,4.187 11.213,6.285 17.625,5.833c16.375,0.25 34.333,-6.75 40.833,-21.792c2.073,-5.48 3.323,-11.237 3.709,-17.083l5.666,-49.667c1.084,-9.583 2.917,-20.458 11.042,-25.708c13.25,-8.333 30.833,4.75 46.292,1.375c11.499,-2.923 18.846,-14.42 16.666,-26.083c-1.791,-7.959 -7.875,-14.25 -11,-21.834c-1.894,-5.827 -3.411,-11.769 -4.541,-17.791c-8.625,-32.334 -46.584,-50.5 -79.584,-45.084c-18.333,3.042 -35.375,11.792 -53.75,14.459c-13.166,1.916 -26.625,0.666 -39.916,2.083c-12.349,1.274 -24.357,4.82 -35.417,10.458c-2.903,1.285 -5.471,3.225 -7.5,5.667c-1.887,3.298 -3.158,6.913 -3.75,10.667c-4.458,16.666 -18.792,28.958 -29.167,43c-11.865,16.154 -18.733,35.44 -19.75,55.458c-0.408,5.113 0.071,10.259 1.417,15.208c0.875,2.917 2.25,5.75 2.917,8.75c2.041,9.125 -2.625,18.25 -4.917,27.334c-2.847,11.589 -1.822,23.797 2.917,34.75c16,36.791 68.708,49.083 79.666,87.708c9.731,4.666 20.242,7.491 31,8.333c10.75,0.209 22.334,-4.416 27.334,-13.958c13.125,-25 -18.209,-44.417 -27.042,-64.25c-5.542,-12.208 0.667,-54.958 21.667,-37.458Z" style="fill:#353045;fill-rule:nonzero;"/><path d="M2741.71,1086.83c-6.658,19.036 -9.491,39.201 -8.333,59.334c-6.417,5.458 -13.417,-10.875 -20.833,-6.667c-20.334,11.75 -43.834,39.708 -69,39.708c-21.824,0.015 -43.344,-5.141 -62.792,-15.041c-6.066,-23.397 -14.441,-46.133 -25,-67.875c-10.559,-21.742 214.375,-91.167 185.958,-9.459Z" style="fill-opacity:0.1;fill-rule:nonzero;"/><path d="M2781.96,1033.54c0,76.024 -62.558,138.583 -138.583,138.583c-76.025,0 -138.583,-62.559 -138.583,-138.583c-0,-76.025 62.558,-138.584 138.583,-138.584c0.014,0 0.028,0 0.042,0c76.001,0 138.541,62.54 138.541,138.542c0,0.014 0,0.028 0,0.042Z" style="fill:#d28690;fill-rule:nonzero;"/><path d="M2776.04,1260.92c-0,-0 -26.084,28.416 -29.625,30.75c-3.542,2.333 -79.167,320.833 -80.5,324.541c-1.334,3.709 -90.042,291.292 -90.042,291.292l-142.125,69.875l11.875,-351.75l104.167,-290.083c-0,-0 34.375,-39.084 45,-53.292c10.625,-14.208 143.291,-99.5 143.291,-99.5l22.667,46.708l15.292,31.459Z" style="fill:#f0f3f7;fill-rule:nonzero;"/><path d="M2757.25,1236.58l-163.417,117l-2.625,-64.25c10.667,-14.208 143.292,-99.458 143.292,-99.458l22.75,46.708Z" style="fill-opacity:0.1;fill-rule:nonzero;"/><path d="M2760.79,1229.46l-163.417,117l-2.542,-64.208c10.667,-14.25 143.292,-99.5 143.292,-99.5l22.667,46.708Z" style="fill:#f0f3f7;fill-rule:nonzero;"/><path d="M2589.38,1253.67l5.458,28.583l-36.541,37.125l29.166,-65.292c0,0 -62.5,43.542 -81.25,55.084c-18.75,11.541 -37.5,50.625 -38.208,61.291c-0.708,10.667 -30.208,171.417 -30.208,171.417c-0,0 -22.209,59.5 -15.959,76.375c6.25,16.875 -33.75,548.917 -33.75,548.917c10.819,-20.907 30.419,-35.935 53.417,-40.959l-14.25,-314.416c0,-0 17.333,-209.167 18.208,-211.834c0.875,-2.666 40.417,-123.916 40.417,-123.916l103.5,-222.375Z" style="fill:#585b8a;fill-rule:nonzero;"/><path d="M2598.42,1285.79l-2.834,58.333c0,0 -39.541,124.792 -52.833,145.208c-13.292,20.417 -53.75,142.125 -53.75,142.125l-22.792,211.417l-39.083,17.792l-19.25,-35.459l32,-204.166c0,-0 60.375,-172.292 69.292,-190.084l44.541,-93.833l44.709,-51.333Z" style="fill-opacity:0.1;fill-rule:nonzero;"/><path d="M2594.83,1282.25l-2.791,58.333c-0,0 -39.542,124.792 -52.875,145.209c-13.334,20.416 -53.709,142.125 -53.709,142.125l-22.666,211.375l-39.084,17.75l-19.541,-35.5l32,-204.167c-0,0 60.375,-172.333 69.25,-190.083l44.875,-93.709l44.541,-51.333Z" style="fill:#663d5c;fill-rule:nonzero;"/><path d="M2134.17,1727.5l76.375,52.875c-0,0 53.875,-30.208 22.5,-49.75c-31.375,-19.542 -59.209,-22.5 -69.292,-22.5c-10.083,0 -29.583,19.375 -29.583,19.375Z" style="fill:#d28690;fill-rule:nonzero;"/><path d="M2191.21,1629.75c-3.462,2.155 -5.564,5.964 -5.541,10.042c-0,16.208 1.833,59.125 15.416,39.75c16.667,-23.709 13.625,-45 39.084,-29.625c15.822,9.854 29.67,22.571 40.833,37.5l-7.083,-50.917c-0,0 -52.334,-25.833 -82.709,-6.75Z" style="fill:#d28690;fill-rule:nonzero;"/><path d="M2783.42,2251.54c-3.834,6 -7.209,19.125 -10,36.041c-155.75,46.709 -269.709,-52.041 -269.709,-52.041c-13.787,-46.723 -25.053,-94.152 -33.75,-142.084c-2.791,-16.416 -2.166,-48.25 0.417,-87.083l278.458,-48.833c0,-0 52.375,266.458 34.584,294Z" style="fill-opacity:0.1;fill-rule:nonzero;"/><path d="M2943.29,1456.58c-7.084,23.125 -4.417,70.167 -4.417,70.167l-63.958,302c-0,0 -31.084,232.708 -36.417,263.792c-5.333,31.083 -14.208,167.875 -14.208,167.875c-181.209,88.833 -320.834,-31.959 -320.834,-31.959c-13.785,-46.737 -25.051,-94.18 -33.75,-142.125c-8.916,-52.75 17.334,-264.083 29.75,-357.958c3.709,-27.792 6.209,-45.292 6.209,-45.292l46.625,-173.208c-0,0 57.291,-146.125 78.625,-188.75c21.333,-42.625 107,-138.375 107,-138.375c10.625,-6.75 27.625,17.083 40.25,38.792c9.541,16.416 16.666,31.666 16.666,31.666c0,0 106.584,46.167 122.542,70.834c15.958,24.666 13.333,75.5 15.125,78.166c1.792,2.667 17.917,31.292 10.792,54.375Z" style="fill:#585b8a;fill-rule:nonzero;"/><path d="M2691.96,1349.13c0,0 8,47.083 -12.5,61.292c-19.791,13.75 -167.125,303.458 -176.291,321.541c3.708,-27.833 6.208,-45.333 6.208,-45.333l46.625,-173.167c0,0 57.333,-146.125 78.625,-188.791c21.292,-42.667 107.042,-138.375 107.042,-138.375c10.625,-6.75 27.583,17.083 40.208,38.791c-19.042,39.542 -58.75,114.292 -89.917,124.042Z" style="fill-opacity:0.1;fill-rule:nonzero;"/><path d="M2688.42,1345.58c-0,0 7.958,47.084 -12.5,61.292c-20.459,14.208 -167.084,303.417 -176.375,321.5c3.708,-27.792 6.208,-45.292 6.208,-45.292l46.625,-173.208c0,0 57.292,-146.125 78.625,-188.75c21.333,-42.625 107,-138.375 107,-138.375c10.625,-6.75 27.625,17.083 40.25,38.792c-18.958,39.5 -58.708,114.291 -89.833,124.041Z" style="fill:#585b8a;fill-rule:nonzero;"/><path d="M2899.79,1771.04l-50.125,260.791l-0,0.042l-4.792,24.958l0,0.042l-10.792,56.125l-46.041,-9.75l-21.459,-4.542l-296.958,-62.916l-21.833,-4.625l-49.834,-10.542l9.75,-64.75l4.042,-26.917l35.958,-238.75l452.084,80.834Z" style="fill:#08c;fill-rule:nonzero;"/><path d="M2622.67,1984.21c-0,0 -118.125,42.625 -92.375,93.25c25.75,50.625 190.958,-39.083 190.958,-39.083l-98.583,-54.167Z" style="fill:#d28690;fill-rule:nonzero;"/><path d="M2707.04,2347.46c-0,3.542 4.458,48.875 22.208,64.834c17.75,15.958 -22.208,-64.834 -22.208,-64.834Z" style="fill-opacity:0.1;fill-rule:nonzero;"/><path d="M2588.04,2508.21c-0,0 21.291,58.625 105.666,82.625c84.375,24 -105.666,-82.625 -105.666,-82.625Z" style="fill-opacity:0.1;fill-rule:nonzero;"/><path d="M2781.96,1033.54c0.013,49.524 -26.53,95.429 -69.458,120.125c-7.959,-4.454 -15.023,-10.345 -20.833,-17.375c-6.042,-7.334 -10.75,-17.334 -7.125,-26.084c2.916,-7.041 10.625,-11.5 12.5,-18.791c0.883,-4.459 0.654,-9.068 -0.667,-13.417c-1.542,-6.875 -3,-13.75 -4.5,-20.583c-1.292,-5.834 -3.583,-12.709 -9.375,-14.125c-5.792,-1.417 -10.625,3.416 -15.167,7c-11.125,8.791 -32.458,14.75 -45.833,7.541c-13.375,-7.208 -9.625,-31.333 -11.792,-44.375c-0.054,-2.292 -1.124,-4.445 -2.916,-5.875c-1.947,-0.646 -4.025,-0.789 -6.042,-0.416c-7.208,-0 -13,-6.459 -15.083,-13.375c-1.476,-7.062 -2.286,-14.246 -2.417,-21.459c-0.792,-7.208 -3.417,-14.833 -9.583,-18.541c-4.927,-2.293 -10.391,-3.187 -15.792,-2.584l-26.125,0.292c26.112,-35.303 67.507,-56.172 111.417,-56.172c75.932,-0 138.449,62.407 138.583,138.339l0.208,-0.125Z" style="fill-opacity:0.1;fill-rule:nonzero;"/><path d="M2671.04,1050.29c4.541,-3.584 9.541,-8.334 15.166,-6.959c5.625,1.375 8.042,8.334 9.334,14.084l4.5,20.541c1.331,4.361 1.574,8.982 0.708,13.459c-2.125,7.333 -9.792,11.75 -12.75,18.791c-3.625,8.75 1.125,18.75 7.125,26.042c10.942,13.187 26.079,22.234 42.875,25.625c4.386,1.054 8.947,1.153 13.375,0.292c9.917,-2.292 16.667,-11.417 22,-19.959c27.542,-42.916 51.25,-89.958 56.083,-140.708c1.326,-10.351 0.847,-20.854 -1.416,-31.042c-2.258,-7.918 -5.447,-15.541 -9.5,-22.708c-7.092,-14.643 -16.102,-28.277 -26.792,-40.542c-18.958,-20.416 -45.125,-32.958 -72,-40.375c-30.228,-8.387 -61.792,-10.863 -92.958,-7.291c-8.334,0.958 -16.334,2.333 -24.542,2.875c-10.306,0.479 -20.632,0.312 -30.917,-0.5l-61.333,-3.667c-3.5,7.125 0,15.583 4.167,22.25c4.166,6.667 9.333,13.583 9,21.5c-0.334,7.917 -5.959,14.167 -10.292,20.833c-4.333,6.667 -7.625,15.292 -3.292,21.792c4.334,6.5 13.167,6.917 20.834,6.833l30.916,-0.333c5.385,-0.554 10.82,0.383 15.709,2.708c6.166,3.709 8.791,11.375 9.583,18.542c0.173,7.21 0.982,14.391 2.417,21.458c2.125,6.917 7.875,13.459 15.083,13.375c2.018,-0.402 4.108,-0.244 6.042,0.459c1.791,1.412 2.861,3.553 2.916,5.833c2.167,13.042 -1.833,37.125 11.792,44.375c13.625,7.25 35.042,1.208 46.167,-7.583Z" style="fill:#663d5c;fill-rule:nonzero;"/><path d="M2847.17,1324c-31.442,-3.34 -61.258,15.697 -71.459,45.625c-16.666,47.458 -44.458,133.083 -37.5,166.917c9.792,47.958 21.334,127.916 21.334,127.916c-0,0 50.625,29.167 25,58.584c-25.625,29.416 -32.875,71.083 -32.875,71.083c-0,0 -32.875,14.208 -39.959,44.417c-7.083,30.208 -55.083,71.916 -55.083,71.916l-71.917,71.959c0,-0 119,120.833 143,127l73.709,-86.167l87.041,-115.458l75.5,-79.167c0,0 17.75,-41.667 8.875,-120.833c-8.875,-79.167 -43.541,-154.542 -43.541,-154.542l2.666,-26.667c0,0 8.167,-191.041 -84.791,-202.583Z" style="fill-opacity:0.1;fill-rule:nonzero;"/><path d="M2854.25,1324c-31.413,-3.299 -61.181,15.73 -71.375,45.625c-16.667,47.458 -44.458,133.083 -37.5,166.917c9.75,47.958 21.292,127.916 21.292,127.916c-0,0 50.625,29.167 25,58.584c-25.625,29.416 -32.834,71.083 -32.834,71.083c0,0 -32.875,14.208 -40,44.417c-7.125,30.208 -55.041,71.916 -55.041,71.916l-71.959,71.959c0,-0 119,120.833 143,127l73.709,-86.167l86.833,-115.458l75.5,-79.167c0,0 17.792,-41.667 8.875,-120.833c-8.917,-79.167 -43.5,-154.542 -43.5,-154.542l2.667,-26.667c-0,0 8.291,-191.041 -84.667,-202.583Z" style="fill:#585b8a;fill-rule:nonzero;"/><path d="M2779.88,1594.29c0,-0 75.5,92.333 107.5,71.916c32,-20.416 -107.5,-71.916 -107.5,-71.916Z" style="fill-opacity:0.1;fill-rule:nonzero;"/><path d="M2808.29,1523.21c8,2.667 73.75,94.167 107.5,83.334c33.75,-10.834 -107.5,-83.334 -107.5,-83.334Z" style="fill-opacity:0.1;fill-rule:nonzero;"/><path d="M2826.96,1680.38c0,0 4.459,52.417 58.625,45.292c54.167,-7.125 -58.625,-45.292 -58.625,-45.292Z" style="fill-opacity:0.1;fill-rule:nonzero;"/><path d="M2587.58,1257.63l-29.291,65.292l36.583,-37.125l-7.292,-28.167Z" style="fill-opacity:0.1;fill-rule:nonzero;"/><path d="M2587.58,1254.08l-29.291,65.292l36.583,-37.125l-7.292,-28.167Z" style="fill:#f0f3f7;fill-rule:nonzero;"/><path d="M2469.63,2035.79l-21.833,-4.625l-40.084,-75.292l4.042,-26.917l57.875,106.834Z" style="fill-opacity:0.3;fill-rule:nonzero;"/><path d="M2849.67,2031.88l-4.792,24.958l0,0.042l-56.833,46.375l-21.459,-4.542l83.084,-66.833Z" style="fill-opacity:0.3;fill-rule:nonzero;"/><path d="M1954.21,1740.5c-11,1.833 -21.666,3.5 -31.416,4.75c-54.167,7.125 -183,-56.833 -183,-56.833c-0,-0 -157.209,-131.459 -202.5,-255.792c-45.292,-124.333 54.166,-143 54.166,-143c37.5,-21.333 119.042,38.167 130.584,47.958c11.541,9.792 21.333,34.625 20.416,50.625c-0.916,16 26.667,36.417 26.667,36.417c0,0 47.083,81.708 58.625,90.583c11.542,8.875 14.208,16.875 17.75,32c3.542,15.125 34.625,27.542 47.958,26.625c13.334,-0.916 29.167,4.459 29.167,11.542c0,5.708 13.042,8.542 23.75,9.458c3.167,45.542 6.292,105.209 7.833,145.667Z" style="fill-opacity:0.1;fill-rule:nonzero;"/><path d="M1953.71,1727.5c-8.333,1.333 -16.333,2.542 -23.833,3.542c-54.167,7.125 -182.958,-56.834 -182.958,-56.834c-0,0 -157.209,-131.458 -202.5,-255.791c-45.292,-124.334 54.166,-143 54.166,-143c37.5,-21.334 119,38.166 130.542,47.958c11.542,9.792 21.333,34.625 20.458,50.625c-0.875,16 26.625,36.417 26.625,36.417c0,-0 47.084,81.708 58.625,90.583c11.542,8.875 14.209,16.875 17.792,32c3.583,15.125 34.625,27.5 47.958,26.625c13.334,-0.875 29.167,4.458 29.167,11.542c0,4.166 7.417,6.958 15.667,8.333c0.333,4.833 0.625,9.958 1,15.292c2.75,40.958 5.583,93.208 7.291,132.708Z" style="fill-opacity:0.1;fill-rule:nonzero;"/><path d="M2159.75,1638.04l-3.375,79.833l-3.625,-0l-7.5,-4.167l0.917,-68.791c4.378,-2.575 8.915,-4.871 13.583,-6.875Z" style="fill-opacity:0.1;fill-rule:nonzero;"/><path d="M1591.46,1282.5c0,0 -99.458,18.667 -54.166,143c45.291,124.333 202.5,255.833 202.5,255.833c-0,0 128.791,63.917 183,56.834c54.208,-7.084 136.75,-25.75 147.416,-23.084c10.667,2.667 82.625,2.667 82.625,2.667l3.542,-83.333l-83.333,-4.459l-42.625,-8.875c-0,0 -15.125,-12.5 -24,-10.666c-8.875,1.833 -27.5,-10.667 -27.5,-10.667c-0,-0 -14.25,-11.542 -25,-11.542c-10.75,0 -31.084,-2.666 -31.084,-9.75c0,-7.083 -16,-12.5 -29.166,-11.541c-13.167,0.958 -44.625,-11.542 -48.292,-26.834c-3.667,-15.291 -6.208,-23.083 -17.75,-31.958c-11.542,-8.875 -58.625,-90.625 -58.625,-90.625c0,0 -27.542,-20.417 -26.667,-36.375c0.875,-15.958 -8.875,-40.875 -20.416,-50.667c-11.542,-9.791 -93.209,-69.25 -130.459,-47.958Z" style="fill:#dce6f2;fill-rule:nonzero;"/><path d="M1847.29,1568.5c-0,0 -38.209,38.208 -28.459,45.292l28.459,-45.292Z" style="fill-opacity:0.1;fill-rule:nonzero;"/><path d="M1888.13,1598.71c0,0 -49.75,38.209 -36.417,40.875c13.334,2.667 36.417,-40.875 36.417,-40.875Z" style="fill-opacity:0.1;fill-rule:nonzero;"/><path d="M1803.71,1655.38c7.125,3.583 112.792,66.667 152.792,65.75l-152.792,-65.75Z" style="fill-opacity:0.1;fill-rule:nonzero;"/><path d="M1810.88,1233.67c0,-0 -18.667,61.291 -25.792,61.291c-5.583,0 -99.333,-75.916 -138.458,-107.833l1.708,-1.417c0,0 3.542,-27.541 17.75,-41.666c14.209,-14.125 144.792,89.625 144.792,89.625Z" style="fill-opacity:0.1;fill-rule:nonzero;"/><path d="M1807.29,1226.54c-0,-0 -18.625,61.291 -25.75,61.291c-5.625,0 -99.375,-75.916 -138.5,-107.833l1.708,-1.417c0,0 3.583,-27.541 17.792,-41.666c14.208,-14.125 144.75,89.625 144.75,89.625Z" style="fill:#dce6f2;fill-rule:nonzero;"/><g opacity="0.15"><path d="M1555.75,1028.46c12.5,28.542 46.917,42.375 66.875,65.125c-11.875,-27.958 -46.583,-41.666 -66.875,-65.125Z" style="fill-rule:nonzero;"/><path d="M1683.13,1094.21c-4.958,9.542 -16.667,14.167 -27.333,13.959c-9.483,-0.681 -18.769,-3.051 -27.417,-7c3.137,4.625 5.528,9.715 7.083,15.083c9.728,4.675 20.24,7.501 31,8.333c10.792,0.25 22.375,-4.375 27.334,-13.958c7.958,-15.208 -0.334,-28.208 -10.042,-40.5c3.668,7.656 3.435,16.628 -0.625,24.083Z" style="fill-rule:nonzero;"/><path d="M1837.75,885.375c-1.792,-8 -7.875,-14.292 -11,-21.833c-1.914,-5.836 -3.431,-11.794 -4.542,-17.834c-2.367,-8.54 -6.755,-16.386 -12.791,-22.875c0.838,2.051 1.548,4.153 2.125,6.292c1.167,6.067 2.726,12.051 4.666,17.917c3.125,7.541 9.209,13.833 11,21.833c2.18,11.663 -5.167,23.161 -16.666,26.083c-15.417,3.375 -33,-9.958 -46.25,-1.375c-8.125,5.209 -10,16.084 -11.084,25.667c-1.861,16.667 -3.75,33.236 -5.666,49.708c-0.376,5.844 -1.612,11.6 -3.667,17.084c-6.542,15 -24.5,22.041 -40.875,21.791c-6.396,0.428 -12.711,-1.668 -17.583,-5.833c-2.369,-3.355 -4.915,-6.582 -7.625,-9.667c-20.834,-17.5 -27.167,25.292 -21.667,37.5c2.754,5.492 6.168,10.627 10.167,15.292c-4.584,-13.75 1.833,-53.333 22.166,-36.375c2.71,3.075 5.242,6.303 7.584,9.667c4.891,4.16 11.217,6.253 17.625,5.833c16.375,0.25 34.333,-6.792 40.875,-21.792c2.059,-5.496 3.294,-11.267 3.666,-17.125c1.889,-16.666 3.778,-33.222 5.667,-49.666c1.083,-9.584 2.958,-20.459 11.042,-25.667c13.291,-8.583 30.875,4.75 46.291,1.333c11.407,-2.957 18.68,-14.37 16.542,-25.958Z" style="fill-rule:nonzero;"/></g><path d="M2760.25,1151.54c-4.432,0.826 -8.989,0.712 -13.375,-0.334c-16.775,-3.389 -31.896,-12.42 -42.833,-25.583c-6.042,-7.333 -10.792,-17.333 -7.125,-26.083c2.916,-7.042 10.583,-11.459 12.5,-18.792c0.866,-4.476 0.623,-9.098 -0.709,-13.458l-4.5,-20.542c-1.291,-5.833 -3.541,-12.708 -9.333,-14.083c-5.792,-1.375 -10.625,3.375 -15.167,6.958c-11.125,8.792 -32.5,14.792 -45.833,7.542c-13.333,-7.25 -9.625,-31.334 -11.792,-44.375c-0.072,-2.276 -1.139,-4.41 -2.916,-5.834c-1.953,-0.68 -4.051,-0.838 -6.084,-0.458c-7.208,0 -12.958,-6.458 -15.083,-13.375c-1.444,-7.065 -2.239,-14.248 -2.375,-21.458c-0.833,-7.167 -3.417,-14.834 -9.625,-18.542c-4.895,-2.305 -10.324,-3.241 -15.708,-2.708l-30.917,0.333c-7.625,0 -16.667,-0.5 -20.833,-6.833c-4.167,-6.334 -1.084,-15.334 3.291,-21.792c4.375,-6.458 9.917,-12.875 10.292,-20.833c0.375,-7.959 -4.792,-14.834 -9,-21.5c-2.413,-3.646 -4.189,-7.676 -5.25,-11.917l-8.875,-0.542c-3.458,7.084 0,15.542 4.167,22.25c4.166,6.709 9.375,13.584 9,21.459c-0.375,7.875 -5.917,14.208 -10.292,20.833c-4.375,6.625 -7.583,15.292 -3.25,21.792c4.333,6.5 13.125,6.958 20.833,6.875l30.917,-0.375c5.388,-0.522 10.818,0.429 15.708,2.75c6.209,3.708 8.834,11.375 9.625,18.541c0.132,7.213 0.941,14.397 2.417,21.459c2.083,6.875 7.875,13.458 15.083,13.333c2.021,-0.357 4.099,-0.2 6.042,0.458c1.784,1.437 2.851,3.586 2.917,5.875c2.166,13 -1.834,37.125 11.791,44.375c13.625,7.25 34.875,1.25 45.834,-7.541c4.541,-3.584 9.583,-8.334 15.208,-7c5.625,1.333 8.042,8.333 9.292,14.083l4.541,20.583c1.32,4.364 1.549,8.986 0.667,13.459c-2.083,7.291 -9.792,11.75 -12.708,18.75c-3.625,8.75 1.083,18.791 7.125,26.083c11.011,13.22 26.244,22.256 43.125,25.583c4.385,1.046 8.942,1.16 13.375,0.334c7.16,-2.183 13.31,-6.854 17.333,-13.167c-2.276,1.578 -4.816,2.735 -7.5,3.417Z" style="fill-opacity:0.1;fill-rule:nonzero;"/><ellipse cx="848.708" cy="2976.25" rx="100.708" ry="15.458" style="fill:#08c;fill-opacity:0.1;"/><ellipse cx="4365.04" cy="2574.33" rx="100.708" ry="15.458" style="fill:#08c;fill-opacity:0.1;"/><ellipse cx="3338.33" cy="3197.25" rx="291.667" ry="44.75" style="fill:#08c;fill-opacity:0.1;"/><ellipse cx="4167.46" cy="3007.67" rx="227.5" ry="34.917" style="fill:#08c;fill-opacity:0.1;"/><ellipse cx="4130" cy="3355.58" rx="385.792" ry="59.208" style="fill:#08c;fill-opacity:0.1;"/><ellipse cx="417.667" cy="3407.67" rx="291.667" ry="44.75" style="fill:#08c;fill-opacity:0.1;"/><path d="M853.292,2483.92c-0,-0 11.416,14.916 -5.25,37.5c-16.667,22.583 -30.417,41.666 -25,55.583c-0,0 25,-41.667 45.833,-42.417c20.833,-0.75 6.958,-25.5 -15.583,-50.666Z" style="fill:#08c;fill-rule:nonzero;"/><path d="M853.292,2483.92c1.018,1.423 1.805,2.998 2.333,4.666c20,23.5 30.625,45.375 11.417,45.834c-17.875,0.5 -39.334,32.5 -44.459,40.583c0.157,0.623 0.352,1.235 0.584,1.833c0.232,0.599 25,-41.666 45.833,-42.416c20.833,-0.75 6.833,-25.334 -15.708,-50.5Z" style="fill-opacity:0.1;fill-rule:nonzero;"/><path d="M874.542,2502.92c-0,5.25 -0.625,9.5 -1.334,9.5c-0.708,-0 -1.333,-4.167 -1.333,-9.5c0,-5.334 0.75,-2.75 1.458,-2.75c0.709,-0 1.209,-2.5 1.209,2.75Z" style="fill:#ffd037;fill-rule:nonzero;"/><path d="M881.792,2509.21c-4.584,2.5 -8.625,4.167 -8.959,3.375c-0.333,-0.791 3.084,-3.166 7.709,-5.708c4.625,-2.542 2.791,-0.667 3.125,0c0.333,0.667 2.75,-0.208 -1.875,2.333Z" style="fill:#ffd037;fill-rule:nonzero;"/><path d="M793.042,2483.92c-0,-0 -11.417,14.916 5.25,37.5c16.666,22.583 30.458,41.666 25,55.583c-0,0 -25,-41.667 -45.625,-42.417c-20.625,-0.75 -7.292,-25.5 15.375,-50.666Z" style="fill:#08c;fill-rule:nonzero;"/><path d="M793.042,2483.92c-0.996,1.436 -1.782,3.008 -2.334,4.666c-20,23.5 -30.625,45.375 -11.416,45.834c17.875,0.5 39.333,32.5 44.5,40.583c-0.171,0.623 -0.38,1.236 -0.625,1.833c-0.246,0.598 -25,-41.666 -45.625,-42.416c-20.625,-0.75 -7.167,-25.334 15.5,-50.5Z" style="fill-opacity:0.1;fill-rule:nonzero;"/><path d="M771.833,2502.92c0,5.25 0.584,9.5 1.292,9.5c0.708,-0 1.333,-4.167 1.333,-9.5c0,-5.334 -0.75,-2.75 -1.458,-2.75c-0.708,-0 -1.167,-2.5 -1.167,2.75Z" style="fill:#ffd037;fill-rule:nonzero;"/><path d="M764.542,2509.21c4.625,2.5 8.625,4.167 9,3.375c0.375,-0.791 -3.125,-3.166 -7.75,-5.708c-4.625,-2.542 -2.792,-0.667 -3.125,0c-0.334,0.667 -2.75,-0.208 1.875,2.333Z" style="fill:#ffd037;fill-rule:nonzero;"/><ellipse cx="823.167" cy="2672.79" rx="119.292" ry="18.292" style="fill:#08c;fill-opacity:0.1;"/><path d="M884.583,2556.83l-0.583,4.667l-0.792,6.583l-0.333,2.75l-0.792,6.584l-0.375,2.75l-0.791,6.583l-9.125,75c-0.792,6.667 -11.709,11.875 -25,11.875l-47.25,0c-13.167,0 -24.084,-5.208 -25,-11.875l-9.125,-75l-0.792,-6.583l-0.333,-2.75l-0.834,-6.584l-0.333,-2.75l-0.792,-6.583l-0.583,-4.667c-0.458,-3.791 5.458,-6.958 12.917,-6.958l97.041,0c7.417,0 13.334,3.167 12.875,6.958Z" style="fill:#65617d;fill-rule:nonzero;"/><path d="M884,2561.5l-0.792,6.583l-120.083,0l-0.792,-6.583l121.667,0Z" style="fill:#9d9cb5;fill-rule:nonzero;"/><path d="M882.875,2570.83l-0.792,6.584l-117.791,-0l-0.834,-6.584l119.417,0Z" style="fill:#9d9cb5;fill-rule:nonzero;"/><path d="M881.75,2580.17l-0.833,6.583l-115.5,0l-0.792,-6.583l117.125,-0Z" style="fill:#9d9cb5;fill-rule:nonzero;"/><path d="M4285.67,2426.21c-0,0 -14.25,66.334 49.125,74.167l3.916,-7.375c0,0 -49.125,-46.208 -53.041,-66.792Z" style="fill:#08c;fill-rule:nonzero;"/><path d="M4358.88,2492.46l-14.75,3.125l-1.458,0.334c-0,-0 -39.334,-31.917 -38.834,-103.167c5.257,10.505 11.552,20.458 18.792,29.708c15.583,20.625 33.292,48.125 36.25,70Z" style="fill:#08c;fill-rule:nonzero;"/><path d="M4363.83,2499.29c-2.344,1.526 -5.257,1.909 -7.916,1.041c-37.834,-8.833 -25,-132.125 -25,-132.125c2.083,0.959 4.166,16.667 13.083,36.917c15.208,35.542 32,85.25 19.833,94.167Z" style="fill:#08c;fill-rule:nonzero;"/><path d="M4447.75,2426.21c0,0 2.458,66.334 -60.917,74.167l-3.958,-7.5c0,0 60.958,-46.083 64.875,-66.667Z" style="fill:#08c;fill-rule:nonzero;"/><path d="M4429.58,2392.88c0.5,71.25 -50.583,103.167 -50.583,103.167l-1.5,-0.334l-14.708,-3.125c2.916,-21.875 20.833,-49.375 36.208,-70c8.826,-11.22 19.111,-21.211 30.583,-29.708Z" style="fill:#08c;fill-rule:nonzero;"/><path d="M4377.29,2492.88c-2.24,2.769 -5.093,4.98 -8.334,6.458c-1.003,0.453 -2.05,0.802 -3.125,1.042c-9.291,2.167 -12.5,-4.542 -12,-15.958c0.875,-20.292 13.625,-55.5 25,-81.875c5.479,-12.94 13.564,-24.614 23.75,-34.292c10.187,-9.678 -0.583,95.958 -25.291,124.625Z" style="fill:#08c;fill-rule:nonzero;"/><path d="M4366.71,2324.96c0,0 -42.25,150 -5.875,172.417c36.375,22.417 15.209,-159.167 5.875,-172.417Z" style="fill:#08c;fill-rule:nonzero;"/><path d="M4285.67,2426.21c-0,0 -14.25,66.334 49.125,74.167l3.916,-7.375c0,0 -49.125,-46.208 -53.041,-66.792Z" style="fill-opacity:0.1;fill-rule:nonzero;"/><path d="M4358.88,2492.46l-14.75,3.125l-1.458,0.334c-0,-0 -39.334,-31.917 -38.834,-103.167c5.257,10.505 11.552,20.458 18.792,29.708c15.583,20.625 33.292,48.125 36.25,70Z" style="fill-opacity:0.1;fill-rule:nonzero;"/><path d="M4363.83,2499.29c-2.344,1.526 -5.257,1.909 -7.916,1.041c-37.834,-8.833 -25,-132.125 -25,-132.125c2.083,0.959 4.166,16.667 13.083,36.917c15.208,35.542 32,85.25 19.833,94.167Z" style="fill-opacity:0.1;fill-rule:nonzero;"/><path d="M4447.75,2426.21c0,0 2.458,66.334 -60.917,74.167l-3.958,-7.5c0,0 60.958,-46.083 64.875,-66.667Z" style="fill-opacity:0.1;fill-rule:nonzero;"/><path d="M4429.58,2392.88c0.5,71.25 -50.583,103.167 -50.583,103.167l-1.5,-0.334l-14.708,-3.125c2.916,-21.875 20.833,-49.375 36.208,-70c8.826,-11.22 19.111,-21.211 30.583,-29.708Z" style="fill-opacity:0.1;fill-rule:nonzero;"/><path d="M4377.29,2492.88c-2.24,2.769 -5.093,4.98 -8.334,6.458c-1.003,0.453 -2.05,0.802 -3.125,1.042c-9.291,2.167 -12.5,-4.542 -12,-15.958c0.875,-20.292 13.625,-55.5 25,-81.875c5.479,-12.94 13.564,-24.614 23.75,-34.292c10.187,-9.678 -0.583,95.958 -25.291,124.625Z" style="fill-opacity:0.1;fill-rule:nonzero;"/><path d="M4366.71,2324.96c0,0 -42.25,150 -5.875,172.417c36.375,22.417 15.209,-159.167 5.875,-172.417Z" style="fill-opacity:0.1;fill-rule:nonzero;"/><path d="M4285.67,2426.21c-0,0 -8.334,66.334 55,74.167l3.916,-7.375c0,0 -55,-46.208 -58.916,-66.792Z" style="fill:#08c;fill-rule:nonzero;"/><path d="M4364.75,2492.46l-14.75,3.125l-1.458,0.334c-0,-0 -45.209,-31.917 -44.834,-103.042c0,0 11.584,12.5 24.667,29.708c15.708,20.5 33.417,48 36.375,69.875Z" style="fill:#08c;fill-rule:nonzero;"/><path d="M4364.75,2492.46l-14.75,3.125c-13.958,-12.25 -19.5,-44.25 -21.5,-73.125c15.583,20.625 33.292,48.125 36.25,70Z" style="fill-opacity:0.1;fill-rule:nonzero;"/><path d="M4369.75,2499.29c-2.359,1.527 -5.286,1.91 -7.958,1.041c-37.834,-8.833 -30.917,-132.125 -30.917,-132.125c2.083,0.959 10.25,16.667 18.958,36.917c15.292,35.542 32.042,85.25 19.917,94.167Z" style="fill:#08c;fill-rule:nonzero;"/><path d="M4447.75,2426.21c0,0 8.333,66.334 -55,74.167l-3.917,-7.375c0,0 55,-46.208 58.917,-66.792Z" style="fill:#08c;fill-rule:nonzero;"/><path d="M4429.58,2392.88c0.5,71.25 -44.708,103.167 -44.708,103.167l-1.458,-0.334l-14.75,-3.125c2.916,-21.875 20.833,-49.375 36.25,-70c13.083,-17.208 24.666,-29.708 24.666,-29.708Z" style="fill:#08c;fill-rule:nonzero;"/><path d="M4404.92,2422.46c-1.917,26.917 -6.834,56.542 -18.792,70.375c-0.817,0.998 -1.724,1.918 -2.708,2.75l-14.75,-3.125c2.916,-21.875 20.666,-49.375 36.25,-70Z" style="fill-opacity:0.1;fill-rule:nonzero;"/><path d="M4383.17,2492.88c-2.228,2.781 -5.085,4.995 -8.334,6.458c-0.991,0.447 -2.024,0.796 -3.083,1.042c-9.333,2.167 -12.5,-4.542 -12.042,-15.958c0.917,-20.292 13.667,-55.5 25,-81.875c8.334,-18.959 15.875,-33.334 17.875,-34.292c0,-0.042 5.292,95.958 -19.416,124.625Z" style="fill:#08c;fill-rule:nonzero;"/><path d="M4369.75,2499.29c-2.154,0.024 -4.259,-0.649 -6,-1.917c-17.792,-11.083 -18.167,-52.667 -13.917,-92.25c15.292,35.542 32.042,85.25 19.917,94.167Z" style="fill-opacity:0.1;fill-rule:nonzero;"/><path d="M4383.17,2492.88c-2.042,4.458 -4.792,6.792 -8.334,6.458c-1.811,-0.219 -3.542,-0.877 -5.041,-1.916c-4.635,-3.175 -8.162,-7.722 -10.084,-13c0.917,-20.292 13.667,-55.5 25,-81.875c4.084,36.541 5.459,75.291 -1.541,90.333Z" style="fill-opacity:0.1;fill-rule:nonzero;"/><path d="M4366.71,2324.96c0,0 -36.333,150 0,172.417c36.334,22.417 9.334,-159.167 0,-172.417Z" style="fill:#08c;fill-rule:nonzero;"/><path d="M4436.46,2490.04l-151.291,-0l-0,25.041l23.083,0l0.583,2.959l9.25,48.625l87.959,-0l9.25,-48.625l0.541,-2.959l20.625,0l0,-25.041Z" style="fill:#4b4770;fill-rule:nonzero;"/><path d="M4436.46,2490.04l-151.291,-0l-0,25.041l23.083,0l0.583,2.959l9.25,48.625l87.959,-0l9.25,-48.625l0.541,-2.959l20.625,0l0,-25.041Z" style="fill-opacity:0.1;fill-rule:nonzero;"/><path d="M4423.71,2504.75l-2.541,13.292l-9.25,48.625l-87.959,-0l-9.25,-48.625l-2.541,-13.292l111.541,0Z" style="fill:#4b4770;fill-rule:nonzero;"/><path d="M4423.71,2504.75l-2.541,13.292l-106.459,-0l-2.541,-13.292l111.541,0Z" style="fill-opacity:0.1;fill-rule:nonzero;"/><rect x="4291.04" y="2490.04" width="151.292" height="25.042" style="fill:#4b4770;"/><path d="M580.792,2918.54c-3.989,5.498 -7.187,11.529 -9.5,17.916c-0.584,1.542 -1.167,3.334 -1.75,5.042c-1.058,-0.494 -2.16,-0.884 -3.292,-1.167c-4.857,-1.226 -9.882,-1.649 -14.875,-1.25c0,-1.958 0.25,-4.166 0.292,-6.125c0.625,-21.958 -1.959,-52.541 -22.917,-39.583c-20.083,12.5 -5.75,33.333 7.208,46.667c1.125,1.166 2.25,2.25 3.334,3.291c-11.834,8.334 -14.084,28.042 -16.042,48.5c-1.958,20.459 -19.333,42.834 -30.875,55.542c-1.167,1.292 -2.208,2.458 -3.25,3.542c-9.432,-7.527 -21.649,-10.669 -33.542,-8.625c-0.458,-1.792 -1,-3.667 -1.541,-5.625c-9.334,-33.709 -28.709,-92.084 -53.417,-104.875l3.25,-4.167c10.5,-13.708 22.333,-34.125 4.875,-39.333c-17.458,-5.209 -19.042,17.666 -18.083,34.833c0.166,2.167 0.333,4.208 0.5,6.125c-7.052,0.321 -13.663,3.552 -18.25,8.917l-2.709,-3.209c-14.166,-16.666 -40.125,-43.208 -48,-23.166c-7.333,18.666 15.542,42.916 31.625,56.958l1,0.875c-10.791,43.792 36.334,79.5 61.709,95.125l3.291,2c-35,41.25 -56.625,118.583 -56.625,118.583l98,17.5c0,0 65,-56.083 56.667,-108.75l0.667,0c64.958,-13 79.708,-82.25 69.583,-123.375l1.167,-0.458c11.834,-4.839 22.204,-12.681 30.083,-22.75c18.167,-25.208 -19.833,-53.708 -38.583,-28.958Z" style="fill:#08c;fill-rule:nonzero;"/><path d="M580.792,2918.54c-3.989,5.498 -7.187,11.529 -9.5,17.916c-0.584,1.542 -1.167,3.334 -1.75,5.042c-1.058,-0.494 -2.16,-0.884 -3.292,-1.167c-4.857,-1.226 -9.882,-1.649 -14.875,-1.25c0,-1.958 0.25,-4.166 0.292,-6.125c0.625,-21.958 -1.959,-52.541 -22.917,-39.583c-20.083,12.5 -5.75,33.333 7.208,46.667c1.125,1.166 2.25,2.25 3.334,3.291c-11.834,8.334 -14.084,28.042 -16.042,48.5c-1.958,20.459 -19.333,42.834 -30.875,55.542c-1.167,1.292 -2.208,2.458 -3.25,3.542c-9.432,-7.527 -21.649,-10.669 -33.542,-8.625c-0.458,-1.792 -1,-3.667 -1.541,-5.625c-9.334,-33.709 -28.709,-92.084 -53.417,-104.875l3.25,-4.167c10.5,-13.708 22.333,-34.125 4.875,-39.333c-17.458,-5.209 -19.042,17.666 -18.083,34.833c0.166,2.167 0.333,4.208 0.5,6.125c-7.052,0.321 -13.663,3.552 -18.25,8.917l-2.709,-3.209c-14.166,-16.666 -40.125,-43.208 -48,-23.166c-7.333,18.666 15.542,42.916 31.625,56.958l1,0.875c-10.791,43.792 36.334,79.5 61.709,95.125l3.291,2c-35,41.25 -56.625,118.583 -56.625,118.583l98,17.5c0,0 65,-56.083 56.667,-108.75l0.667,0c64.958,-13 79.708,-82.25 69.583,-123.375l1.167,-0.458c11.834,-4.839 22.204,-12.681 30.083,-22.75c18.167,-25.208 -19.833,-53.708 -38.583,-28.958Z" style="fill-opacity:0.1;fill-rule:nonzero;"/><path d="M385.708,2947.04l-11.458,33.333c0,0 -6.375,-4.5 -14.417,-11.583c-16.083,-14.042 -38.958,-38.292 -31.625,-56.959c7.875,-20.041 33.834,6.417 48,23.167c5.709,6.667 9.5,12.042 9.5,12.042Z" style="fill:#08c;fill-rule:nonzero;"/><path d="M409.875,2927.67c-3.481,4.588 -7.208,8.983 -11.167,13.166c-0.978,-5.85 -1.659,-11.747 -2.041,-17.666c-0.959,-17.167 0.875,-39.959 18.083,-34.834c17.208,5.125 5.625,25.625 -4.875,39.334Z" style="fill:#08c;fill-rule:nonzero;"/><path d="M557.875,2932.96c-0.333,11.042 -1.417,19.875 -1.417,19.875c-5.04,-3.945 -9.814,-8.218 -14.291,-12.791c-12.959,-13.459 -27.292,-34.209 -7.209,-46.667c20.75,-13 23.334,17.625 22.917,39.583Z" style="fill:#08c;fill-rule:nonzero;"/><path d="M625.375,2947.42c-7.879,10.069 -18.249,17.911 -30.083,22.75c-3.286,1.421 -6.653,2.646 -10.084,3.666l-13.5,-18.958c1.418,-6.265 3.284,-12.419 5.584,-18.417c2.313,-6.387 5.511,-12.418 9.5,-17.916c18.666,-24.75 56.75,3.75 38.583,28.875Z" style="fill:#08c;fill-rule:nonzero;"/><path d="M376.208,2935c5.709,6.667 9.5,11.833 9.5,11.833l-11.458,33.334c0,-0 -6.375,-4.5 -14.417,-11.584c1.787,-10.74 6.227,-20.867 12.917,-29.458c1.125,-1.375 2.333,-2.792 3.458,-4.125Z" style="fill-opacity:0.1;fill-rule:nonzero;"/><path d="M409.875,2927.67c-3.481,4.588 -7.208,8.983 -11.167,13.166c-0.978,-5.85 -1.659,-11.747 -2.041,-17.666c4.761,0.098 9.377,1.671 13.208,4.5Z" style="fill-opacity:0.1;fill-rule:nonzero;"/><path d="M466.208,3060.83l-28.5,12.5c0,0 -6.208,-3 -15.166,-8.583c-29.959,-18.417 -90.167,-64.792 -50,-119.458c40.166,-54.667 74.041,43.375 87.5,91.333c4.041,14.583 6.166,24.208 6.166,24.208Z" style="fill:#08c;fill-rule:nonzero;"/><path d="M541.958,2940.04c4.144,-4.271 9.765,-6.805 15.709,-7.084c-0.334,11.042 -1.417,19.875 -1.417,19.875c-5.04,-3.945 -9.814,-8.218 -14.292,-12.791Z" style="fill-opacity:0.1;fill-rule:nonzero;"/><path d="M595.375,2970.17c-3.285,1.421 -6.652,2.646 -10.083,3.666l-13.5,-18.958c1.417,-6.265 3.283,-12.419 5.583,-18.417c8.625,5.084 15.042,17.75 18,33.709Z" style="fill-opacity:0.1;fill-rule:nonzero;"/><path d="M524.542,3094c-1.542,0.333 -3.167,0.625 -4.792,0.875c-95.542,14.5 -31.5,-37.042 -31.5,-37.042c0,0 4.167,-4.166 10.125,-10.458c11.542,-12.708 28.875,-34.958 30.875,-55.542c3,-30.958 6.458,-60 43,-51.5c35.875,8.417 42.75,135.542 -47.708,153.667Z" style="fill:#08c;fill-rule:nonzero;"/><rect x="340.208" y="3331.88" width="182.542" height="48" style="fill:#d4dfec;"/><rect x="311.208" y="3175.88" width="238.5" height="167.5" style="fill:#d4dfec;"/><rect x="340.208" y="3331.88" width="182.542" height="48" style="fill-opacity:0.1;"/><rect x="311.208" y="3175.88" width="238.5" height="167.5" style="fill-opacity:0.1;"/><rect x="352.208" y="3331.88" width="182.542" height="48" style="fill:#d4dfec;"/><path d="M460.042,3036.67c4.166,14.333 6.166,24.166 6.166,24.166l-28.5,12.5c0,0 -6.208,-3 -15.166,-8.583c11.166,-14.125 23.75,-24.792 37.5,-28.083Z" style="fill-opacity:0.1;fill-rule:nonzero;"/><path d="M524.542,3094c-1.542,0.333 -3.167,0.625 -4.792,0.875c-95.542,14.5 -31.5,-37.042 -31.5,-37.042c0,0 4.167,-4.166 10.125,-10.458c17.833,14.292 25.208,30.375 26.167,46.625Z" style="fill-opacity:0.1;fill-rule:nonzero;"/><path d="M369.208,3185.38c0,0 53.5,-191.667 128.542,-132.542c75.042,59.125 -30.542,150 -30.542,150l-98,-17.458Z" style="fill:#08c;fill-rule:nonzero;"/><circle cx="396.208" cy="2975.33" r="6" style="fill-opacity:0.1;"/><circle cx="395.708" cy="3003.33" r="6" style="fill-opacity:0.1;"/><circle cx="569.75" cy="2980.83" r="6" style="fill-opacity:0.1;"/><circle cx="429.75" cy="3124.38" r="6" style="fill-opacity:0.1;"/><circle cx="557.25" cy="3027.33" r="6" style="fill-opacity:0.1;"/><circle cx="495.25" cy="3089.38" r="6" style="fill-opacity:0.1;"/><circle cx="416.708" cy="2987.33" r="6" style="fill-opacity:0.1;"/><circle cx="553.25" cy="2998.83" r="6" style="fill-opacity:0.1;"/><circle cx="532.75" cy="3045.33" r="6" style="fill-opacity:0.1;"/><circle cx="469.75" cy="3119.88" r="6" style="fill-opacity:0.1;"/><circle cx="456.75" cy="3090.38" r="6" style="fill-opacity:0.1;"/><circle cx="425.708" cy="3023.83" r="6" style="fill-opacity:0.1;"/><rect x="352.208" y="3331.88" width="182.542" height="17.542" style="fill-opacity:0.1;"/><rect x="323.208" y="3175.88" width="238.5" height="167.5" style="fill:#d4dfec;"/><circle cx="477.75" cy="3146.88" r="6" style="fill-opacity:0.1;"/><circle cx="441.75" cy="3154.38" r="6" style="fill-opacity:0.1;"/><circle cx="208.333" cy="216.667" r="43.583" style="fill:#08c;fill-opacity:0.1;"/><circle cx="4394.04" cy="1587.88" r="58.333" style="fill:#08c;fill-opacity:0.1;"/><circle cx="4506.5" cy="1462.88" r="42.583" style="fill:#08c;fill-opacity:0.1;"/><circle cx="283.333" cy="58.333" r="58.333" style="fill:#08c;fill-opacity:0.1;"/><circle cx="58.333" cy="325" r="58.333" style="fill:#08c;fill-opacity:0.1;"/><defs><linearGradient id="_Linear1" x1="0" y1="0" x2="1" y2="0" gradientUnits="userSpaceOnUse" gradientTransform="matrix(1.49381e-13,-2439.58,2439.58,1.49381e-13,2196.38,3232.71)"><stop offset="0" style="stop-color:#808080;stop-opacity:0.25"/><stop offset="0.54" style="stop-color:#808080;stop-opacity:0.12"/><stop offset="1" style="stop-color:#808080;stop-opacity:0.1"/></linearGradient></defs></svg>